G04 #@! TF.GenerationSoftware,KiCad,Pcbnew,5.0.1*
G04 #@! TF.CreationDate,2019-03-26T00:16:52+01:00*
G04 #@! TF.ProjectId,darling,6461726C696E672E6B696361645F7063,rev?*
G04 #@! TF.SameCoordinates,Original*
G04 #@! TF.FileFunction,Soldermask,Top*
G04 #@! TF.FilePolarity,Negative*
%FSLAX46Y46*%
G04 Gerber Fmt 4.6, Leading zero omitted, Abs format (unit mm)*
G04 Created by KiCad (PCBNEW 5.0.1) date Tue 26 Mar 2019 12:16:52 AM CET*
%MOMM*%
%LPD*%
G01*
G04 APERTURE LIST*
%ADD10C,0.100000*%
G04 APERTURE END LIST*
D10*
G36*
X120759803Y-128250723D02*
X120763287Y-128251780D01*
X120769227Y-128253582D01*
X120777913Y-128258225D01*
X120779651Y-128259651D01*
X120785527Y-128264473D01*
X120790349Y-128270349D01*
X120791775Y-128272087D01*
X120796418Y-128280773D01*
X120798220Y-128286713D01*
X120799277Y-128290197D01*
X120800847Y-128306141D01*
X120800847Y-129043856D01*
X120800798Y-129044354D01*
X120800358Y-129053988D01*
X120800325Y-129053987D01*
X120799734Y-129068089D01*
X120792110Y-129151851D01*
X120790356Y-129163440D01*
X120788528Y-129172346D01*
X120788189Y-129174058D01*
X120786449Y-129183181D01*
X120783840Y-129193966D01*
X120760106Y-129274605D01*
X120756129Y-129285652D01*
X120752603Y-129294041D01*
X120751939Y-129295653D01*
X120748452Y-129304283D01*
X120743809Y-129314332D01*
X120704864Y-129388826D01*
X120698812Y-129398900D01*
X120693765Y-129406381D01*
X120692794Y-129407841D01*
X120687660Y-129415687D01*
X120681158Y-129424636D01*
X120628478Y-129490157D01*
X120620603Y-129498841D01*
X120614138Y-129505261D01*
X120612909Y-129506499D01*
X120606404Y-129513142D01*
X120598267Y-129520676D01*
X120533847Y-129574731D01*
X120524470Y-129581692D01*
X120516884Y-129586732D01*
X120515430Y-129587713D01*
X120507746Y-129592975D01*
X120498314Y-129598777D01*
X120424623Y-129639290D01*
X120414059Y-129644304D01*
X120405680Y-129647758D01*
X120404073Y-129648433D01*
X120395458Y-129652125D01*
X120385087Y-129655982D01*
X120304974Y-129681395D01*
X120293566Y-129684281D01*
X120284634Y-129686050D01*
X120282925Y-129686401D01*
X120273854Y-129688329D01*
X120262908Y-129690102D01*
X120179378Y-129699472D01*
X120169084Y-129700012D01*
X120168653Y-129700035D01*
X120154632Y-129700819D01*
X120151535Y-129700841D01*
X120150953Y-129700843D01*
X120150082Y-129700843D01*
X120149917Y-129700847D01*
X119050700Y-129700847D01*
X119040439Y-129700237D01*
X119039130Y-129700166D01*
X119027347Y-129699589D01*
X118943700Y-129691388D01*
X118932104Y-129689551D01*
X118923225Y-129687664D01*
X118921520Y-129687314D01*
X118912359Y-129685500D01*
X118901624Y-129682824D01*
X118821344Y-129658586D01*
X118821099Y-129658508D01*
X118810127Y-129654472D01*
X118801714Y-129650866D01*
X118800105Y-129650190D01*
X118791542Y-129646661D01*
X118781518Y-129641944D01*
X118707315Y-129602490D01*
X118697288Y-129596369D01*
X118689818Y-129591254D01*
X118688367Y-129590276D01*
X118680586Y-129585106D01*
X118671664Y-129578529D01*
X118606495Y-129525377D01*
X118597891Y-129517463D01*
X118591516Y-129510954D01*
X118590298Y-129509727D01*
X118583672Y-129503146D01*
X118576209Y-129494973D01*
X118522618Y-129430195D01*
X118515691Y-129420727D01*
X118510724Y-129413138D01*
X118509759Y-129411685D01*
X118504542Y-129403950D01*
X118498799Y-129394467D01*
X118458803Y-129320496D01*
X118453867Y-129309904D01*
X118450461Y-129301474D01*
X118449798Y-129299866D01*
X118446182Y-129291263D01*
X118442397Y-129280864D01*
X118417465Y-129200322D01*
X118417289Y-129199545D01*
X118414735Y-129189150D01*
X118413027Y-129180201D01*
X118412691Y-129178505D01*
X118410818Y-129169379D01*
X118409125Y-129158440D01*
X118400337Y-129074828D01*
X118399806Y-129063115D01*
X118399842Y-129057893D01*
X118399243Y-129044771D01*
X118399153Y-129043857D01*
X118399153Y-128306141D01*
X118400723Y-128290197D01*
X118401780Y-128286713D01*
X118403582Y-128280773D01*
X118408225Y-128272087D01*
X118409651Y-128270349D01*
X118414473Y-128264473D01*
X118420349Y-128259651D01*
X118422087Y-128258225D01*
X118430773Y-128253582D01*
X118436713Y-128251780D01*
X118440197Y-128250723D01*
X118456141Y-128249153D01*
X120743859Y-128249153D01*
X120759803Y-128250723D01*
X120759803Y-128250723D01*
G37*
G36*
X125315486Y-128408229D02*
X125327423Y-128409405D01*
X125388685Y-128427989D01*
X125449948Y-128446573D01*
X125562868Y-128506930D01*
X125661843Y-128588157D01*
X125743070Y-128687132D01*
X125803427Y-128800052D01*
X125840595Y-128922578D01*
X125853145Y-129050000D01*
X125843052Y-129152471D01*
X125840595Y-129177423D01*
X125824114Y-129231751D01*
X125803427Y-129299948D01*
X125743070Y-129412868D01*
X125661843Y-129511843D01*
X125562868Y-129593070D01*
X125449948Y-129653427D01*
X125388685Y-129672011D01*
X125327423Y-129690595D01*
X125319371Y-129691388D01*
X125231932Y-129700000D01*
X124068068Y-129700000D01*
X123980629Y-129691388D01*
X123972577Y-129690595D01*
X123911315Y-129672011D01*
X123850052Y-129653427D01*
X123737132Y-129593070D01*
X123638157Y-129511843D01*
X123556930Y-129412868D01*
X123496573Y-129299948D01*
X123475886Y-129231751D01*
X123459405Y-129177423D01*
X123456948Y-129152471D01*
X123446855Y-129050000D01*
X123459405Y-128922578D01*
X123496573Y-128800052D01*
X123556930Y-128687132D01*
X123638157Y-128588157D01*
X123737132Y-128506930D01*
X123850052Y-128446573D01*
X123911315Y-128427989D01*
X123972577Y-128409405D01*
X123984514Y-128408229D01*
X124068068Y-128400000D01*
X125231932Y-128400000D01*
X125315486Y-128408229D01*
X125315486Y-128408229D01*
G37*
G36*
X139110443Y-127765519D02*
X139176627Y-127772037D01*
X139289853Y-127806384D01*
X139346467Y-127823557D01*
X139485087Y-127897652D01*
X139502991Y-127907222D01*
X139538729Y-127936552D01*
X139640186Y-128019814D01*
X139723448Y-128121271D01*
X139752778Y-128157009D01*
X139752779Y-128157011D01*
X139836443Y-128313533D01*
X139836443Y-128313534D01*
X139887963Y-128483373D01*
X139905359Y-128660000D01*
X139887963Y-128836627D01*
X139861890Y-128922577D01*
X139836443Y-129006467D01*
X139762348Y-129145087D01*
X139752778Y-129162991D01*
X139738654Y-129180201D01*
X139640186Y-129300186D01*
X139538729Y-129383448D01*
X139502991Y-129412778D01*
X139502317Y-129413138D01*
X139346467Y-129496443D01*
X139301178Y-129510181D01*
X139176627Y-129547963D01*
X139110443Y-129554481D01*
X139044260Y-129561000D01*
X138955740Y-129561000D01*
X138889557Y-129554481D01*
X138823373Y-129547963D01*
X138698822Y-129510181D01*
X138653533Y-129496443D01*
X138497683Y-129413138D01*
X138497009Y-129412778D01*
X138461271Y-129383448D01*
X138359814Y-129300186D01*
X138261346Y-129180201D01*
X138247222Y-129162991D01*
X138237652Y-129145087D01*
X138163557Y-129006467D01*
X138138110Y-128922577D01*
X138112037Y-128836627D01*
X138094641Y-128660000D01*
X138112037Y-128483373D01*
X138163557Y-128313534D01*
X138163557Y-128313533D01*
X138247221Y-128157011D01*
X138247222Y-128157009D01*
X138276552Y-128121271D01*
X138359814Y-128019814D01*
X138461271Y-127936552D01*
X138497009Y-127907222D01*
X138514913Y-127897652D01*
X138653533Y-127823557D01*
X138710147Y-127806384D01*
X138823373Y-127772037D01*
X138889557Y-127765519D01*
X138955740Y-127759000D01*
X139044260Y-127759000D01*
X139110443Y-127765519D01*
X139110443Y-127765519D01*
G37*
G36*
X132789499Y-128478445D02*
X132826993Y-128489819D01*
X132861557Y-128508294D01*
X132891847Y-128533153D01*
X132916706Y-128563443D01*
X132935181Y-128598007D01*
X132946555Y-128635501D01*
X132951000Y-128680638D01*
X132951000Y-129319362D01*
X132946555Y-129364499D01*
X132935181Y-129401993D01*
X132916706Y-129436557D01*
X132891847Y-129466847D01*
X132861557Y-129491706D01*
X132826993Y-129510181D01*
X132789499Y-129521555D01*
X132744362Y-129526000D01*
X132005638Y-129526000D01*
X131960501Y-129521555D01*
X131923007Y-129510181D01*
X131888443Y-129491706D01*
X131858153Y-129466847D01*
X131833294Y-129436557D01*
X131814819Y-129401993D01*
X131803445Y-129364499D01*
X131799000Y-129319362D01*
X131799000Y-128680638D01*
X131803445Y-128635501D01*
X131814819Y-128598007D01*
X131833294Y-128563443D01*
X131858153Y-128533153D01*
X131888443Y-128508294D01*
X131923007Y-128489819D01*
X131960501Y-128478445D01*
X132005638Y-128474000D01*
X132744362Y-128474000D01*
X132789499Y-128478445D01*
X132789499Y-128478445D01*
G37*
G36*
X131039499Y-128478445D02*
X131076993Y-128489819D01*
X131111557Y-128508294D01*
X131141847Y-128533153D01*
X131166706Y-128563443D01*
X131185181Y-128598007D01*
X131196555Y-128635501D01*
X131201000Y-128680638D01*
X131201000Y-129319362D01*
X131196555Y-129364499D01*
X131185181Y-129401993D01*
X131166706Y-129436557D01*
X131141847Y-129466847D01*
X131111557Y-129491706D01*
X131076993Y-129510181D01*
X131039499Y-129521555D01*
X130994362Y-129526000D01*
X130255638Y-129526000D01*
X130210501Y-129521555D01*
X130173007Y-129510181D01*
X130138443Y-129491706D01*
X130108153Y-129466847D01*
X130083294Y-129436557D01*
X130064819Y-129401993D01*
X130053445Y-129364499D01*
X130049000Y-129319362D01*
X130049000Y-128680638D01*
X130053445Y-128635501D01*
X130064819Y-128598007D01*
X130083294Y-128563443D01*
X130108153Y-128533153D01*
X130138443Y-128508294D01*
X130173007Y-128489819D01*
X130210501Y-128478445D01*
X130255638Y-128474000D01*
X130994362Y-128474000D01*
X131039499Y-128478445D01*
X131039499Y-128478445D01*
G37*
G36*
X129241938Y-128631716D02*
X129262556Y-128637970D01*
X129281556Y-128648126D01*
X129298208Y-128661792D01*
X129311874Y-128678444D01*
X129322030Y-128697444D01*
X129328284Y-128718062D01*
X129331000Y-128745640D01*
X129331000Y-129254360D01*
X129328284Y-129281938D01*
X129322030Y-129302556D01*
X129311874Y-129321556D01*
X129298208Y-129338208D01*
X129281556Y-129351874D01*
X129262556Y-129362030D01*
X129241938Y-129368284D01*
X129214360Y-129371000D01*
X128755640Y-129371000D01*
X128728062Y-129368284D01*
X128707444Y-129362030D01*
X128688444Y-129351874D01*
X128671792Y-129338208D01*
X128658126Y-129321556D01*
X128647970Y-129302556D01*
X128641716Y-129281938D01*
X128639000Y-129254360D01*
X128639000Y-128745640D01*
X128641716Y-128718062D01*
X128647970Y-128697444D01*
X128658126Y-128678444D01*
X128671792Y-128661792D01*
X128688444Y-128648126D01*
X128707444Y-128637970D01*
X128728062Y-128631716D01*
X128755640Y-128629000D01*
X129214360Y-128629000D01*
X129241938Y-128631716D01*
X129241938Y-128631716D01*
G37*
G36*
X128271938Y-128631716D02*
X128292556Y-128637970D01*
X128311556Y-128648126D01*
X128328208Y-128661792D01*
X128341874Y-128678444D01*
X128352030Y-128697444D01*
X128358284Y-128718062D01*
X128361000Y-128745640D01*
X128361000Y-129254360D01*
X128358284Y-129281938D01*
X128352030Y-129302556D01*
X128341874Y-129321556D01*
X128328208Y-129338208D01*
X128311556Y-129351874D01*
X128292556Y-129362030D01*
X128271938Y-129368284D01*
X128244360Y-129371000D01*
X127785640Y-129371000D01*
X127758062Y-129368284D01*
X127737444Y-129362030D01*
X127718444Y-129351874D01*
X127701792Y-129338208D01*
X127688126Y-129321556D01*
X127677970Y-129302556D01*
X127671716Y-129281938D01*
X127669000Y-129254360D01*
X127669000Y-128745640D01*
X127671716Y-128718062D01*
X127677970Y-128697444D01*
X127688126Y-128678444D01*
X127701792Y-128661792D01*
X127718444Y-128648126D01*
X127737444Y-128637970D01*
X127758062Y-128631716D01*
X127785640Y-128629000D01*
X128244360Y-128629000D01*
X128271938Y-128631716D01*
X128271938Y-128631716D01*
G37*
G36*
X135201000Y-124074000D02*
X135203402Y-124098386D01*
X135210515Y-124121835D01*
X135222066Y-124143446D01*
X135237612Y-124162388D01*
X135256554Y-124177934D01*
X135278165Y-124189485D01*
X135301614Y-124196598D01*
X135303242Y-124196758D01*
X135303402Y-124198386D01*
X135310515Y-124221835D01*
X135322066Y-124243446D01*
X135337612Y-124262388D01*
X135356554Y-124277934D01*
X135378165Y-124289485D01*
X135401614Y-124296598D01*
X135426000Y-124299000D01*
X136451000Y-124299000D01*
X136451000Y-126701000D01*
X135426000Y-126701000D01*
X135401614Y-126703402D01*
X135378165Y-126710515D01*
X135356554Y-126722066D01*
X135337612Y-126737612D01*
X135322066Y-126756554D01*
X135310515Y-126778165D01*
X135303402Y-126801614D01*
X135303242Y-126803242D01*
X135301614Y-126803402D01*
X135278165Y-126810515D01*
X135256554Y-126822066D01*
X135237612Y-126837612D01*
X135222066Y-126856554D01*
X135210515Y-126878165D01*
X135203402Y-126901614D01*
X135201000Y-126926000D01*
X135201000Y-127951000D01*
X132799000Y-127951000D01*
X132799000Y-126926000D01*
X132796598Y-126901614D01*
X132789485Y-126878165D01*
X132777934Y-126856554D01*
X132762388Y-126837612D01*
X132743446Y-126822066D01*
X132721835Y-126810515D01*
X132698386Y-126803402D01*
X132696758Y-126803242D01*
X132696598Y-126801614D01*
X132689485Y-126778165D01*
X132677934Y-126756554D01*
X132662388Y-126737612D01*
X132643446Y-126722066D01*
X132621835Y-126710515D01*
X132598386Y-126703402D01*
X132574000Y-126701000D01*
X131549000Y-126701000D01*
X131549000Y-124299000D01*
X132574000Y-124299000D01*
X132598386Y-124296598D01*
X132621835Y-124289485D01*
X132643446Y-124277934D01*
X132662388Y-124262388D01*
X132677934Y-124243446D01*
X132689485Y-124221835D01*
X132696598Y-124198386D01*
X132696758Y-124196758D01*
X132698386Y-124196598D01*
X132721835Y-124189485D01*
X132743446Y-124177934D01*
X132762388Y-124162388D01*
X132777934Y-124143446D01*
X132789485Y-124121835D01*
X132796598Y-124098386D01*
X132799000Y-124074000D01*
X132799000Y-123049000D01*
X135201000Y-123049000D01*
X135201000Y-124074000D01*
X135201000Y-124074000D01*
G37*
G36*
X125600000Y-127695000D02*
X124650000Y-127695000D01*
X124650000Y-125846751D01*
X124647598Y-125822365D01*
X124640485Y-125798916D01*
X124628934Y-125777305D01*
X124613388Y-125758363D01*
X124594446Y-125742817D01*
X124572835Y-125731266D01*
X124549386Y-125724153D01*
X124525000Y-125721751D01*
X124500614Y-125724153D01*
X124477165Y-125731266D01*
X124455554Y-125742817D01*
X124436612Y-125758363D01*
X124423112Y-125771863D01*
X124365787Y-125810166D01*
X124302091Y-125836550D01*
X124251377Y-125846638D01*
X124234473Y-125850000D01*
X124165527Y-125850000D01*
X124148623Y-125846638D01*
X124097909Y-125836550D01*
X124034213Y-125810166D01*
X123976888Y-125771863D01*
X123928137Y-125723112D01*
X123889834Y-125665787D01*
X123863450Y-125602091D01*
X123850000Y-125534472D01*
X123850000Y-125465528D01*
X123863450Y-125397909D01*
X123889834Y-125334213D01*
X123928137Y-125276888D01*
X123976888Y-125228137D01*
X124013118Y-125203929D01*
X124032054Y-125188389D01*
X124047599Y-125169447D01*
X124059151Y-125147836D01*
X124066264Y-125124387D01*
X124068666Y-125100000D01*
X124331334Y-125100000D01*
X124333736Y-125124386D01*
X124340849Y-125147835D01*
X124352400Y-125169446D01*
X124367945Y-125188388D01*
X124386882Y-125203929D01*
X124423112Y-125228137D01*
X124436612Y-125241637D01*
X124455554Y-125257183D01*
X124477165Y-125268734D01*
X124500614Y-125275847D01*
X124525000Y-125278249D01*
X124549386Y-125275847D01*
X124572835Y-125268734D01*
X124594446Y-125257183D01*
X124613388Y-125241637D01*
X124628934Y-125222695D01*
X124640485Y-125201084D01*
X124647598Y-125177635D01*
X124650000Y-125153249D01*
X124650000Y-125046751D01*
X124647598Y-125022365D01*
X124640485Y-124998916D01*
X124628934Y-124977305D01*
X124613388Y-124958363D01*
X124594446Y-124942817D01*
X124572835Y-124931266D01*
X124549386Y-124924153D01*
X124525000Y-124921751D01*
X124500614Y-124924153D01*
X124477165Y-124931266D01*
X124455554Y-124942817D01*
X124436612Y-124958363D01*
X124423112Y-124971863D01*
X124386882Y-124996071D01*
X124367946Y-125011611D01*
X124352401Y-125030553D01*
X124340849Y-125052164D01*
X124333736Y-125075613D01*
X124331334Y-125100000D01*
X124068666Y-125100000D01*
X124066264Y-125075614D01*
X124059151Y-125052165D01*
X124047600Y-125030554D01*
X124032055Y-125011612D01*
X124013118Y-124996071D01*
X123976888Y-124971863D01*
X123928137Y-124923112D01*
X123889834Y-124865787D01*
X123863450Y-124802091D01*
X123850000Y-124734472D01*
X123850000Y-124665528D01*
X123863450Y-124597909D01*
X123889834Y-124534213D01*
X123928137Y-124476888D01*
X123976888Y-124428137D01*
X124013118Y-124403929D01*
X124032054Y-124388389D01*
X124047599Y-124369447D01*
X124059151Y-124347836D01*
X124066264Y-124324387D01*
X124068666Y-124300000D01*
X124331334Y-124300000D01*
X124333736Y-124324386D01*
X124340849Y-124347835D01*
X124352400Y-124369446D01*
X124367945Y-124388388D01*
X124386882Y-124403929D01*
X124423112Y-124428137D01*
X124436612Y-124441637D01*
X124455554Y-124457183D01*
X124477165Y-124468734D01*
X124500614Y-124475847D01*
X124525000Y-124478249D01*
X124549386Y-124475847D01*
X124572835Y-124468734D01*
X124594446Y-124457183D01*
X124613388Y-124441637D01*
X124628934Y-124422695D01*
X124640485Y-124401084D01*
X124647598Y-124377635D01*
X124650000Y-124353249D01*
X124650000Y-124246751D01*
X124647598Y-124222365D01*
X124640485Y-124198916D01*
X124628934Y-124177305D01*
X124613388Y-124158363D01*
X124594446Y-124142817D01*
X124572835Y-124131266D01*
X124549386Y-124124153D01*
X124525000Y-124121751D01*
X124500614Y-124124153D01*
X124477165Y-124131266D01*
X124455554Y-124142817D01*
X124436612Y-124158363D01*
X124423112Y-124171863D01*
X124386882Y-124196071D01*
X124367946Y-124211611D01*
X124352401Y-124230553D01*
X124340849Y-124252164D01*
X124333736Y-124275613D01*
X124331334Y-124300000D01*
X124068666Y-124300000D01*
X124066264Y-124275614D01*
X124059151Y-124252165D01*
X124047600Y-124230554D01*
X124032055Y-124211612D01*
X124013118Y-124196071D01*
X123976888Y-124171863D01*
X123928137Y-124123112D01*
X123889834Y-124065787D01*
X123863450Y-124002091D01*
X123850000Y-123934472D01*
X123850000Y-123865528D01*
X123863450Y-123797909D01*
X123889834Y-123734213D01*
X123928137Y-123676888D01*
X123976888Y-123628137D01*
X124013118Y-123603929D01*
X124032054Y-123588389D01*
X124047599Y-123569447D01*
X124059151Y-123547836D01*
X124066264Y-123524387D01*
X124068666Y-123500000D01*
X124331334Y-123500000D01*
X124333736Y-123524386D01*
X124340849Y-123547835D01*
X124352400Y-123569446D01*
X124367945Y-123588388D01*
X124386882Y-123603929D01*
X124423112Y-123628137D01*
X124436612Y-123641637D01*
X124455554Y-123657183D01*
X124477165Y-123668734D01*
X124500614Y-123675847D01*
X124525000Y-123678249D01*
X124549386Y-123675847D01*
X124572835Y-123668734D01*
X124594446Y-123657183D01*
X124613388Y-123641637D01*
X124628934Y-123622695D01*
X124640485Y-123601084D01*
X124647598Y-123577635D01*
X124650000Y-123553249D01*
X124650000Y-123446751D01*
X124647598Y-123422365D01*
X124640485Y-123398916D01*
X124628934Y-123377305D01*
X124613388Y-123358363D01*
X124594446Y-123342817D01*
X124572835Y-123331266D01*
X124549386Y-123324153D01*
X124525000Y-123321751D01*
X124500614Y-123324153D01*
X124477165Y-123331266D01*
X124455554Y-123342817D01*
X124436612Y-123358363D01*
X124423112Y-123371863D01*
X124386882Y-123396071D01*
X124367946Y-123411611D01*
X124352401Y-123430553D01*
X124340849Y-123452164D01*
X124333736Y-123475613D01*
X124331334Y-123500000D01*
X124068666Y-123500000D01*
X124066264Y-123475614D01*
X124059151Y-123452165D01*
X124047600Y-123430554D01*
X124032055Y-123411612D01*
X124013118Y-123396071D01*
X123976888Y-123371863D01*
X123928137Y-123323112D01*
X123889834Y-123265787D01*
X123863450Y-123202091D01*
X123850000Y-123134472D01*
X123850000Y-123065528D01*
X123863450Y-122997909D01*
X123889834Y-122934213D01*
X123928137Y-122876888D01*
X123976888Y-122828137D01*
X124013118Y-122803929D01*
X124032054Y-122788389D01*
X124047599Y-122769447D01*
X124059151Y-122747836D01*
X124066264Y-122724387D01*
X124068666Y-122700000D01*
X124331334Y-122700000D01*
X124333736Y-122724386D01*
X124340849Y-122747835D01*
X124352400Y-122769446D01*
X124367945Y-122788388D01*
X124386882Y-122803929D01*
X124423112Y-122828137D01*
X124436612Y-122841637D01*
X124455554Y-122857183D01*
X124477165Y-122868734D01*
X124500614Y-122875847D01*
X124525000Y-122878249D01*
X124549386Y-122875847D01*
X124572835Y-122868734D01*
X124594446Y-122857183D01*
X124613388Y-122841637D01*
X124628934Y-122822695D01*
X124640485Y-122801084D01*
X124647598Y-122777635D01*
X124650000Y-122753249D01*
X124650000Y-122646751D01*
X124647598Y-122622365D01*
X124640485Y-122598916D01*
X124628934Y-122577305D01*
X124613388Y-122558363D01*
X124594446Y-122542817D01*
X124572835Y-122531266D01*
X124549386Y-122524153D01*
X124525000Y-122521751D01*
X124500614Y-122524153D01*
X124477165Y-122531266D01*
X124455554Y-122542817D01*
X124436612Y-122558363D01*
X124423112Y-122571863D01*
X124386882Y-122596071D01*
X124367946Y-122611611D01*
X124352401Y-122630553D01*
X124340849Y-122652164D01*
X124333736Y-122675613D01*
X124331334Y-122700000D01*
X124068666Y-122700000D01*
X124066264Y-122675614D01*
X124059151Y-122652165D01*
X124047600Y-122630554D01*
X124032055Y-122611612D01*
X124013118Y-122596071D01*
X123976888Y-122571863D01*
X123928137Y-122523112D01*
X123889834Y-122465787D01*
X123863450Y-122402091D01*
X123850000Y-122334472D01*
X123850000Y-122265528D01*
X123863450Y-122197909D01*
X123889834Y-122134213D01*
X123928137Y-122076888D01*
X123976888Y-122028137D01*
X124013118Y-122003929D01*
X124032054Y-121988389D01*
X124047599Y-121969447D01*
X124059151Y-121947836D01*
X124066264Y-121924387D01*
X124068666Y-121900000D01*
X124331334Y-121900000D01*
X124333736Y-121924386D01*
X124340849Y-121947835D01*
X124352400Y-121969446D01*
X124367945Y-121988388D01*
X124386882Y-122003929D01*
X124423112Y-122028137D01*
X124436612Y-122041637D01*
X124455554Y-122057183D01*
X124477165Y-122068734D01*
X124500614Y-122075847D01*
X124525000Y-122078249D01*
X124549386Y-122075847D01*
X124572835Y-122068734D01*
X124594446Y-122057183D01*
X124613388Y-122041637D01*
X124628934Y-122022695D01*
X124640485Y-122001084D01*
X124647598Y-121977635D01*
X124650000Y-121953249D01*
X124650000Y-121846751D01*
X124647598Y-121822365D01*
X124640485Y-121798916D01*
X124628934Y-121777305D01*
X124613388Y-121758363D01*
X124594446Y-121742817D01*
X124572835Y-121731266D01*
X124549386Y-121724153D01*
X124525000Y-121721751D01*
X124500614Y-121724153D01*
X124477165Y-121731266D01*
X124455554Y-121742817D01*
X124436612Y-121758363D01*
X124423112Y-121771863D01*
X124386882Y-121796071D01*
X124367946Y-121811611D01*
X124352401Y-121830553D01*
X124340849Y-121852164D01*
X124333736Y-121875613D01*
X124331334Y-121900000D01*
X124068666Y-121900000D01*
X124066264Y-121875614D01*
X124059151Y-121852165D01*
X124047600Y-121830554D01*
X124032055Y-121811612D01*
X124013118Y-121796071D01*
X123976888Y-121771863D01*
X123928137Y-121723112D01*
X123889834Y-121665787D01*
X123863450Y-121602091D01*
X123853363Y-121551377D01*
X123850000Y-121534473D01*
X123850000Y-121465527D01*
X123853363Y-121448623D01*
X123863450Y-121397909D01*
X123889834Y-121334213D01*
X123928137Y-121276888D01*
X123976888Y-121228137D01*
X124034213Y-121189834D01*
X124097909Y-121163450D01*
X124149194Y-121153249D01*
X124165527Y-121150000D01*
X124234473Y-121150000D01*
X124250806Y-121153249D01*
X124302091Y-121163450D01*
X124365787Y-121189834D01*
X124423112Y-121228137D01*
X124436612Y-121241637D01*
X124455554Y-121257183D01*
X124477165Y-121268734D01*
X124500614Y-121275847D01*
X124525000Y-121278249D01*
X124549386Y-121275847D01*
X124572835Y-121268734D01*
X124594446Y-121257183D01*
X124613388Y-121241637D01*
X124628934Y-121222695D01*
X124640485Y-121201084D01*
X124647598Y-121177635D01*
X124650000Y-121153249D01*
X124650000Y-119305000D01*
X125600000Y-119305000D01*
X125600000Y-127695000D01*
X125600000Y-127695000D01*
G37*
G36*
X129241938Y-126631716D02*
X129262556Y-126637970D01*
X129281556Y-126648126D01*
X129298208Y-126661792D01*
X129311874Y-126678444D01*
X129322030Y-126697444D01*
X129328284Y-126718062D01*
X129331000Y-126745640D01*
X129331000Y-127254360D01*
X129328284Y-127281938D01*
X129322030Y-127302556D01*
X129311874Y-127321556D01*
X129298208Y-127338208D01*
X129281556Y-127351874D01*
X129262556Y-127362030D01*
X129241938Y-127368284D01*
X129214360Y-127371000D01*
X128755640Y-127371000D01*
X128728062Y-127368284D01*
X128707444Y-127362030D01*
X128688444Y-127351874D01*
X128671792Y-127338208D01*
X128658126Y-127321556D01*
X128647970Y-127302556D01*
X128641716Y-127281938D01*
X128639000Y-127254360D01*
X128639000Y-126745640D01*
X128641716Y-126718062D01*
X128647970Y-126697444D01*
X128658126Y-126678444D01*
X128671792Y-126661792D01*
X128688444Y-126648126D01*
X128707444Y-126637970D01*
X128728062Y-126631716D01*
X128755640Y-126629000D01*
X129214360Y-126629000D01*
X129241938Y-126631716D01*
X129241938Y-126631716D01*
G37*
G36*
X128271938Y-126631716D02*
X128292556Y-126637970D01*
X128311556Y-126648126D01*
X128328208Y-126661792D01*
X128341874Y-126678444D01*
X128352030Y-126697444D01*
X128358284Y-126718062D01*
X128361000Y-126745640D01*
X128361000Y-127254360D01*
X128358284Y-127281938D01*
X128352030Y-127302556D01*
X128341874Y-127321556D01*
X128328208Y-127338208D01*
X128311556Y-127351874D01*
X128292556Y-127362030D01*
X128271938Y-127368284D01*
X128244360Y-127371000D01*
X127785640Y-127371000D01*
X127758062Y-127368284D01*
X127737444Y-127362030D01*
X127718444Y-127351874D01*
X127701792Y-127338208D01*
X127688126Y-127321556D01*
X127677970Y-127302556D01*
X127671716Y-127281938D01*
X127669000Y-127254360D01*
X127669000Y-126745640D01*
X127671716Y-126718062D01*
X127677970Y-126697444D01*
X127688126Y-126678444D01*
X127701792Y-126661792D01*
X127718444Y-126648126D01*
X127737444Y-126637970D01*
X127758062Y-126631716D01*
X127785640Y-126629000D01*
X128244360Y-126629000D01*
X128271938Y-126631716D01*
X128271938Y-126631716D01*
G37*
G36*
X139081775Y-125222695D02*
X139176627Y-125232037D01*
X139249405Y-125254114D01*
X139346467Y-125283557D01*
X139430144Y-125328284D01*
X139502991Y-125367222D01*
X139538729Y-125396552D01*
X139640186Y-125479814D01*
X139723448Y-125581271D01*
X139752778Y-125617009D01*
X139752779Y-125617011D01*
X139836443Y-125773533D01*
X139836443Y-125773534D01*
X139887963Y-125943373D01*
X139905359Y-126120000D01*
X139887963Y-126296627D01*
X139866226Y-126368284D01*
X139836443Y-126466467D01*
X139762348Y-126605087D01*
X139752778Y-126622991D01*
X139740485Y-126637970D01*
X139640186Y-126760186D01*
X139545841Y-126837612D01*
X139502991Y-126872778D01*
X139502989Y-126872779D01*
X139346467Y-126956443D01*
X139289853Y-126973616D01*
X139176627Y-127007963D01*
X139110442Y-127014482D01*
X139044260Y-127021000D01*
X138955740Y-127021000D01*
X138889558Y-127014482D01*
X138823373Y-127007963D01*
X138710147Y-126973616D01*
X138653533Y-126956443D01*
X138497011Y-126872779D01*
X138497009Y-126872778D01*
X138454159Y-126837612D01*
X138359814Y-126760186D01*
X138259515Y-126637970D01*
X138247222Y-126622991D01*
X138237652Y-126605087D01*
X138163557Y-126466467D01*
X138133774Y-126368284D01*
X138112037Y-126296627D01*
X138094641Y-126120000D01*
X138112037Y-125943373D01*
X138163557Y-125773534D01*
X138163557Y-125773533D01*
X138247221Y-125617011D01*
X138247222Y-125617009D01*
X138276552Y-125581271D01*
X138359814Y-125479814D01*
X138461271Y-125396552D01*
X138497009Y-125367222D01*
X138569856Y-125328284D01*
X138653533Y-125283557D01*
X138750595Y-125254114D01*
X138823373Y-125232037D01*
X138918225Y-125222695D01*
X138955740Y-125219000D01*
X139044260Y-125219000D01*
X139081775Y-125222695D01*
X139081775Y-125222695D01*
G37*
G36*
X127271938Y-125631716D02*
X127292556Y-125637970D01*
X127311556Y-125648126D01*
X127328208Y-125661792D01*
X127341874Y-125678444D01*
X127352030Y-125697444D01*
X127358284Y-125718062D01*
X127361000Y-125745640D01*
X127361000Y-126254360D01*
X127358284Y-126281938D01*
X127352030Y-126302556D01*
X127341874Y-126321556D01*
X127328208Y-126338208D01*
X127311556Y-126351874D01*
X127292556Y-126362030D01*
X127271938Y-126368284D01*
X127244360Y-126371000D01*
X126785640Y-126371000D01*
X126758062Y-126368284D01*
X126737444Y-126362030D01*
X126718444Y-126351874D01*
X126701792Y-126338208D01*
X126688126Y-126321556D01*
X126677970Y-126302556D01*
X126671716Y-126281938D01*
X126669000Y-126254360D01*
X126669000Y-125745640D01*
X126671716Y-125718062D01*
X126677970Y-125697444D01*
X126688126Y-125678444D01*
X126701792Y-125661792D01*
X126718444Y-125648126D01*
X126737444Y-125637970D01*
X126758062Y-125631716D01*
X126785640Y-125629000D01*
X127244360Y-125629000D01*
X127271938Y-125631716D01*
X127271938Y-125631716D01*
G37*
G36*
X128241938Y-125631716D02*
X128262556Y-125637970D01*
X128281556Y-125648126D01*
X128298208Y-125661792D01*
X128311874Y-125678444D01*
X128322030Y-125697444D01*
X128328284Y-125718062D01*
X128331000Y-125745640D01*
X128331000Y-126254360D01*
X128328284Y-126281938D01*
X128322030Y-126302556D01*
X128311874Y-126321556D01*
X128298208Y-126338208D01*
X128281556Y-126351874D01*
X128262556Y-126362030D01*
X128241938Y-126368284D01*
X128214360Y-126371000D01*
X127755640Y-126371000D01*
X127728062Y-126368284D01*
X127707444Y-126362030D01*
X127688444Y-126351874D01*
X127671792Y-126338208D01*
X127658126Y-126321556D01*
X127647970Y-126302556D01*
X127641716Y-126281938D01*
X127639000Y-126254360D01*
X127639000Y-125745640D01*
X127641716Y-125718062D01*
X127647970Y-125697444D01*
X127658126Y-125678444D01*
X127671792Y-125661792D01*
X127688444Y-125648126D01*
X127707444Y-125637970D01*
X127728062Y-125631716D01*
X127755640Y-125629000D01*
X128214360Y-125629000D01*
X128241938Y-125631716D01*
X128241938Y-125631716D01*
G37*
G36*
X128281938Y-124641716D02*
X128302556Y-124647970D01*
X128321556Y-124658126D01*
X128338208Y-124671792D01*
X128351874Y-124688444D01*
X128362030Y-124707444D01*
X128368284Y-124728062D01*
X128371000Y-124755640D01*
X128371000Y-125214360D01*
X128368284Y-125241938D01*
X128362030Y-125262556D01*
X128351874Y-125281556D01*
X128338208Y-125298208D01*
X128321556Y-125311874D01*
X128302556Y-125322030D01*
X128281938Y-125328284D01*
X128254360Y-125331000D01*
X127745640Y-125331000D01*
X127718062Y-125328284D01*
X127697444Y-125322030D01*
X127678444Y-125311874D01*
X127661792Y-125298208D01*
X127648126Y-125281556D01*
X127637970Y-125262556D01*
X127631716Y-125241938D01*
X127629000Y-125214360D01*
X127629000Y-124755640D01*
X127631716Y-124728062D01*
X127637970Y-124707444D01*
X127648126Y-124688444D01*
X127661792Y-124671792D01*
X127678444Y-124658126D01*
X127697444Y-124647970D01*
X127718062Y-124641716D01*
X127745640Y-124639000D01*
X128254360Y-124639000D01*
X128281938Y-124641716D01*
X128281938Y-124641716D01*
G37*
G36*
X139110442Y-122685518D02*
X139176627Y-122692037D01*
X139283271Y-122724387D01*
X139346467Y-122743557D01*
X139459423Y-122803934D01*
X139502991Y-122827222D01*
X139538729Y-122856552D01*
X139640186Y-122939814D01*
X139723448Y-123041271D01*
X139752778Y-123077009D01*
X139752779Y-123077011D01*
X139836443Y-123233533D01*
X139845247Y-123262556D01*
X139887963Y-123403373D01*
X139905359Y-123580000D01*
X139887963Y-123756627D01*
X139862065Y-123842000D01*
X139836443Y-123926467D01*
X139762348Y-124065087D01*
X139752778Y-124082991D01*
X139723448Y-124118729D01*
X139640186Y-124220186D01*
X139550103Y-124294114D01*
X139502991Y-124332778D01*
X139502989Y-124332779D01*
X139346467Y-124416443D01*
X139307916Y-124428137D01*
X139176627Y-124467963D01*
X139110443Y-124474481D01*
X139044260Y-124481000D01*
X138955740Y-124481000D01*
X138889557Y-124474481D01*
X138823373Y-124467963D01*
X138692084Y-124428137D01*
X138653533Y-124416443D01*
X138497011Y-124332779D01*
X138497009Y-124332778D01*
X138449897Y-124294114D01*
X138359814Y-124220186D01*
X138276552Y-124118729D01*
X138247222Y-124082991D01*
X138237652Y-124065087D01*
X138163557Y-123926467D01*
X138137935Y-123842000D01*
X138112037Y-123756627D01*
X138094641Y-123580000D01*
X138112037Y-123403373D01*
X138154753Y-123262556D01*
X138163557Y-123233533D01*
X138247221Y-123077011D01*
X138247222Y-123077009D01*
X138276552Y-123041271D01*
X138359814Y-122939814D01*
X138461271Y-122856552D01*
X138497009Y-122827222D01*
X138540577Y-122803934D01*
X138653533Y-122743557D01*
X138716729Y-122724387D01*
X138823373Y-122692037D01*
X138889558Y-122685518D01*
X138955740Y-122679000D01*
X139044260Y-122679000D01*
X139110442Y-122685518D01*
X139110442Y-122685518D01*
G37*
G36*
X129271938Y-123631716D02*
X129292556Y-123637970D01*
X129311556Y-123648126D01*
X129328208Y-123661792D01*
X129341874Y-123678444D01*
X129352030Y-123697444D01*
X129358284Y-123718062D01*
X129361000Y-123745640D01*
X129361000Y-124254360D01*
X129358284Y-124281938D01*
X129352030Y-124302556D01*
X129341874Y-124321556D01*
X129328208Y-124338208D01*
X129311556Y-124351874D01*
X129292556Y-124362030D01*
X129271938Y-124368284D01*
X129244360Y-124371000D01*
X128785640Y-124371000D01*
X128758062Y-124368284D01*
X128737444Y-124362030D01*
X128718444Y-124351874D01*
X128701792Y-124338208D01*
X128688126Y-124321556D01*
X128677970Y-124302556D01*
X128671716Y-124281938D01*
X128669000Y-124254360D01*
X128669000Y-123745640D01*
X128671716Y-123718062D01*
X128677970Y-123697444D01*
X128688126Y-123678444D01*
X128701792Y-123661792D01*
X128718444Y-123648126D01*
X128737444Y-123637970D01*
X128758062Y-123631716D01*
X128785640Y-123629000D01*
X129244360Y-123629000D01*
X129271938Y-123631716D01*
X129271938Y-123631716D01*
G37*
G36*
X130241938Y-123631716D02*
X130262556Y-123637970D01*
X130281556Y-123648126D01*
X130298208Y-123661792D01*
X130311874Y-123678444D01*
X130322030Y-123697444D01*
X130328284Y-123718062D01*
X130331000Y-123745640D01*
X130331000Y-124254360D01*
X130328284Y-124281938D01*
X130322030Y-124302556D01*
X130311874Y-124321556D01*
X130298208Y-124338208D01*
X130281556Y-124351874D01*
X130262556Y-124362030D01*
X130241938Y-124368284D01*
X130214360Y-124371000D01*
X129755640Y-124371000D01*
X129728062Y-124368284D01*
X129707444Y-124362030D01*
X129688444Y-124351874D01*
X129671792Y-124338208D01*
X129658126Y-124321556D01*
X129647970Y-124302556D01*
X129641716Y-124281938D01*
X129639000Y-124254360D01*
X129639000Y-123745640D01*
X129641716Y-123718062D01*
X129647970Y-123697444D01*
X129658126Y-123678444D01*
X129671792Y-123661792D01*
X129688444Y-123648126D01*
X129707444Y-123637970D01*
X129728062Y-123631716D01*
X129755640Y-123629000D01*
X130214360Y-123629000D01*
X130241938Y-123631716D01*
X130241938Y-123631716D01*
G37*
G36*
X128281938Y-123671716D02*
X128302556Y-123677970D01*
X128321556Y-123688126D01*
X128338208Y-123701792D01*
X128351874Y-123718444D01*
X128362030Y-123737444D01*
X128368284Y-123758062D01*
X128371000Y-123785640D01*
X128371000Y-124244360D01*
X128368284Y-124271938D01*
X128362030Y-124292556D01*
X128351874Y-124311556D01*
X128338208Y-124328208D01*
X128321556Y-124341874D01*
X128302556Y-124352030D01*
X128281938Y-124358284D01*
X128254360Y-124361000D01*
X127745640Y-124361000D01*
X127718062Y-124358284D01*
X127697444Y-124352030D01*
X127678444Y-124341874D01*
X127661792Y-124328208D01*
X127648126Y-124311556D01*
X127637970Y-124292556D01*
X127631716Y-124271938D01*
X127629000Y-124244360D01*
X127629000Y-123785640D01*
X127631716Y-123758062D01*
X127637970Y-123737444D01*
X127648126Y-123718444D01*
X127661792Y-123701792D01*
X127678444Y-123688126D01*
X127697444Y-123677970D01*
X127718062Y-123671716D01*
X127745640Y-123669000D01*
X128254360Y-123669000D01*
X128281938Y-123671716D01*
X128281938Y-123671716D01*
G37*
G36*
X130241938Y-122631716D02*
X130262556Y-122637970D01*
X130281556Y-122648126D01*
X130298208Y-122661792D01*
X130311874Y-122678444D01*
X130322030Y-122697444D01*
X130328284Y-122718062D01*
X130331000Y-122745640D01*
X130331000Y-123254360D01*
X130328284Y-123281938D01*
X130322030Y-123302556D01*
X130311874Y-123321556D01*
X130298208Y-123338208D01*
X130281556Y-123351874D01*
X130262556Y-123362030D01*
X130241938Y-123368284D01*
X130214360Y-123371000D01*
X129755640Y-123371000D01*
X129728062Y-123368284D01*
X129707444Y-123362030D01*
X129688444Y-123351874D01*
X129671792Y-123338208D01*
X129658126Y-123321556D01*
X129647970Y-123302556D01*
X129641716Y-123281938D01*
X129639000Y-123254360D01*
X129639000Y-122745640D01*
X129641716Y-122718062D01*
X129647970Y-122697444D01*
X129658126Y-122678444D01*
X129671792Y-122661792D01*
X129688444Y-122648126D01*
X129707444Y-122637970D01*
X129728062Y-122631716D01*
X129755640Y-122629000D01*
X130214360Y-122629000D01*
X130241938Y-122631716D01*
X130241938Y-122631716D01*
G37*
G36*
X129271938Y-122631716D02*
X129292556Y-122637970D01*
X129311556Y-122648126D01*
X129328208Y-122661792D01*
X129341874Y-122678444D01*
X129352030Y-122697444D01*
X129358284Y-122718062D01*
X129361000Y-122745640D01*
X129361000Y-123254360D01*
X129358284Y-123281938D01*
X129352030Y-123302556D01*
X129341874Y-123321556D01*
X129328208Y-123338208D01*
X129311556Y-123351874D01*
X129292556Y-123362030D01*
X129271938Y-123368284D01*
X129244360Y-123371000D01*
X128785640Y-123371000D01*
X128758062Y-123368284D01*
X128737444Y-123362030D01*
X128718444Y-123351874D01*
X128701792Y-123338208D01*
X128688126Y-123321556D01*
X128677970Y-123302556D01*
X128671716Y-123281938D01*
X128669000Y-123254360D01*
X128669000Y-122745640D01*
X128671716Y-122718062D01*
X128677970Y-122697444D01*
X128688126Y-122678444D01*
X128701792Y-122661792D01*
X128718444Y-122648126D01*
X128737444Y-122637970D01*
X128758062Y-122631716D01*
X128785640Y-122629000D01*
X129244360Y-122629000D01*
X129271938Y-122631716D01*
X129271938Y-122631716D01*
G37*
G36*
X128281938Y-122641716D02*
X128302556Y-122647970D01*
X128321556Y-122658126D01*
X128338208Y-122671792D01*
X128351874Y-122688444D01*
X128362030Y-122707444D01*
X128368284Y-122728062D01*
X128371000Y-122755640D01*
X128371000Y-123214360D01*
X128368284Y-123241938D01*
X128362030Y-123262556D01*
X128351874Y-123281556D01*
X128338208Y-123298208D01*
X128321556Y-123311874D01*
X128302556Y-123322030D01*
X128281938Y-123328284D01*
X128254360Y-123331000D01*
X127745640Y-123331000D01*
X127718062Y-123328284D01*
X127697444Y-123322030D01*
X127678444Y-123311874D01*
X127661792Y-123298208D01*
X127648126Y-123281556D01*
X127637970Y-123262556D01*
X127631716Y-123241938D01*
X127629000Y-123214360D01*
X127629000Y-122755640D01*
X127631716Y-122728062D01*
X127637970Y-122707444D01*
X127648126Y-122688444D01*
X127661792Y-122671792D01*
X127678444Y-122658126D01*
X127697444Y-122647970D01*
X127718062Y-122641716D01*
X127745640Y-122639000D01*
X128254360Y-122639000D01*
X128281938Y-122641716D01*
X128281938Y-122641716D01*
G37*
G36*
X128281938Y-121671716D02*
X128302556Y-121677970D01*
X128321556Y-121688126D01*
X128338208Y-121701792D01*
X128351874Y-121718444D01*
X128362030Y-121737444D01*
X128368284Y-121758062D01*
X128371000Y-121785640D01*
X128371000Y-122244360D01*
X128368284Y-122271938D01*
X128362030Y-122292556D01*
X128351874Y-122311556D01*
X128338208Y-122328208D01*
X128321556Y-122341874D01*
X128302556Y-122352030D01*
X128281938Y-122358284D01*
X128254360Y-122361000D01*
X127745640Y-122361000D01*
X127718062Y-122358284D01*
X127697444Y-122352030D01*
X127678444Y-122341874D01*
X127661792Y-122328208D01*
X127648126Y-122311556D01*
X127637970Y-122292556D01*
X127631716Y-122271938D01*
X127629000Y-122244360D01*
X127629000Y-121785640D01*
X127631716Y-121758062D01*
X127637970Y-121737444D01*
X127648126Y-121718444D01*
X127661792Y-121701792D01*
X127678444Y-121688126D01*
X127697444Y-121677970D01*
X127718062Y-121671716D01*
X127745640Y-121669000D01*
X128254360Y-121669000D01*
X128281938Y-121671716D01*
X128281938Y-121671716D01*
G37*
G36*
X132281938Y-121641716D02*
X132302556Y-121647970D01*
X132321556Y-121658126D01*
X132338208Y-121671792D01*
X132351874Y-121688444D01*
X132362030Y-121707444D01*
X132368284Y-121728062D01*
X132371000Y-121755640D01*
X132371000Y-122214360D01*
X132368284Y-122241938D01*
X132362030Y-122262556D01*
X132351874Y-122281556D01*
X132338208Y-122298208D01*
X132321556Y-122311874D01*
X132302556Y-122322030D01*
X132281938Y-122328284D01*
X132254360Y-122331000D01*
X131745640Y-122331000D01*
X131718062Y-122328284D01*
X131697444Y-122322030D01*
X131678444Y-122311874D01*
X131661792Y-122298208D01*
X131648126Y-122281556D01*
X131637970Y-122262556D01*
X131631716Y-122241938D01*
X131629000Y-122214360D01*
X131629000Y-121755640D01*
X131631716Y-121728062D01*
X131637970Y-121707444D01*
X131648126Y-121688444D01*
X131661792Y-121671792D01*
X131678444Y-121658126D01*
X131697444Y-121647970D01*
X131718062Y-121641716D01*
X131745640Y-121639000D01*
X132254360Y-121639000D01*
X132281938Y-121641716D01*
X132281938Y-121641716D01*
G37*
G36*
X133281938Y-121641716D02*
X133302556Y-121647970D01*
X133321556Y-121658126D01*
X133338208Y-121671792D01*
X133351874Y-121688444D01*
X133362030Y-121707444D01*
X133368284Y-121728062D01*
X133371000Y-121755640D01*
X133371000Y-122214360D01*
X133368284Y-122241938D01*
X133362030Y-122262556D01*
X133351874Y-122281556D01*
X133338208Y-122298208D01*
X133321556Y-122311874D01*
X133302556Y-122322030D01*
X133281938Y-122328284D01*
X133254360Y-122331000D01*
X132745640Y-122331000D01*
X132718062Y-122328284D01*
X132697444Y-122322030D01*
X132678444Y-122311874D01*
X132661792Y-122298208D01*
X132648126Y-122281556D01*
X132637970Y-122262556D01*
X132631716Y-122241938D01*
X132629000Y-122214360D01*
X132629000Y-121755640D01*
X132631716Y-121728062D01*
X132637970Y-121707444D01*
X132648126Y-121688444D01*
X132661792Y-121671792D01*
X132678444Y-121658126D01*
X132697444Y-121647970D01*
X132718062Y-121641716D01*
X132745640Y-121639000D01*
X133254360Y-121639000D01*
X133281938Y-121641716D01*
X133281938Y-121641716D01*
G37*
G36*
X139110442Y-120145518D02*
X139176627Y-120152037D01*
X139289853Y-120186384D01*
X139346467Y-120203557D01*
X139461417Y-120265000D01*
X139502991Y-120287222D01*
X139538729Y-120316552D01*
X139640186Y-120399814D01*
X139723448Y-120501271D01*
X139752778Y-120537009D01*
X139752779Y-120537011D01*
X139836443Y-120693533D01*
X139844372Y-120719671D01*
X139887963Y-120863373D01*
X139905359Y-121040000D01*
X139887963Y-121216627D01*
X139869999Y-121275847D01*
X139836443Y-121386467D01*
X139794184Y-121465527D01*
X139752778Y-121542991D01*
X139723448Y-121578729D01*
X139640186Y-121680186D01*
X139545292Y-121758062D01*
X139502991Y-121792778D01*
X139502989Y-121792779D01*
X139346467Y-121876443D01*
X139289853Y-121893616D01*
X139176627Y-121927963D01*
X139110443Y-121934481D01*
X139044260Y-121941000D01*
X138955740Y-121941000D01*
X138889557Y-121934481D01*
X138823373Y-121927963D01*
X138710147Y-121893616D01*
X138653533Y-121876443D01*
X138497011Y-121792779D01*
X138497009Y-121792778D01*
X138454708Y-121758062D01*
X138359814Y-121680186D01*
X138276552Y-121578729D01*
X138247222Y-121542991D01*
X138205816Y-121465527D01*
X138163557Y-121386467D01*
X138130001Y-121275847D01*
X138112037Y-121216627D01*
X138094641Y-121040000D01*
X138112037Y-120863373D01*
X138155628Y-120719671D01*
X138163557Y-120693533D01*
X138247221Y-120537011D01*
X138247222Y-120537009D01*
X138276552Y-120501271D01*
X138359814Y-120399814D01*
X138461271Y-120316552D01*
X138497009Y-120287222D01*
X138538583Y-120265000D01*
X138653533Y-120203557D01*
X138710147Y-120186384D01*
X138823373Y-120152037D01*
X138889558Y-120145518D01*
X138955740Y-120139000D01*
X139044260Y-120139000D01*
X139110442Y-120145518D01*
X139110442Y-120145518D01*
G37*
G36*
X133281938Y-120671716D02*
X133302556Y-120677970D01*
X133321556Y-120688126D01*
X133338208Y-120701792D01*
X133351874Y-120718444D01*
X133362030Y-120737444D01*
X133368284Y-120758062D01*
X133371000Y-120785640D01*
X133371000Y-121244360D01*
X133368284Y-121271938D01*
X133362030Y-121292556D01*
X133351874Y-121311556D01*
X133338208Y-121328208D01*
X133321556Y-121341874D01*
X133302556Y-121352030D01*
X133281938Y-121358284D01*
X133254360Y-121361000D01*
X132745640Y-121361000D01*
X132718062Y-121358284D01*
X132697444Y-121352030D01*
X132678444Y-121341874D01*
X132661792Y-121328208D01*
X132648126Y-121311556D01*
X132637970Y-121292556D01*
X132631716Y-121271938D01*
X132629000Y-121244360D01*
X132629000Y-120785640D01*
X132631716Y-120758062D01*
X132637970Y-120737444D01*
X132648126Y-120718444D01*
X132661792Y-120701792D01*
X132678444Y-120688126D01*
X132697444Y-120677970D01*
X132718062Y-120671716D01*
X132745640Y-120669000D01*
X133254360Y-120669000D01*
X133281938Y-120671716D01*
X133281938Y-120671716D01*
G37*
G36*
X132281938Y-120671716D02*
X132302556Y-120677970D01*
X132321556Y-120688126D01*
X132338208Y-120701792D01*
X132351874Y-120718444D01*
X132362030Y-120737444D01*
X132368284Y-120758062D01*
X132371000Y-120785640D01*
X132371000Y-121244360D01*
X132368284Y-121271938D01*
X132362030Y-121292556D01*
X132351874Y-121311556D01*
X132338208Y-121328208D01*
X132321556Y-121341874D01*
X132302556Y-121352030D01*
X132281938Y-121358284D01*
X132254360Y-121361000D01*
X131745640Y-121361000D01*
X131718062Y-121358284D01*
X131697444Y-121352030D01*
X131678444Y-121341874D01*
X131661792Y-121328208D01*
X131648126Y-121311556D01*
X131637970Y-121292556D01*
X131631716Y-121271938D01*
X131629000Y-121244360D01*
X131629000Y-120785640D01*
X131631716Y-120758062D01*
X131637970Y-120737444D01*
X131648126Y-120718444D01*
X131661792Y-120701792D01*
X131678444Y-120688126D01*
X131697444Y-120677970D01*
X131718062Y-120671716D01*
X131745640Y-120669000D01*
X132254360Y-120669000D01*
X132281938Y-120671716D01*
X132281938Y-120671716D01*
G37*
G36*
X128938677Y-119753465D02*
X128976364Y-119764898D01*
X129011103Y-119783466D01*
X129041548Y-119808452D01*
X129066534Y-119838897D01*
X129085102Y-119873636D01*
X129096535Y-119911323D01*
X129101000Y-119956661D01*
X129101000Y-121043339D01*
X129096535Y-121088677D01*
X129085102Y-121126364D01*
X129066534Y-121161103D01*
X129041548Y-121191548D01*
X129011103Y-121216534D01*
X128976364Y-121235102D01*
X128938677Y-121246535D01*
X128893339Y-121251000D01*
X128056661Y-121251000D01*
X128011323Y-121246535D01*
X127973636Y-121235102D01*
X127938897Y-121216534D01*
X127908452Y-121191548D01*
X127883466Y-121161103D01*
X127864898Y-121126364D01*
X127853465Y-121088677D01*
X127849000Y-121043339D01*
X127849000Y-119956661D01*
X127853465Y-119911323D01*
X127864898Y-119873636D01*
X127883466Y-119838897D01*
X127908452Y-119808452D01*
X127938897Y-119783466D01*
X127973636Y-119764898D01*
X128011323Y-119753465D01*
X128056661Y-119749000D01*
X128893339Y-119749000D01*
X128938677Y-119753465D01*
X128938677Y-119753465D01*
G37*
G36*
X130988677Y-119753465D02*
X131026364Y-119764898D01*
X131061103Y-119783466D01*
X131091548Y-119808452D01*
X131116534Y-119838897D01*
X131135102Y-119873636D01*
X131146535Y-119911323D01*
X131151000Y-119956661D01*
X131151000Y-121043339D01*
X131146535Y-121088677D01*
X131135102Y-121126364D01*
X131116534Y-121161103D01*
X131091548Y-121191548D01*
X131061103Y-121216534D01*
X131026364Y-121235102D01*
X130988677Y-121246535D01*
X130943339Y-121251000D01*
X130106661Y-121251000D01*
X130061323Y-121246535D01*
X130023636Y-121235102D01*
X129988897Y-121216534D01*
X129958452Y-121191548D01*
X129933466Y-121161103D01*
X129914898Y-121126364D01*
X129903465Y-121088677D01*
X129899000Y-121043339D01*
X129899000Y-119956661D01*
X129903465Y-119911323D01*
X129914898Y-119873636D01*
X129933466Y-119838897D01*
X129958452Y-119808452D01*
X129988897Y-119783466D01*
X130023636Y-119764898D01*
X130061323Y-119753465D01*
X130106661Y-119749000D01*
X130943339Y-119749000D01*
X130988677Y-119753465D01*
X130988677Y-119753465D01*
G37*
G36*
X139901000Y-119401000D02*
X138099000Y-119401000D01*
X138099000Y-117599000D01*
X139901000Y-117599000D01*
X139901000Y-119401000D01*
X139901000Y-119401000D01*
G37*
G36*
X120159561Y-117299763D02*
X120160870Y-117299834D01*
X120172653Y-117300411D01*
X120256289Y-117308611D01*
X120267905Y-117310451D01*
X120276805Y-117312342D01*
X120278512Y-117312692D01*
X120287636Y-117314499D01*
X120298372Y-117317176D01*
X120378839Y-117341470D01*
X120389881Y-117345532D01*
X120398232Y-117349111D01*
X120399836Y-117349785D01*
X120408448Y-117353335D01*
X120418487Y-117358059D01*
X120492684Y-117397510D01*
X120502717Y-117403634D01*
X120510227Y-117408776D01*
X120511672Y-117409750D01*
X120519409Y-117414891D01*
X120528338Y-117421474D01*
X120593504Y-117474623D01*
X120602107Y-117482535D01*
X120608467Y-117489028D01*
X120609682Y-117490251D01*
X120616332Y-117496856D01*
X120623783Y-117505015D01*
X120677382Y-117569805D01*
X120684309Y-117579273D01*
X120689276Y-117586862D01*
X120690241Y-117588315D01*
X120695457Y-117596048D01*
X120701195Y-117605523D01*
X120741181Y-117679477D01*
X120746135Y-117690101D01*
X120749561Y-117698581D01*
X120750226Y-117700194D01*
X120753822Y-117708748D01*
X120757605Y-117719142D01*
X120782483Y-117799504D01*
X120785262Y-117810832D01*
X120786973Y-117819799D01*
X120787309Y-117821495D01*
X120789182Y-117830621D01*
X120790875Y-117841560D01*
X120799663Y-117925172D01*
X120800194Y-117936885D01*
X120800158Y-117942107D01*
X120800757Y-117955229D01*
X120800847Y-117956143D01*
X120800847Y-118693859D01*
X120800242Y-118700000D01*
X120799277Y-118709802D01*
X120796418Y-118719227D01*
X120791775Y-118727913D01*
X120790349Y-118729651D01*
X120785527Y-118735527D01*
X120779651Y-118740349D01*
X120777913Y-118741775D01*
X120769227Y-118746418D01*
X120763287Y-118748220D01*
X120759803Y-118749277D01*
X120743859Y-118750847D01*
X118456141Y-118750847D01*
X118440197Y-118749277D01*
X118436713Y-118748220D01*
X118430773Y-118746418D01*
X118422087Y-118741775D01*
X118420349Y-118740349D01*
X118414473Y-118735527D01*
X118409651Y-118729651D01*
X118408225Y-118727913D01*
X118403582Y-118719227D01*
X118400723Y-118709802D01*
X118399758Y-118700000D01*
X118399153Y-118693859D01*
X118399153Y-117956141D01*
X118399202Y-117955643D01*
X118399642Y-117946011D01*
X118399675Y-117946012D01*
X118400266Y-117931910D01*
X118407890Y-117848146D01*
X118409641Y-117836578D01*
X118411471Y-117827663D01*
X118411811Y-117825946D01*
X118413555Y-117816803D01*
X118416161Y-117806027D01*
X118439890Y-117725402D01*
X118443867Y-117714354D01*
X118447418Y-117705907D01*
X118448081Y-117704298D01*
X118451550Y-117695712D01*
X118456189Y-117685673D01*
X118495137Y-117611173D01*
X118501189Y-117601100D01*
X118506244Y-117593606D01*
X118507212Y-117592149D01*
X118512325Y-117584335D01*
X118518837Y-117575372D01*
X118571543Y-117509817D01*
X118579398Y-117501157D01*
X118585845Y-117494754D01*
X118587067Y-117493524D01*
X118593602Y-117486851D01*
X118601721Y-117479334D01*
X118666135Y-117425286D01*
X118675536Y-117418304D01*
X118683116Y-117413268D01*
X118684570Y-117412287D01*
X118692252Y-117407026D01*
X118701691Y-117401219D01*
X118775372Y-117360713D01*
X118785940Y-117355697D01*
X118794311Y-117352246D01*
X118795915Y-117351572D01*
X118804548Y-117347872D01*
X118814902Y-117344022D01*
X118895033Y-117318604D01*
X118906427Y-117315721D01*
X118915336Y-117313957D01*
X118917055Y-117313604D01*
X118926160Y-117311668D01*
X118937080Y-117309899D01*
X119020618Y-117300529D01*
X119030934Y-117299988D01*
X119031378Y-117299964D01*
X119045375Y-117299181D01*
X119048467Y-117299159D01*
X119049048Y-117299157D01*
X119049918Y-117299157D01*
X119050083Y-117299153D01*
X120149300Y-117299153D01*
X120159561Y-117299763D01*
X120159561Y-117299763D01*
G37*
G36*
X125315486Y-117308229D02*
X125327423Y-117309405D01*
X125357747Y-117318604D01*
X125449948Y-117346573D01*
X125562868Y-117406930D01*
X125661843Y-117488157D01*
X125743070Y-117587132D01*
X125803427Y-117700052D01*
X125805203Y-117705907D01*
X125840267Y-117821495D01*
X125840595Y-117822578D01*
X125853145Y-117950000D01*
X125840595Y-118077422D01*
X125803427Y-118199948D01*
X125743070Y-118312868D01*
X125661843Y-118411843D01*
X125562868Y-118493070D01*
X125449948Y-118553427D01*
X125388685Y-118572011D01*
X125327423Y-118590595D01*
X125315486Y-118591771D01*
X125231932Y-118600000D01*
X124068068Y-118600000D01*
X123984514Y-118591771D01*
X123972577Y-118590595D01*
X123911315Y-118572011D01*
X123850052Y-118553427D01*
X123737132Y-118493070D01*
X123638157Y-118411843D01*
X123556930Y-118312868D01*
X123496573Y-118199948D01*
X123459405Y-118077422D01*
X123446855Y-117950000D01*
X123459405Y-117822578D01*
X123459734Y-117821495D01*
X123494797Y-117705907D01*
X123496573Y-117700052D01*
X123556930Y-117587132D01*
X123638157Y-117488157D01*
X123737132Y-117406930D01*
X123850052Y-117346573D01*
X123942253Y-117318604D01*
X123972577Y-117309405D01*
X123984514Y-117308229D01*
X124068068Y-117300000D01*
X125231932Y-117300000D01*
X125315486Y-117308229D01*
X125315486Y-117308229D01*
G37*
G36*
X131039499Y-117478445D02*
X131076993Y-117489819D01*
X131111557Y-117508294D01*
X131141847Y-117533153D01*
X131166706Y-117563443D01*
X131185181Y-117598007D01*
X131196555Y-117635501D01*
X131201000Y-117680638D01*
X131201000Y-118319362D01*
X131196555Y-118364499D01*
X131185181Y-118401993D01*
X131166706Y-118436557D01*
X131141847Y-118466847D01*
X131111557Y-118491706D01*
X131076993Y-118510181D01*
X131039499Y-118521555D01*
X130994362Y-118526000D01*
X130255638Y-118526000D01*
X130210501Y-118521555D01*
X130173007Y-118510181D01*
X130138443Y-118491706D01*
X130108153Y-118466847D01*
X130083294Y-118436557D01*
X130064819Y-118401993D01*
X130053445Y-118364499D01*
X130049000Y-118319362D01*
X130049000Y-117680638D01*
X130053445Y-117635501D01*
X130064819Y-117598007D01*
X130083294Y-117563443D01*
X130108153Y-117533153D01*
X130138443Y-117508294D01*
X130173007Y-117489819D01*
X130210501Y-117478445D01*
X130255638Y-117474000D01*
X130994362Y-117474000D01*
X131039499Y-117478445D01*
X131039499Y-117478445D01*
G37*
G36*
X132789499Y-117478445D02*
X132826993Y-117489819D01*
X132861557Y-117508294D01*
X132891847Y-117533153D01*
X132916706Y-117563443D01*
X132935181Y-117598007D01*
X132946555Y-117635501D01*
X132951000Y-117680638D01*
X132951000Y-118319362D01*
X132946555Y-118364499D01*
X132935181Y-118401993D01*
X132916706Y-118436557D01*
X132891847Y-118466847D01*
X132861557Y-118491706D01*
X132826993Y-118510181D01*
X132789499Y-118521555D01*
X132744362Y-118526000D01*
X132005638Y-118526000D01*
X131960501Y-118521555D01*
X131923007Y-118510181D01*
X131888443Y-118491706D01*
X131858153Y-118466847D01*
X131833294Y-118436557D01*
X131814819Y-118401993D01*
X131803445Y-118364499D01*
X131799000Y-118319362D01*
X131799000Y-117680638D01*
X131803445Y-117635501D01*
X131814819Y-117598007D01*
X131833294Y-117563443D01*
X131858153Y-117533153D01*
X131888443Y-117508294D01*
X131923007Y-117489819D01*
X131960501Y-117478445D01*
X132005638Y-117474000D01*
X132744362Y-117474000D01*
X132789499Y-117478445D01*
X132789499Y-117478445D01*
G37*
G36*
X129241938Y-117631716D02*
X129262556Y-117637970D01*
X129281556Y-117648126D01*
X129298208Y-117661792D01*
X129311874Y-117678444D01*
X129322030Y-117697444D01*
X129328284Y-117718062D01*
X129331000Y-117745640D01*
X129331000Y-118254360D01*
X129328284Y-118281938D01*
X129322030Y-118302556D01*
X129311874Y-118321556D01*
X129298208Y-118338208D01*
X129281556Y-118351874D01*
X129262556Y-118362030D01*
X129241938Y-118368284D01*
X129214360Y-118371000D01*
X128755640Y-118371000D01*
X128728062Y-118368284D01*
X128707444Y-118362030D01*
X128688444Y-118351874D01*
X128671792Y-118338208D01*
X128658126Y-118321556D01*
X128647970Y-118302556D01*
X128641716Y-118281938D01*
X128639000Y-118254360D01*
X128639000Y-117745640D01*
X128641716Y-117718062D01*
X128647970Y-117697444D01*
X128658126Y-117678444D01*
X128671792Y-117661792D01*
X128688444Y-117648126D01*
X128707444Y-117637970D01*
X128728062Y-117631716D01*
X128755640Y-117629000D01*
X129214360Y-117629000D01*
X129241938Y-117631716D01*
X129241938Y-117631716D01*
G37*
G36*
X128271938Y-117631716D02*
X128292556Y-117637970D01*
X128311556Y-117648126D01*
X128328208Y-117661792D01*
X128341874Y-117678444D01*
X128352030Y-117697444D01*
X128358284Y-117718062D01*
X128361000Y-117745640D01*
X128361000Y-118254360D01*
X128358284Y-118281938D01*
X128352030Y-118302556D01*
X128341874Y-118321556D01*
X128328208Y-118338208D01*
X128311556Y-118351874D01*
X128292556Y-118362030D01*
X128271938Y-118368284D01*
X128244360Y-118371000D01*
X127785640Y-118371000D01*
X127758062Y-118368284D01*
X127737444Y-118362030D01*
X127718444Y-118351874D01*
X127701792Y-118338208D01*
X127688126Y-118321556D01*
X127677970Y-118302556D01*
X127671716Y-118281938D01*
X127669000Y-118254360D01*
X127669000Y-117745640D01*
X127671716Y-117718062D01*
X127677970Y-117697444D01*
X127688126Y-117678444D01*
X127701792Y-117661792D01*
X127718444Y-117648126D01*
X127737444Y-117637970D01*
X127758062Y-117631716D01*
X127785640Y-117629000D01*
X128244360Y-117629000D01*
X128271938Y-117631716D01*
X128271938Y-117631716D01*
G37*
M02*
