G04 #@! TF.GenerationSoftware,KiCad,Pcbnew,5.0.1*
G04 #@! TF.CreationDate,2019-03-26T00:16:52+01:00*
G04 #@! TF.ProjectId,darling,6461726C696E672E6B696361645F7063,rev?*
G04 #@! TF.SameCoordinates,Original*
G04 #@! TF.FileFunction,Copper,L2,Bot,Signal*
G04 #@! TF.FilePolarity,Positive*
%FSLAX46Y46*%
G04 Gerber Fmt 4.6, Leading zero omitted, Abs format (unit mm)*
G04 Created by KiCad (PCBNEW 5.0.1) date Tue 26 Mar 2019 12:16:52 AM CET*
%MOMM*%
%LPD*%
G01*
G04 APERTURE LIST*
G04 #@! TA.AperFunction,ComponentPad*
%ADD10C,0.600000*%
G04 #@! TD*
G04 #@! TA.AperFunction,ComponentPad*
%ADD11O,2.300000X1.200000*%
G04 #@! TD*
G04 #@! TA.AperFunction,ComponentPad*
%ADD12C,0.700000*%
G04 #@! TD*
G04 #@! TA.AperFunction,Conductor*
%ADD13C,0.100000*%
G04 #@! TD*
G04 #@! TA.AperFunction,ComponentPad*
%ADD14R,1.700000X1.700000*%
G04 #@! TD*
G04 #@! TA.AperFunction,ComponentPad*
%ADD15O,1.700000X1.700000*%
G04 #@! TD*
G04 #@! TA.AperFunction,ViaPad*
%ADD16C,0.800000*%
G04 #@! TD*
G04 #@! TA.AperFunction,Conductor*
%ADD17C,0.250000*%
G04 #@! TD*
G04 #@! TA.AperFunction,Conductor*
%ADD18C,0.254000*%
G04 #@! TD*
G04 APERTURE END LIST*
D10*
G04 #@! TO.P,J1,B9*
G04 #@! TO.N,VBUS*
X124200000Y-121500000D03*
G04 #@! TO.P,J1,B8*
G04 #@! TO.N,Net-(J1-PadB8)*
X124200000Y-122300000D03*
G04 #@! TO.P,J1,B7*
G04 #@! TO.N,Net-(C5-Pad1)*
X124200000Y-123100000D03*
G04 #@! TO.P,J1,B4*
G04 #@! TO.N,VBUS*
X124200000Y-125500000D03*
G04 #@! TO.P,J1,B5*
G04 #@! TO.N,Net-(J1-PadB5)*
X124200000Y-124700000D03*
G04 #@! TO.P,J1,B6*
G04 #@! TO.N,Net-(C6-Pad1)*
X124200000Y-123900000D03*
D11*
G04 #@! TO.P,J1,S1*
G04 #@! TO.N,GND*
X124650000Y-129050000D03*
X124650000Y-117950000D03*
D12*
X119600000Y-117950000D03*
D13*
G04 #@! TD*
G04 #@! TO.N,GND*
G04 #@! TO.C,J1*
G36*
X118450000Y-118700000D02*
X118450000Y-117950000D01*
X118450165Y-117950000D01*
X118450143Y-117946861D01*
X118451984Y-117902934D01*
X118451984Y-117902930D01*
X118452086Y-117900842D01*
X118452742Y-117894598D01*
X118453312Y-117888338D01*
X118459431Y-117844801D01*
X118459737Y-117842730D01*
X118460999Y-117836583D01*
X118462177Y-117830407D01*
X118472515Y-117787675D01*
X118473022Y-117785643D01*
X118474872Y-117779665D01*
X118476652Y-117773617D01*
X118491110Y-117732098D01*
X118491813Y-117730126D01*
X118494234Y-117724366D01*
X118496600Y-117718510D01*
X118515041Y-117678599D01*
X118515933Y-117676705D01*
X118518929Y-117671164D01*
X118521832Y-117665611D01*
X118544076Y-117627698D01*
X118544079Y-117627692D01*
X118544084Y-117627685D01*
X118545152Y-117625892D01*
X118548661Y-117620690D01*
X118552103Y-117615430D01*
X118577945Y-117579861D01*
X118579188Y-117578176D01*
X118583159Y-117573376D01*
X118587127Y-117568440D01*
X118616316Y-117535563D01*
X118617718Y-117534007D01*
X118622183Y-117529573D01*
X118626573Y-117525090D01*
X118658832Y-117495219D01*
X118660379Y-117493807D01*
X118665219Y-117489859D01*
X118670055Y-117485801D01*
X118705075Y-117459220D01*
X118706752Y-117457966D01*
X118711959Y-117454506D01*
X118717167Y-117450940D01*
X118754613Y-117427903D01*
X118756404Y-117426819D01*
X118761909Y-117423892D01*
X118767454Y-117420843D01*
X118806970Y-117401570D01*
X118808858Y-117400666D01*
X118814651Y-117398278D01*
X118820441Y-117395796D01*
X118861649Y-117380472D01*
X118863616Y-117379756D01*
X118869618Y-117377944D01*
X118875619Y-117376040D01*
X118918125Y-117364810D01*
X118920153Y-117364290D01*
X118926274Y-117363078D01*
X118932455Y-117361764D01*
X118975854Y-117354734D01*
X118977923Y-117354414D01*
X118984178Y-117353800D01*
X118990422Y-117353100D01*
X119034300Y-117350340D01*
X119036391Y-117350223D01*
X119039537Y-117350223D01*
X119042667Y-117350048D01*
X119048950Y-117350004D01*
X119049918Y-117350004D01*
X119050000Y-117350000D01*
X120150000Y-117350000D01*
X120152094Y-117350015D01*
X120154701Y-117350179D01*
X120157329Y-117350179D01*
X120201241Y-117352327D01*
X120203332Y-117352444D01*
X120209578Y-117353145D01*
X120215823Y-117353757D01*
X120259316Y-117360179D01*
X120259320Y-117360180D01*
X120259325Y-117360180D01*
X120261386Y-117360500D01*
X120267516Y-117361803D01*
X120273693Y-117363026D01*
X120316352Y-117373662D01*
X120318380Y-117374183D01*
X120324330Y-117376070D01*
X120330381Y-117377897D01*
X120371799Y-117392645D01*
X120373766Y-117393362D01*
X120379559Y-117395844D01*
X120385352Y-117398231D01*
X120425132Y-117416951D01*
X120427020Y-117417857D01*
X120432485Y-117420862D01*
X120438066Y-117423829D01*
X120475830Y-117446340D01*
X120477621Y-117447425D01*
X120482776Y-117450954D01*
X120488040Y-117454452D01*
X120523422Y-117480539D01*
X120523426Y-117480541D01*
X120523430Y-117480544D01*
X120525103Y-117481796D01*
X120529893Y-117485815D01*
X120534783Y-117489803D01*
X120567455Y-117519222D01*
X120569001Y-117520634D01*
X120573386Y-117525111D01*
X120577853Y-117529547D01*
X120607498Y-117562013D01*
X120608899Y-117563569D01*
X120612806Y-117568428D01*
X120616841Y-117573305D01*
X120643177Y-117608509D01*
X120644419Y-117610195D01*
X120647853Y-117615442D01*
X120651372Y-117620659D01*
X120674147Y-117658265D01*
X120675219Y-117660064D01*
X120678116Y-117665606D01*
X120681118Y-117671158D01*
X120700114Y-117710807D01*
X120701005Y-117712702D01*
X120703340Y-117718482D01*
X120705792Y-117724314D01*
X120720824Y-117765617D01*
X120720829Y-117765628D01*
X120720833Y-117765642D01*
X120721531Y-117767599D01*
X120723303Y-117773623D01*
X120725162Y-117779627D01*
X120736096Y-117822210D01*
X120736602Y-117824242D01*
X120737778Y-117830407D01*
X120739043Y-117836567D01*
X120745769Y-117880014D01*
X120746075Y-117882086D01*
X120746644Y-117888336D01*
X120747301Y-117894589D01*
X120749755Y-117938484D01*
X120749755Y-117938486D01*
X120749857Y-117940577D01*
X120749813Y-117946858D01*
X120749835Y-117950000D01*
X120750000Y-117950000D01*
X120750000Y-118700000D01*
X118450000Y-118700000D01*
X118450000Y-118700000D01*
G37*
D12*
G04 #@! TO.P,J1,S1*
G04 #@! TO.N,GND*
X119600000Y-129050000D03*
D13*
G04 #@! TD*
G04 #@! TO.N,GND*
G04 #@! TO.C,J1*
G36*
X120749835Y-129050000D02*
X120749857Y-129053139D01*
X120748016Y-129097066D01*
X120748016Y-129097070D01*
X120747914Y-129099158D01*
X120747257Y-129105405D01*
X120746688Y-129111662D01*
X120740569Y-129155199D01*
X120740263Y-129157271D01*
X120739000Y-129163425D01*
X120737823Y-129169593D01*
X120727485Y-129212326D01*
X120726978Y-129214357D01*
X120725125Y-129220343D01*
X120723348Y-129226383D01*
X120708890Y-129267901D01*
X120708187Y-129269874D01*
X120705761Y-129275646D01*
X120703400Y-129281491D01*
X120684961Y-129321394D01*
X120684958Y-129321402D01*
X120684953Y-129321411D01*
X120684066Y-129323296D01*
X120681091Y-129328798D01*
X120678168Y-129334389D01*
X120655920Y-129372309D01*
X120654848Y-129374108D01*
X120651330Y-129379324D01*
X120647897Y-129384570D01*
X120622055Y-129420139D01*
X120620813Y-129421824D01*
X120616822Y-129426648D01*
X120612873Y-129431560D01*
X120583683Y-129464437D01*
X120582282Y-129465993D01*
X120577802Y-129470443D01*
X120573427Y-129474910D01*
X120541168Y-129504781D01*
X120539621Y-129506193D01*
X120534766Y-129510153D01*
X120529944Y-129514199D01*
X120494925Y-129540781D01*
X120493248Y-129542035D01*
X120488040Y-129545495D01*
X120482833Y-129549060D01*
X120445387Y-129572097D01*
X120443596Y-129573181D01*
X120438074Y-129576118D01*
X120432545Y-129579157D01*
X120393030Y-129598430D01*
X120391141Y-129599334D01*
X120385352Y-129601720D01*
X120379559Y-129604203D01*
X120338352Y-129619528D01*
X120336384Y-129620244D01*
X120330394Y-129622053D01*
X120324381Y-129623960D01*
X120281875Y-129635190D01*
X120279847Y-129635710D01*
X120273719Y-129636924D01*
X120267545Y-129638236D01*
X120224146Y-129645266D01*
X120222076Y-129645586D01*
X120215838Y-129646198D01*
X120209578Y-129646900D01*
X120165699Y-129649660D01*
X120163609Y-129649777D01*
X120160463Y-129649777D01*
X120157333Y-129649952D01*
X120151051Y-129649996D01*
X120150082Y-129649996D01*
X120150000Y-129650000D01*
X119050000Y-129650000D01*
X119047906Y-129649985D01*
X119045299Y-129649821D01*
X119042672Y-129649821D01*
X118998759Y-129647673D01*
X118996669Y-129647556D01*
X118990430Y-129646856D01*
X118984178Y-129646243D01*
X118940684Y-129639821D01*
X118938615Y-129639500D01*
X118932493Y-129638199D01*
X118926307Y-129636974D01*
X118883648Y-129626338D01*
X118881620Y-129625817D01*
X118875670Y-129623930D01*
X118869619Y-129622103D01*
X118828201Y-129607355D01*
X118826233Y-129606638D01*
X118820504Y-129604183D01*
X118814649Y-129601769D01*
X118774868Y-129583049D01*
X118772980Y-129582144D01*
X118767500Y-129579131D01*
X118761933Y-129576171D01*
X118724170Y-129553660D01*
X118722379Y-129552575D01*
X118717224Y-129549046D01*
X118711960Y-129545548D01*
X118676578Y-129519461D01*
X118676575Y-129519460D01*
X118676573Y-129519458D01*
X118674897Y-129518204D01*
X118670087Y-129514168D01*
X118665218Y-129510197D01*
X118632545Y-129480779D01*
X118630999Y-129479366D01*
X118626630Y-129474904D01*
X118622147Y-129470453D01*
X118592501Y-129437987D01*
X118591101Y-129436431D01*
X118587194Y-129431572D01*
X118583159Y-129426695D01*
X118556823Y-129391491D01*
X118555581Y-129389805D01*
X118552155Y-129384570D01*
X118548628Y-129379341D01*
X118525853Y-129341735D01*
X118524781Y-129339936D01*
X118521884Y-129334394D01*
X118518882Y-129328842D01*
X118499886Y-129289193D01*
X118498995Y-129287298D01*
X118496654Y-129281503D01*
X118494208Y-129275685D01*
X118479171Y-129234373D01*
X118478469Y-129232400D01*
X118476694Y-129226369D01*
X118474838Y-129220373D01*
X118463904Y-129177789D01*
X118463398Y-129175757D01*
X118462224Y-129169607D01*
X118460957Y-129163433D01*
X118454231Y-129119986D01*
X118453925Y-129117914D01*
X118453356Y-129111662D01*
X118452699Y-129105411D01*
X118450245Y-129061517D01*
X118450245Y-129061515D01*
X118450143Y-129059423D01*
X118450187Y-129053142D01*
X118450165Y-129050000D01*
X118450000Y-129050000D01*
X118450000Y-128300000D01*
X120750000Y-128300000D01*
X120750000Y-129050000D01*
X120749835Y-129050000D01*
X120749835Y-129050000D01*
G37*
D14*
G04 #@! TO.P,J2,1*
G04 #@! TO.N,VCC*
X139000000Y-118500000D03*
D15*
G04 #@! TO.P,J2,2*
G04 #@! TO.N,3V3*
X139000000Y-121040000D03*
G04 #@! TO.P,J2,3*
G04 #@! TO.N,RX*
X139000000Y-123580000D03*
G04 #@! TO.P,J2,4*
G04 #@! TO.N,TX*
X139000000Y-126120000D03*
G04 #@! TO.P,J2,5*
G04 #@! TO.N,GND*
X139000000Y-128660000D03*
G04 #@! TD*
D16*
G04 #@! TO.N,VBUS*
X127005153Y-119994847D03*
X127000000Y-125000000D03*
G04 #@! TO.N,VCC*
X134000000Y-129000000D03*
G04 #@! TO.N,3V3*
X136000000Y-123500000D03*
X131000000Y-127500000D03*
X134000000Y-118000000D03*
G04 #@! TO.N,Net-(C5-Pad1)*
X127000000Y-123000000D03*
G04 #@! TO.N,Net-(C6-Pad1)*
X127000000Y-124000000D03*
G04 #@! TO.N,Net-(R1-Pad1)*
X131000000Y-123000000D03*
X129979847Y-125020153D03*
G04 #@! TO.N,/TXLED*
X132000000Y-123500000D03*
X127000000Y-118000000D03*
G04 #@! TD*
D17*
G04 #@! TO.N,VBUS*
X127000000Y-125000000D02*
X126500000Y-125500000D01*
X125705153Y-119994847D02*
X124500000Y-121200000D01*
X127005153Y-119994847D02*
X125705153Y-119994847D01*
X124500000Y-121200000D02*
X124200000Y-121500000D01*
X126500000Y-125500000D02*
X124200000Y-125500000D01*
G04 #@! TO.N,VCC*
X134399999Y-128600001D02*
X134000000Y-129000000D01*
X135515001Y-127484999D02*
X134399999Y-128600001D01*
X140175001Y-126684001D02*
X139374003Y-127484999D01*
X140175001Y-118575001D02*
X140175001Y-126684001D01*
X140100000Y-118500000D02*
X140175001Y-118575001D01*
X139374003Y-127484999D02*
X135515001Y-127484999D01*
X139000000Y-118500000D02*
X140100000Y-118500000D01*
G04 #@! TO.N,3V3*
X136000000Y-123500000D02*
X135000000Y-123500000D01*
X135000000Y-123500000D02*
X131000000Y-127500000D01*
X138460000Y-121040000D02*
X139000000Y-121040000D01*
X136000000Y-123500000D02*
X138460000Y-121040000D01*
X136000000Y-123500000D02*
X136000000Y-120000000D01*
X136000000Y-120000000D02*
X134000000Y-118000000D01*
G04 #@! TO.N,Net-(C5-Pad1)*
X124300000Y-123000000D02*
X124200000Y-123100000D01*
X127000000Y-123000000D02*
X124300000Y-123000000D01*
G04 #@! TO.N,Net-(C6-Pad1)*
X124300000Y-124000000D02*
X124200000Y-123900000D01*
X127000000Y-124000000D02*
X124300000Y-124000000D01*
G04 #@! TO.N,Net-(R1-Pad1)*
X131000000Y-123000000D02*
X131000000Y-124000000D01*
X131000000Y-124000000D02*
X129979847Y-125020153D01*
G04 #@! TO.N,/TXLED*
X127065685Y-118000000D02*
X127000000Y-118000000D01*
X132000000Y-123500000D02*
X132000000Y-122934315D01*
X132000000Y-122934315D02*
X127065685Y-118000000D01*
G04 #@! TD*
D18*
G04 #@! TO.N,GND*
G36*
X137558524Y-128303110D02*
X137679845Y-128533000D01*
X138873000Y-128533000D01*
X138873000Y-128513000D01*
X139127000Y-128513000D01*
X139127000Y-128533000D01*
X139147000Y-128533000D01*
X139147000Y-128787000D01*
X139127000Y-128787000D01*
X139127000Y-128807000D01*
X138873000Y-128807000D01*
X138873000Y-128787000D01*
X137679845Y-128787000D01*
X137558524Y-129016890D01*
X137728355Y-129426924D01*
X138059239Y-129790000D01*
X134673711Y-129790000D01*
X134877431Y-129586280D01*
X135035000Y-129205874D01*
X135035000Y-129039801D01*
X135829803Y-128244999D01*
X137582593Y-128244999D01*
X137558524Y-128303110D01*
X137558524Y-128303110D01*
G37*
X137558524Y-128303110D02*
X137679845Y-128533000D01*
X138873000Y-128533000D01*
X138873000Y-128513000D01*
X139127000Y-128513000D01*
X139127000Y-128533000D01*
X139147000Y-128533000D01*
X139147000Y-128787000D01*
X139127000Y-128787000D01*
X139127000Y-128807000D01*
X138873000Y-128807000D01*
X138873000Y-128787000D01*
X137679845Y-128787000D01*
X137558524Y-129016890D01*
X137728355Y-129426924D01*
X138059239Y-129790000D01*
X134673711Y-129790000D01*
X134877431Y-129586280D01*
X135035000Y-129205874D01*
X135035000Y-129039801D01*
X135829803Y-128244999D01*
X137582593Y-128244999D01*
X137558524Y-128303110D01*
G36*
X133122569Y-117413720D02*
X132965000Y-117794126D01*
X132965000Y-118205874D01*
X133122569Y-118586280D01*
X133413720Y-118877431D01*
X133794126Y-119035000D01*
X133960199Y-119035000D01*
X135240001Y-120314803D01*
X135240000Y-122740000D01*
X135074846Y-122740000D01*
X134999999Y-122725112D01*
X134925152Y-122740000D01*
X134925148Y-122740000D01*
X134703463Y-122784096D01*
X134452071Y-122952071D01*
X134409671Y-123015527D01*
X130960199Y-126465000D01*
X130794126Y-126465000D01*
X130413720Y-126622569D01*
X130122569Y-126913720D01*
X129965000Y-127294126D01*
X129965000Y-127705874D01*
X130122569Y-128086280D01*
X130413720Y-128377431D01*
X130794126Y-128535000D01*
X131205874Y-128535000D01*
X131586280Y-128377431D01*
X131877431Y-128086280D01*
X132035000Y-127705874D01*
X132035000Y-127539801D01*
X135305545Y-124269256D01*
X135413720Y-124377431D01*
X135794126Y-124535000D01*
X136205874Y-124535000D01*
X136586280Y-124377431D01*
X136877431Y-124086280D01*
X137035000Y-123705874D01*
X137035000Y-123539801D01*
X137655411Y-122919390D01*
X137601161Y-123000582D01*
X137485908Y-123580000D01*
X137601161Y-124159418D01*
X137929375Y-124650625D01*
X138227761Y-124850000D01*
X137929375Y-125049375D01*
X137601161Y-125540582D01*
X137485908Y-126120000D01*
X137601161Y-126699418D01*
X137618254Y-126724999D01*
X135589848Y-126724999D01*
X135515001Y-126710111D01*
X135440154Y-126724999D01*
X135440149Y-126724999D01*
X135218464Y-126769095D01*
X134967072Y-126937070D01*
X134924672Y-127000526D01*
X133960199Y-127965000D01*
X133794126Y-127965000D01*
X133413720Y-128122569D01*
X133122569Y-128413720D01*
X132965000Y-128794126D01*
X132965000Y-129205874D01*
X133122569Y-129586280D01*
X133326289Y-129790000D01*
X126186078Y-129790000D01*
X126389592Y-129405281D01*
X126393462Y-129367609D01*
X126268731Y-129177000D01*
X124777000Y-129177000D01*
X124777000Y-129197000D01*
X124523000Y-129197000D01*
X124523000Y-129177000D01*
X123031269Y-129177000D01*
X122906538Y-129367609D01*
X122910408Y-129405281D01*
X123113922Y-129790000D01*
X121152439Y-129790000D01*
X121185212Y-129744890D01*
X121190190Y-129737282D01*
X121195239Y-129729797D01*
X121230163Y-129671670D01*
X121231146Y-129669821D01*
X121233236Y-129665857D01*
X121273925Y-129588027D01*
X121300453Y-129530618D01*
X121303858Y-129522192D01*
X121307376Y-129513822D01*
X121324780Y-129465482D01*
X121325344Y-129465670D01*
X121325346Y-129465664D01*
X121326750Y-129460011D01*
X121330326Y-129450079D01*
X121330929Y-129448082D01*
X121329798Y-129447740D01*
X121330894Y-129443326D01*
X121332229Y-129443719D01*
X121357024Y-129359473D01*
X121371904Y-129297962D01*
X121373608Y-129289024D01*
X121375422Y-129280190D01*
X121385537Y-129213383D01*
X121385742Y-129211299D01*
X121386187Y-129206597D01*
X121394147Y-129119133D01*
X121396796Y-129055932D01*
X121396778Y-129053329D01*
X121397440Y-129050000D01*
X121397440Y-128880000D01*
X123003131Y-128880000D01*
X123031269Y-128923000D01*
X124523000Y-128923000D01*
X124523000Y-127815000D01*
X124777000Y-127815000D01*
X124777000Y-128923000D01*
X126268731Y-128923000D01*
X126393462Y-128732391D01*
X126389592Y-128694719D01*
X126163080Y-128266526D01*
X125789947Y-127957610D01*
X125327000Y-127815000D01*
X124777000Y-127815000D01*
X124523000Y-127815000D01*
X124360000Y-127815000D01*
X124360000Y-126435000D01*
X124385983Y-126435000D01*
X124729635Y-126292655D01*
X124762290Y-126260000D01*
X126425153Y-126260000D01*
X126500000Y-126274888D01*
X126574847Y-126260000D01*
X126574852Y-126260000D01*
X126796537Y-126215904D01*
X127047929Y-126047929D01*
X127056568Y-126035000D01*
X127205874Y-126035000D01*
X127586280Y-125877431D01*
X127877431Y-125586280D01*
X128035000Y-125205874D01*
X128035000Y-124794126D01*
X127913169Y-124500000D01*
X128035000Y-124205874D01*
X128035000Y-123794126D01*
X127913169Y-123500000D01*
X128035000Y-123205874D01*
X128035000Y-122794126D01*
X127877431Y-122413720D01*
X127586280Y-122122569D01*
X127205874Y-121965000D01*
X126794126Y-121965000D01*
X126413720Y-122122569D01*
X126296289Y-122240000D01*
X125135000Y-122240000D01*
X125135000Y-122114017D01*
X125046351Y-121900000D01*
X125135000Y-121685983D01*
X125135000Y-121639801D01*
X126019955Y-120754847D01*
X126301442Y-120754847D01*
X126418873Y-120872278D01*
X126799279Y-121029847D01*
X127211027Y-121029847D01*
X127591433Y-120872278D01*
X127882584Y-120581127D01*
X128040153Y-120200721D01*
X128040153Y-120049269D01*
X130263586Y-122272703D01*
X130122569Y-122413720D01*
X129965000Y-122794126D01*
X129965000Y-123205874D01*
X130122569Y-123586280D01*
X130230744Y-123694455D01*
X129940046Y-123985153D01*
X129773973Y-123985153D01*
X129393567Y-124142722D01*
X129102416Y-124433873D01*
X128944847Y-124814279D01*
X128944847Y-125226027D01*
X129102416Y-125606433D01*
X129393567Y-125897584D01*
X129773973Y-126055153D01*
X130185721Y-126055153D01*
X130566127Y-125897584D01*
X130857278Y-125606433D01*
X131014847Y-125226027D01*
X131014847Y-125059954D01*
X131484473Y-124590329D01*
X131547929Y-124547929D01*
X131608064Y-124457931D01*
X131794126Y-124535000D01*
X132205874Y-124535000D01*
X132586280Y-124377431D01*
X132877431Y-124086280D01*
X133035000Y-123705874D01*
X133035000Y-123294126D01*
X132877431Y-122913720D01*
X132744314Y-122780603D01*
X132715904Y-122637778D01*
X132547929Y-122386386D01*
X132484473Y-122343986D01*
X128035000Y-117894514D01*
X128035000Y-117794126D01*
X127877431Y-117413720D01*
X127673711Y-117210000D01*
X133326289Y-117210000D01*
X133122569Y-117413720D01*
X133122569Y-117413720D01*
G37*
X133122569Y-117413720D02*
X132965000Y-117794126D01*
X132965000Y-118205874D01*
X133122569Y-118586280D01*
X133413720Y-118877431D01*
X133794126Y-119035000D01*
X133960199Y-119035000D01*
X135240001Y-120314803D01*
X135240000Y-122740000D01*
X135074846Y-122740000D01*
X134999999Y-122725112D01*
X134925152Y-122740000D01*
X134925148Y-122740000D01*
X134703463Y-122784096D01*
X134452071Y-122952071D01*
X134409671Y-123015527D01*
X130960199Y-126465000D01*
X130794126Y-126465000D01*
X130413720Y-126622569D01*
X130122569Y-126913720D01*
X129965000Y-127294126D01*
X129965000Y-127705874D01*
X130122569Y-128086280D01*
X130413720Y-128377431D01*
X130794126Y-128535000D01*
X131205874Y-128535000D01*
X131586280Y-128377431D01*
X131877431Y-128086280D01*
X132035000Y-127705874D01*
X132035000Y-127539801D01*
X135305545Y-124269256D01*
X135413720Y-124377431D01*
X135794126Y-124535000D01*
X136205874Y-124535000D01*
X136586280Y-124377431D01*
X136877431Y-124086280D01*
X137035000Y-123705874D01*
X137035000Y-123539801D01*
X137655411Y-122919390D01*
X137601161Y-123000582D01*
X137485908Y-123580000D01*
X137601161Y-124159418D01*
X137929375Y-124650625D01*
X138227761Y-124850000D01*
X137929375Y-125049375D01*
X137601161Y-125540582D01*
X137485908Y-126120000D01*
X137601161Y-126699418D01*
X137618254Y-126724999D01*
X135589848Y-126724999D01*
X135515001Y-126710111D01*
X135440154Y-126724999D01*
X135440149Y-126724999D01*
X135218464Y-126769095D01*
X134967072Y-126937070D01*
X134924672Y-127000526D01*
X133960199Y-127965000D01*
X133794126Y-127965000D01*
X133413720Y-128122569D01*
X133122569Y-128413720D01*
X132965000Y-128794126D01*
X132965000Y-129205874D01*
X133122569Y-129586280D01*
X133326289Y-129790000D01*
X126186078Y-129790000D01*
X126389592Y-129405281D01*
X126393462Y-129367609D01*
X126268731Y-129177000D01*
X124777000Y-129177000D01*
X124777000Y-129197000D01*
X124523000Y-129197000D01*
X124523000Y-129177000D01*
X123031269Y-129177000D01*
X122906538Y-129367609D01*
X122910408Y-129405281D01*
X123113922Y-129790000D01*
X121152439Y-129790000D01*
X121185212Y-129744890D01*
X121190190Y-129737282D01*
X121195239Y-129729797D01*
X121230163Y-129671670D01*
X121231146Y-129669821D01*
X121233236Y-129665857D01*
X121273925Y-129588027D01*
X121300453Y-129530618D01*
X121303858Y-129522192D01*
X121307376Y-129513822D01*
X121324780Y-129465482D01*
X121325344Y-129465670D01*
X121325346Y-129465664D01*
X121326750Y-129460011D01*
X121330326Y-129450079D01*
X121330929Y-129448082D01*
X121329798Y-129447740D01*
X121330894Y-129443326D01*
X121332229Y-129443719D01*
X121357024Y-129359473D01*
X121371904Y-129297962D01*
X121373608Y-129289024D01*
X121375422Y-129280190D01*
X121385537Y-129213383D01*
X121385742Y-129211299D01*
X121386187Y-129206597D01*
X121394147Y-129119133D01*
X121396796Y-129055932D01*
X121396778Y-129053329D01*
X121397440Y-129050000D01*
X121397440Y-128880000D01*
X123003131Y-128880000D01*
X123031269Y-128923000D01*
X124523000Y-128923000D01*
X124523000Y-127815000D01*
X124777000Y-127815000D01*
X124777000Y-128923000D01*
X126268731Y-128923000D01*
X126393462Y-128732391D01*
X126389592Y-128694719D01*
X126163080Y-128266526D01*
X125789947Y-127957610D01*
X125327000Y-127815000D01*
X124777000Y-127815000D01*
X124523000Y-127815000D01*
X124360000Y-127815000D01*
X124360000Y-126435000D01*
X124385983Y-126435000D01*
X124729635Y-126292655D01*
X124762290Y-126260000D01*
X126425153Y-126260000D01*
X126500000Y-126274888D01*
X126574847Y-126260000D01*
X126574852Y-126260000D01*
X126796537Y-126215904D01*
X127047929Y-126047929D01*
X127056568Y-126035000D01*
X127205874Y-126035000D01*
X127586280Y-125877431D01*
X127877431Y-125586280D01*
X128035000Y-125205874D01*
X128035000Y-124794126D01*
X127913169Y-124500000D01*
X128035000Y-124205874D01*
X128035000Y-123794126D01*
X127913169Y-123500000D01*
X128035000Y-123205874D01*
X128035000Y-122794126D01*
X127877431Y-122413720D01*
X127586280Y-122122569D01*
X127205874Y-121965000D01*
X126794126Y-121965000D01*
X126413720Y-122122569D01*
X126296289Y-122240000D01*
X125135000Y-122240000D01*
X125135000Y-122114017D01*
X125046351Y-121900000D01*
X125135000Y-121685983D01*
X125135000Y-121639801D01*
X126019955Y-120754847D01*
X126301442Y-120754847D01*
X126418873Y-120872278D01*
X126799279Y-121029847D01*
X127211027Y-121029847D01*
X127591433Y-120872278D01*
X127882584Y-120581127D01*
X128040153Y-120200721D01*
X128040153Y-120049269D01*
X130263586Y-122272703D01*
X130122569Y-122413720D01*
X129965000Y-122794126D01*
X129965000Y-123205874D01*
X130122569Y-123586280D01*
X130230744Y-123694455D01*
X129940046Y-123985153D01*
X129773973Y-123985153D01*
X129393567Y-124142722D01*
X129102416Y-124433873D01*
X128944847Y-124814279D01*
X128944847Y-125226027D01*
X129102416Y-125606433D01*
X129393567Y-125897584D01*
X129773973Y-126055153D01*
X130185721Y-126055153D01*
X130566127Y-125897584D01*
X130857278Y-125606433D01*
X131014847Y-125226027D01*
X131014847Y-125059954D01*
X131484473Y-124590329D01*
X131547929Y-124547929D01*
X131608064Y-124457931D01*
X131794126Y-124535000D01*
X132205874Y-124535000D01*
X132586280Y-124377431D01*
X132877431Y-124086280D01*
X133035000Y-123705874D01*
X133035000Y-123294126D01*
X132877431Y-122913720D01*
X132744314Y-122780603D01*
X132715904Y-122637778D01*
X132547929Y-122386386D01*
X132484473Y-122343986D01*
X128035000Y-117894514D01*
X128035000Y-117794126D01*
X127877431Y-117413720D01*
X127673711Y-117210000D01*
X133326289Y-117210000D01*
X133122569Y-117413720D01*
G36*
X122910408Y-117594719D02*
X122906538Y-117632391D01*
X123031269Y-117823000D01*
X124523000Y-117823000D01*
X124523000Y-117803000D01*
X124777000Y-117803000D01*
X124777000Y-117823000D01*
X124797000Y-117823000D01*
X124797000Y-118077000D01*
X124777000Y-118077000D01*
X124777000Y-119185000D01*
X125327000Y-119185000D01*
X125789947Y-119042390D01*
X126163080Y-118733474D01*
X126199990Y-118663701D01*
X126413720Y-118877431D01*
X126705985Y-118998491D01*
X126418873Y-119117416D01*
X126301442Y-119234847D01*
X125780001Y-119234847D01*
X125705153Y-119219959D01*
X125630305Y-119234847D01*
X125630301Y-119234847D01*
X125461051Y-119268513D01*
X125408615Y-119278943D01*
X125221571Y-119403923D01*
X125157224Y-119446918D01*
X125114824Y-119510374D01*
X124360000Y-120265199D01*
X124360000Y-119185000D01*
X124523000Y-119185000D01*
X124523000Y-118077000D01*
X123031269Y-118077000D01*
X123003131Y-118120000D01*
X121397440Y-118120000D01*
X121397440Y-117950000D01*
X121396735Y-117946454D01*
X121396795Y-117937752D01*
X121393731Y-117870187D01*
X121393527Y-117868103D01*
X121393060Y-117863504D01*
X121383880Y-117776161D01*
X121374206Y-117713663D01*
X121372366Y-117704699D01*
X121370671Y-117695815D01*
X121354627Y-117630413D01*
X121354023Y-117628408D01*
X121352583Y-117623694D01*
X121326611Y-117539797D01*
X121304981Y-117480369D01*
X121301447Y-117471961D01*
X121298062Y-117463584D01*
X121269441Y-117402202D01*
X121268458Y-117400353D01*
X121266309Y-117396344D01*
X121224538Y-117319088D01*
X121191763Y-117264971D01*
X121186697Y-117257461D01*
X121181716Y-117249849D01*
X121152558Y-117210000D01*
X123113922Y-117210000D01*
X122910408Y-117594719D01*
X122910408Y-117594719D01*
G37*
X122910408Y-117594719D02*
X122906538Y-117632391D01*
X123031269Y-117823000D01*
X124523000Y-117823000D01*
X124523000Y-117803000D01*
X124777000Y-117803000D01*
X124777000Y-117823000D01*
X124797000Y-117823000D01*
X124797000Y-118077000D01*
X124777000Y-118077000D01*
X124777000Y-119185000D01*
X125327000Y-119185000D01*
X125789947Y-119042390D01*
X126163080Y-118733474D01*
X126199990Y-118663701D01*
X126413720Y-118877431D01*
X126705985Y-118998491D01*
X126418873Y-119117416D01*
X126301442Y-119234847D01*
X125780001Y-119234847D01*
X125705153Y-119219959D01*
X125630305Y-119234847D01*
X125630301Y-119234847D01*
X125461051Y-119268513D01*
X125408615Y-119278943D01*
X125221571Y-119403923D01*
X125157224Y-119446918D01*
X125114824Y-119510374D01*
X124360000Y-120265199D01*
X124360000Y-119185000D01*
X124523000Y-119185000D01*
X124523000Y-118077000D01*
X123031269Y-118077000D01*
X123003131Y-118120000D01*
X121397440Y-118120000D01*
X121397440Y-117950000D01*
X121396735Y-117946454D01*
X121396795Y-117937752D01*
X121393731Y-117870187D01*
X121393527Y-117868103D01*
X121393060Y-117863504D01*
X121383880Y-117776161D01*
X121374206Y-117713663D01*
X121372366Y-117704699D01*
X121370671Y-117695815D01*
X121354627Y-117630413D01*
X121354023Y-117628408D01*
X121352583Y-117623694D01*
X121326611Y-117539797D01*
X121304981Y-117480369D01*
X121301447Y-117471961D01*
X121298062Y-117463584D01*
X121269441Y-117402202D01*
X121268458Y-117400353D01*
X121266309Y-117396344D01*
X121224538Y-117319088D01*
X121191763Y-117264971D01*
X121186697Y-117257461D01*
X121181716Y-117249849D01*
X121152558Y-117210000D01*
X123113922Y-117210000D01*
X122910408Y-117594719D01*
G04 #@! TD*
M02*
