G04 #@! TF.GenerationSoftware,KiCad,Pcbnew,5.0.1*
G04 #@! TF.CreationDate,2019-03-26T00:16:52+01:00*
G04 #@! TF.ProjectId,darling,6461726C696E672E6B696361645F7063,rev?*
G04 #@! TF.SameCoordinates,Original*
G04 #@! TF.FileFunction,Legend,Top*
G04 #@! TF.FilePolarity,Positive*
%FSLAX46Y46*%
G04 Gerber Fmt 4.6, Leading zero omitted, Abs format (unit mm)*
G04 Created by KiCad (PCBNEW 5.0.1) date Tue 26 Mar 2019 12:16:52 AM CET*
%MOMM*%
%LPD*%
G01*
G04 APERTURE LIST*
%ADD10C,0.200000*%
%ADD11C,0.120000*%
%ADD12C,0.150000*%
G04 APERTURE END LIST*
D10*
X137438095Y-117433333D02*
X136638095Y-117700000D01*
X137438095Y-117966666D01*
X136714285Y-118690476D02*
X136676190Y-118652380D01*
X136638095Y-118538095D01*
X136638095Y-118461904D01*
X136676190Y-118347619D01*
X136752380Y-118271428D01*
X136828571Y-118233333D01*
X136980952Y-118195238D01*
X137095238Y-118195238D01*
X137247619Y-118233333D01*
X137323809Y-118271428D01*
X137400000Y-118347619D01*
X137438095Y-118461904D01*
X137438095Y-118538095D01*
X137400000Y-118652380D01*
X137361904Y-118690476D01*
X136714285Y-119490476D02*
X136676190Y-119452380D01*
X136638095Y-119338095D01*
X136638095Y-119261904D01*
X136676190Y-119147619D01*
X136752380Y-119071428D01*
X136828571Y-119033333D01*
X136980952Y-118995238D01*
X137095238Y-118995238D01*
X137247619Y-119033333D01*
X137323809Y-119071428D01*
X137400000Y-119147619D01*
X137438095Y-119261904D01*
X137438095Y-119338095D01*
X137400000Y-119452380D01*
X137361904Y-119490476D01*
X137438095Y-120009523D02*
X137438095Y-120504761D01*
X137133333Y-120238095D01*
X137133333Y-120352380D01*
X137095238Y-120428571D01*
X137057142Y-120466666D01*
X136980952Y-120504761D01*
X136790476Y-120504761D01*
X136714285Y-120466666D01*
X136676190Y-120428571D01*
X136638095Y-120352380D01*
X136638095Y-120123809D01*
X136676190Y-120047619D01*
X136714285Y-120009523D01*
X137438095Y-120733333D02*
X136638095Y-121000000D01*
X137438095Y-121266666D01*
X137438095Y-121457142D02*
X137438095Y-121952380D01*
X137133333Y-121685714D01*
X137133333Y-121800000D01*
X137095238Y-121876190D01*
X137057142Y-121914285D01*
X136980952Y-121952380D01*
X136790476Y-121952380D01*
X136714285Y-121914285D01*
X136676190Y-121876190D01*
X136638095Y-121800000D01*
X136638095Y-121571428D01*
X136676190Y-121495238D01*
X136714285Y-121457142D01*
X136638095Y-123366666D02*
X137019047Y-123100000D01*
X136638095Y-122909523D02*
X137438095Y-122909523D01*
X137438095Y-123214285D01*
X137400000Y-123290476D01*
X137361904Y-123328571D01*
X137285714Y-123366666D01*
X137171428Y-123366666D01*
X137095238Y-123328571D01*
X137057142Y-123290476D01*
X137019047Y-123214285D01*
X137019047Y-122909523D01*
X137438095Y-123633333D02*
X136638095Y-124166666D01*
X137438095Y-124166666D02*
X136638095Y-123633333D01*
X137438095Y-125390476D02*
X137438095Y-125847619D01*
X136638095Y-125619047D02*
X137438095Y-125619047D01*
X137438095Y-126038095D02*
X136638095Y-126571428D01*
X137438095Y-126571428D02*
X136638095Y-126038095D01*
X137400000Y-128140476D02*
X137438095Y-128064285D01*
X137438095Y-127950000D01*
X137400000Y-127835714D01*
X137323809Y-127759523D01*
X137247619Y-127721428D01*
X137095238Y-127683333D01*
X136980952Y-127683333D01*
X136828571Y-127721428D01*
X136752380Y-127759523D01*
X136676190Y-127835714D01*
X136638095Y-127950000D01*
X136638095Y-128026190D01*
X136676190Y-128140476D01*
X136714285Y-128178571D01*
X136980952Y-128178571D01*
X136980952Y-128026190D01*
X136638095Y-128521428D02*
X137438095Y-128521428D01*
X136638095Y-128978571D01*
X137438095Y-128978571D01*
X136638095Y-129359523D02*
X137438095Y-129359523D01*
X137438095Y-129550000D01*
X137400000Y-129664285D01*
X137323809Y-129740476D01*
X137247619Y-129778571D01*
X137095238Y-129816666D01*
X136980952Y-129816666D01*
X136828571Y-129778571D01*
X136752380Y-129740476D01*
X136676190Y-129664285D01*
X136638095Y-129550000D01*
X136638095Y-129359523D01*
D11*
G04 #@! TO.C,D1*
X132300000Y-128265000D02*
X129840000Y-128265000D01*
X129840000Y-128265000D02*
X129840000Y-129735000D01*
X129840000Y-129735000D02*
X132300000Y-129735000D01*
G04 #@! TO.C,D2*
X129840000Y-118735000D02*
X132300000Y-118735000D01*
X129840000Y-117265000D02*
X129840000Y-118735000D01*
X132300000Y-117265000D02*
X129840000Y-117265000D01*
G04 #@! TO.C,FB1*
X129761252Y-121210000D02*
X129238748Y-121210000D01*
X129761252Y-119790000D02*
X129238748Y-119790000D01*
D12*
G04 #@! TO.C,J1*
X117000000Y-128170000D02*
X117000000Y-129670000D01*
X117000000Y-118830000D02*
X117000000Y-117330000D01*
D11*
G04 #@! TO.C,J2*
X137670000Y-129990000D02*
X140330000Y-129990000D01*
X137670000Y-119770000D02*
X137670000Y-129990000D01*
X140330000Y-119770000D02*
X140330000Y-129990000D01*
X137670000Y-119770000D02*
X140330000Y-119770000D01*
X137670000Y-118500000D02*
X137670000Y-117170000D01*
X137670000Y-117170000D02*
X139000000Y-117170000D01*
G04 #@! TO.C,U1*
X136060000Y-127560000D02*
X135410000Y-127560000D01*
X131940000Y-123440000D02*
X132590000Y-123440000D01*
X131940000Y-127560000D02*
X132590000Y-127560000D01*
X131940000Y-123440000D02*
X131940000Y-124090000D01*
X131940000Y-127560000D02*
X131940000Y-126910000D01*
X136060000Y-127560000D02*
X136060000Y-126910000D01*
X136060000Y-123440000D02*
X136060000Y-124090000D01*
G04 #@! TO.C,C1*
D12*
X126333333Y-127357142D02*
X126285714Y-127404761D01*
X126142857Y-127452380D01*
X126047619Y-127452380D01*
X125904761Y-127404761D01*
X125809523Y-127309523D01*
X125761904Y-127214285D01*
X125714285Y-127023809D01*
X125714285Y-126880952D01*
X125761904Y-126690476D01*
X125809523Y-126595238D01*
X125904761Y-126500000D01*
X126047619Y-126452380D01*
X126142857Y-126452380D01*
X126285714Y-126500000D01*
X126333333Y-126547619D01*
X127285714Y-127452380D02*
X126714285Y-127452380D01*
X127000000Y-127452380D02*
X127000000Y-126452380D01*
X126904761Y-126595238D01*
X126809523Y-126690476D01*
X126714285Y-126738095D01*
G04 #@! TO.C,C2*
X134333333Y-121857142D02*
X134285714Y-121904761D01*
X134142857Y-121952380D01*
X134047619Y-121952380D01*
X133904761Y-121904761D01*
X133809523Y-121809523D01*
X133761904Y-121714285D01*
X133714285Y-121523809D01*
X133714285Y-121380952D01*
X133761904Y-121190476D01*
X133809523Y-121095238D01*
X133904761Y-121000000D01*
X134047619Y-120952380D01*
X134142857Y-120952380D01*
X134285714Y-121000000D01*
X134333333Y-121047619D01*
X134714285Y-121047619D02*
X134761904Y-121000000D01*
X134857142Y-120952380D01*
X135095238Y-120952380D01*
X135190476Y-121000000D01*
X135238095Y-121047619D01*
X135285714Y-121142857D01*
X135285714Y-121238095D01*
X135238095Y-121380952D01*
X134666666Y-121952380D01*
X135285714Y-121952380D01*
G04 #@! TO.C,C3*
X132333333Y-120357142D02*
X132285714Y-120404761D01*
X132142857Y-120452380D01*
X132047619Y-120452380D01*
X131904761Y-120404761D01*
X131809523Y-120309523D01*
X131761904Y-120214285D01*
X131714285Y-120023809D01*
X131714285Y-119880952D01*
X131761904Y-119690476D01*
X131809523Y-119595238D01*
X131904761Y-119500000D01*
X132047619Y-119452380D01*
X132142857Y-119452380D01*
X132285714Y-119500000D01*
X132333333Y-119547619D01*
X132666666Y-119452380D02*
X133285714Y-119452380D01*
X132952380Y-119833333D01*
X133095238Y-119833333D01*
X133190476Y-119880952D01*
X133238095Y-119928571D01*
X133285714Y-120023809D01*
X133285714Y-120261904D01*
X133238095Y-120357142D01*
X133190476Y-120404761D01*
X133095238Y-120452380D01*
X132809523Y-120452380D01*
X132714285Y-120404761D01*
X132666666Y-120357142D01*
G04 #@! TO.C,C4*
X128333333Y-128357142D02*
X128285714Y-128404761D01*
X128142857Y-128452380D01*
X128047619Y-128452380D01*
X127904761Y-128404761D01*
X127809523Y-128309523D01*
X127761904Y-128214285D01*
X127714285Y-128023809D01*
X127714285Y-127880952D01*
X127761904Y-127690476D01*
X127809523Y-127595238D01*
X127904761Y-127500000D01*
X128047619Y-127452380D01*
X128142857Y-127452380D01*
X128285714Y-127500000D01*
X128333333Y-127547619D01*
X129190476Y-127785714D02*
X129190476Y-128452380D01*
X128952380Y-127404761D02*
X128714285Y-128119047D01*
X129333333Y-128119047D01*
G04 #@! TO.C,C5*
X127257142Y-122666666D02*
X127304761Y-122714285D01*
X127352380Y-122857142D01*
X127352380Y-122952380D01*
X127304761Y-123095238D01*
X127209523Y-123190476D01*
X127114285Y-123238095D01*
X126923809Y-123285714D01*
X126780952Y-123285714D01*
X126590476Y-123238095D01*
X126495238Y-123190476D01*
X126400000Y-123095238D01*
X126352380Y-122952380D01*
X126352380Y-122857142D01*
X126400000Y-122714285D01*
X126447619Y-122666666D01*
X126352380Y-121761904D02*
X126352380Y-122238095D01*
X126828571Y-122285714D01*
X126780952Y-122238095D01*
X126733333Y-122142857D01*
X126733333Y-121904761D01*
X126780952Y-121809523D01*
X126828571Y-121761904D01*
X126923809Y-121714285D01*
X127161904Y-121714285D01*
X127257142Y-121761904D01*
X127304761Y-121809523D01*
X127352380Y-121904761D01*
X127352380Y-122142857D01*
X127304761Y-122238095D01*
X127257142Y-122285714D01*
G04 #@! TO.C,C6*
X127257142Y-124666666D02*
X127304761Y-124714285D01*
X127352380Y-124857142D01*
X127352380Y-124952380D01*
X127304761Y-125095238D01*
X127209523Y-125190476D01*
X127114285Y-125238095D01*
X126923809Y-125285714D01*
X126780952Y-125285714D01*
X126590476Y-125238095D01*
X126495238Y-125190476D01*
X126400000Y-125095238D01*
X126352380Y-124952380D01*
X126352380Y-124857142D01*
X126400000Y-124714285D01*
X126447619Y-124666666D01*
X126352380Y-123809523D02*
X126352380Y-124000000D01*
X126400000Y-124095238D01*
X126447619Y-124142857D01*
X126590476Y-124238095D01*
X126780952Y-124285714D01*
X127161904Y-124285714D01*
X127257142Y-124238095D01*
X127304761Y-124190476D01*
X127352380Y-124095238D01*
X127352380Y-123904761D01*
X127304761Y-123809523D01*
X127257142Y-123761904D01*
X127161904Y-123714285D01*
X126923809Y-123714285D01*
X126828571Y-123761904D01*
X126780952Y-123809523D01*
X126733333Y-123904761D01*
X126733333Y-124095238D01*
X126780952Y-124190476D01*
X126828571Y-124238095D01*
X126923809Y-124285714D01*
G04 #@! TO.C,D1*
X133761904Y-129452380D02*
X133761904Y-128452380D01*
X134000000Y-128452380D01*
X134142857Y-128500000D01*
X134238095Y-128595238D01*
X134285714Y-128690476D01*
X134333333Y-128880952D01*
X134333333Y-129023809D01*
X134285714Y-129214285D01*
X134238095Y-129309523D01*
X134142857Y-129404761D01*
X134000000Y-129452380D01*
X133761904Y-129452380D01*
X135285714Y-129452380D02*
X134714285Y-129452380D01*
X135000000Y-129452380D02*
X135000000Y-128452380D01*
X134904761Y-128595238D01*
X134809523Y-128690476D01*
X134714285Y-128738095D01*
G04 #@! TO.C,D2*
X133761904Y-118452380D02*
X133761904Y-117452380D01*
X134000000Y-117452380D01*
X134142857Y-117500000D01*
X134238095Y-117595238D01*
X134285714Y-117690476D01*
X134333333Y-117880952D01*
X134333333Y-118023809D01*
X134285714Y-118214285D01*
X134238095Y-118309523D01*
X134142857Y-118404761D01*
X134000000Y-118452380D01*
X133761904Y-118452380D01*
X134714285Y-117547619D02*
X134761904Y-117500000D01*
X134857142Y-117452380D01*
X135095238Y-117452380D01*
X135190476Y-117500000D01*
X135238095Y-117547619D01*
X135285714Y-117642857D01*
X135285714Y-117738095D01*
X135238095Y-117880952D01*
X134666666Y-118452380D01*
X135285714Y-118452380D01*
G04 #@! TO.C,FB1*
X126728571Y-120833333D02*
X126728571Y-121166666D01*
X127252380Y-121166666D02*
X126252380Y-121166666D01*
X126252380Y-120690476D01*
X126728571Y-119976190D02*
X126776190Y-119833333D01*
X126823809Y-119785714D01*
X126919047Y-119738095D01*
X127061904Y-119738095D01*
X127157142Y-119785714D01*
X127204761Y-119833333D01*
X127252380Y-119928571D01*
X127252380Y-120309523D01*
X126252380Y-120309523D01*
X126252380Y-119976190D01*
X126300000Y-119880952D01*
X126347619Y-119833333D01*
X126442857Y-119785714D01*
X126538095Y-119785714D01*
X126633333Y-119833333D01*
X126680952Y-119880952D01*
X126728571Y-119976190D01*
X126728571Y-120309523D01*
X127252380Y-118785714D02*
X127252380Y-119357142D01*
X127252380Y-119071428D02*
X126252380Y-119071428D01*
X126395238Y-119166666D01*
X126490476Y-119261904D01*
X126538095Y-119357142D01*
G04 #@! TO.C,R1*
X129333333Y-122452380D02*
X129000000Y-121976190D01*
X128761904Y-122452380D02*
X128761904Y-121452380D01*
X129142857Y-121452380D01*
X129238095Y-121500000D01*
X129285714Y-121547619D01*
X129333333Y-121642857D01*
X129333333Y-121785714D01*
X129285714Y-121880952D01*
X129238095Y-121928571D01*
X129142857Y-121976190D01*
X128761904Y-121976190D01*
X130285714Y-122452380D02*
X129714285Y-122452380D01*
X130000000Y-122452380D02*
X130000000Y-121452380D01*
X129904761Y-121595238D01*
X129809523Y-121690476D01*
X129714285Y-121738095D01*
G04 #@! TO.C,R2*
X129333333Y-125702380D02*
X129000000Y-125226190D01*
X128761904Y-125702380D02*
X128761904Y-124702380D01*
X129142857Y-124702380D01*
X129238095Y-124750000D01*
X129285714Y-124797619D01*
X129333333Y-124892857D01*
X129333333Y-125035714D01*
X129285714Y-125130952D01*
X129238095Y-125178571D01*
X129142857Y-125226190D01*
X128761904Y-125226190D01*
X129714285Y-124797619D02*
X129761904Y-124750000D01*
X129857142Y-124702380D01*
X130095238Y-124702380D01*
X130190476Y-124750000D01*
X130238095Y-124797619D01*
X130285714Y-124892857D01*
X130285714Y-124988095D01*
X130238095Y-125130952D01*
X129666666Y-125702380D01*
X130285714Y-125702380D01*
G04 #@! TO.C,R3*
X126583333Y-129452380D02*
X126250000Y-128976190D01*
X126011904Y-129452380D02*
X126011904Y-128452380D01*
X126392857Y-128452380D01*
X126488095Y-128500000D01*
X126535714Y-128547619D01*
X126583333Y-128642857D01*
X126583333Y-128785714D01*
X126535714Y-128880952D01*
X126488095Y-128928571D01*
X126392857Y-128976190D01*
X126011904Y-128976190D01*
X126916666Y-128452380D02*
X127535714Y-128452380D01*
X127202380Y-128833333D01*
X127345238Y-128833333D01*
X127440476Y-128880952D01*
X127488095Y-128928571D01*
X127535714Y-129023809D01*
X127535714Y-129261904D01*
X127488095Y-129357142D01*
X127440476Y-129404761D01*
X127345238Y-129452380D01*
X127059523Y-129452380D01*
X126964285Y-129404761D01*
X126916666Y-129357142D01*
G04 #@! TO.C,R4*
X128333333Y-119552380D02*
X128000000Y-119076190D01*
X127761904Y-119552380D02*
X127761904Y-118552380D01*
X128142857Y-118552380D01*
X128238095Y-118600000D01*
X128285714Y-118647619D01*
X128333333Y-118742857D01*
X128333333Y-118885714D01*
X128285714Y-118980952D01*
X128238095Y-119028571D01*
X128142857Y-119076190D01*
X127761904Y-119076190D01*
X129190476Y-118885714D02*
X129190476Y-119552380D01*
X128952380Y-118504761D02*
X128714285Y-119219047D01*
X129333333Y-119219047D01*
G04 #@! TD*
M02*
