M48
; DRILL file {KiCad 5.1.1} date Sat 20 Apr 2019 10:30:48 PM CEST
; FORMAT={-:-/ absolute / inch / decimal}
; #@! TF.CreationDate,2019-04-20T22:30:48+02:00
; #@! TF.GenerationSoftware,Kicad,Pcbnew,5.1.1
; #@! TF.FileFunction,Plated,1,2,PTH
FMAT,2
INCH
T1C0.0157
T2C0.0236
T3C0.0394
%
G90
G05
T1
X4.9606Y-4.7047
X5.0Y-4.6457
X5.0Y-4.7638
X5.0Y-4.8031
X5.0Y-4.8425
X5.0Y-4.8819
X5.0Y-4.9213
X5.0Y-5.0
X5.0002Y-4.7242
X5.1173Y-4.9221
X5.1575Y-4.8425
X5.1575Y-5.0197
X5.1969Y-4.8622
X5.2756Y-4.6457
X5.2756Y-5.0787
X5.3543Y-4.8622
X4.8898Y-4.7835
X4.8898Y-4.815
X4.8898Y-4.8465
X4.8898Y-4.878
X4.8898Y-4.9094
X4.8898Y-4.9409
T3
X5.4724Y-4.6654
X5.4724Y-4.7654
X5.4724Y-4.8654
X5.4724Y-4.9654
X5.4724Y-5.0654
T2
G00X4.7303Y-4.6437
M15
G01X4.687Y-4.6437
M16
G05
G00X4.7303Y-5.0807
M15
G01X4.687Y-5.0807
M16
G05
G00X4.9291Y-4.6437
M15
G01X4.8858Y-4.6437
M16
G05
G00X4.9291Y-5.0807
M15
G01X4.8858Y-5.0807
M16
G05
T0
M30
