G04 #@! TF.GenerationSoftware,KiCad,Pcbnew,5.0.1*
G04 #@! TF.CreationDate,2019-03-26T00:16:52+01:00*
G04 #@! TF.ProjectId,darling,6461726C696E672E6B696361645F7063,rev?*
G04 #@! TF.SameCoordinates,Original*
G04 #@! TF.FileFunction,Paste,Top*
G04 #@! TF.FilePolarity,Positive*
%FSLAX46Y46*%
G04 Gerber Fmt 4.6, Leading zero omitted, Abs format (unit mm)*
G04 Created by KiCad (PCBNEW 5.0.1) date Tue 26 Mar 2019 12:16:52 AM CET*
%MOMM*%
%LPD*%
G01*
G04 APERTURE LIST*
%ADD10C,0.100000*%
%ADD11C,0.590000*%
%ADD12C,0.950000*%
%ADD13C,1.150000*%
%ADD14R,0.850000X0.230000*%
%ADD15R,0.850000X0.460000*%
%ADD16R,0.350000X0.800000*%
%ADD17R,0.800000X0.350000*%
%ADD18R,1.050000X1.050000*%
G04 APERTURE END LIST*
D10*
G04 #@! TO.C,C1*
G36*
X128146958Y-125680710D02*
X128161276Y-125682834D01*
X128175317Y-125686351D01*
X128188946Y-125691228D01*
X128202031Y-125697417D01*
X128214447Y-125704858D01*
X128226073Y-125713481D01*
X128236798Y-125723202D01*
X128246519Y-125733927D01*
X128255142Y-125745553D01*
X128262583Y-125757969D01*
X128268772Y-125771054D01*
X128273649Y-125784683D01*
X128277166Y-125798724D01*
X128279290Y-125813042D01*
X128280000Y-125827500D01*
X128280000Y-126172500D01*
X128279290Y-126186958D01*
X128277166Y-126201276D01*
X128273649Y-126215317D01*
X128268772Y-126228946D01*
X128262583Y-126242031D01*
X128255142Y-126254447D01*
X128246519Y-126266073D01*
X128236798Y-126276798D01*
X128226073Y-126286519D01*
X128214447Y-126295142D01*
X128202031Y-126302583D01*
X128188946Y-126308772D01*
X128175317Y-126313649D01*
X128161276Y-126317166D01*
X128146958Y-126319290D01*
X128132500Y-126320000D01*
X127837500Y-126320000D01*
X127823042Y-126319290D01*
X127808724Y-126317166D01*
X127794683Y-126313649D01*
X127781054Y-126308772D01*
X127767969Y-126302583D01*
X127755553Y-126295142D01*
X127743927Y-126286519D01*
X127733202Y-126276798D01*
X127723481Y-126266073D01*
X127714858Y-126254447D01*
X127707417Y-126242031D01*
X127701228Y-126228946D01*
X127696351Y-126215317D01*
X127692834Y-126201276D01*
X127690710Y-126186958D01*
X127690000Y-126172500D01*
X127690000Y-125827500D01*
X127690710Y-125813042D01*
X127692834Y-125798724D01*
X127696351Y-125784683D01*
X127701228Y-125771054D01*
X127707417Y-125757969D01*
X127714858Y-125745553D01*
X127723481Y-125733927D01*
X127733202Y-125723202D01*
X127743927Y-125713481D01*
X127755553Y-125704858D01*
X127767969Y-125697417D01*
X127781054Y-125691228D01*
X127794683Y-125686351D01*
X127808724Y-125682834D01*
X127823042Y-125680710D01*
X127837500Y-125680000D01*
X128132500Y-125680000D01*
X128146958Y-125680710D01*
X128146958Y-125680710D01*
G37*
D11*
X127985000Y-126000000D03*
D10*
G36*
X127176958Y-125680710D02*
X127191276Y-125682834D01*
X127205317Y-125686351D01*
X127218946Y-125691228D01*
X127232031Y-125697417D01*
X127244447Y-125704858D01*
X127256073Y-125713481D01*
X127266798Y-125723202D01*
X127276519Y-125733927D01*
X127285142Y-125745553D01*
X127292583Y-125757969D01*
X127298772Y-125771054D01*
X127303649Y-125784683D01*
X127307166Y-125798724D01*
X127309290Y-125813042D01*
X127310000Y-125827500D01*
X127310000Y-126172500D01*
X127309290Y-126186958D01*
X127307166Y-126201276D01*
X127303649Y-126215317D01*
X127298772Y-126228946D01*
X127292583Y-126242031D01*
X127285142Y-126254447D01*
X127276519Y-126266073D01*
X127266798Y-126276798D01*
X127256073Y-126286519D01*
X127244447Y-126295142D01*
X127232031Y-126302583D01*
X127218946Y-126308772D01*
X127205317Y-126313649D01*
X127191276Y-126317166D01*
X127176958Y-126319290D01*
X127162500Y-126320000D01*
X126867500Y-126320000D01*
X126853042Y-126319290D01*
X126838724Y-126317166D01*
X126824683Y-126313649D01*
X126811054Y-126308772D01*
X126797969Y-126302583D01*
X126785553Y-126295142D01*
X126773927Y-126286519D01*
X126763202Y-126276798D01*
X126753481Y-126266073D01*
X126744858Y-126254447D01*
X126737417Y-126242031D01*
X126731228Y-126228946D01*
X126726351Y-126215317D01*
X126722834Y-126201276D01*
X126720710Y-126186958D01*
X126720000Y-126172500D01*
X126720000Y-125827500D01*
X126720710Y-125813042D01*
X126722834Y-125798724D01*
X126726351Y-125784683D01*
X126731228Y-125771054D01*
X126737417Y-125757969D01*
X126744858Y-125745553D01*
X126753481Y-125733927D01*
X126763202Y-125723202D01*
X126773927Y-125713481D01*
X126785553Y-125704858D01*
X126797969Y-125697417D01*
X126811054Y-125691228D01*
X126824683Y-125686351D01*
X126838724Y-125682834D01*
X126853042Y-125680710D01*
X126867500Y-125680000D01*
X127162500Y-125680000D01*
X127176958Y-125680710D01*
X127176958Y-125680710D01*
G37*
D11*
X127015000Y-126000000D03*
G04 #@! TD*
D10*
G04 #@! TO.C,C2*
G36*
X133186958Y-121690710D02*
X133201276Y-121692834D01*
X133215317Y-121696351D01*
X133228946Y-121701228D01*
X133242031Y-121707417D01*
X133254447Y-121714858D01*
X133266073Y-121723481D01*
X133276798Y-121733202D01*
X133286519Y-121743927D01*
X133295142Y-121755553D01*
X133302583Y-121767969D01*
X133308772Y-121781054D01*
X133313649Y-121794683D01*
X133317166Y-121808724D01*
X133319290Y-121823042D01*
X133320000Y-121837500D01*
X133320000Y-122132500D01*
X133319290Y-122146958D01*
X133317166Y-122161276D01*
X133313649Y-122175317D01*
X133308772Y-122188946D01*
X133302583Y-122202031D01*
X133295142Y-122214447D01*
X133286519Y-122226073D01*
X133276798Y-122236798D01*
X133266073Y-122246519D01*
X133254447Y-122255142D01*
X133242031Y-122262583D01*
X133228946Y-122268772D01*
X133215317Y-122273649D01*
X133201276Y-122277166D01*
X133186958Y-122279290D01*
X133172500Y-122280000D01*
X132827500Y-122280000D01*
X132813042Y-122279290D01*
X132798724Y-122277166D01*
X132784683Y-122273649D01*
X132771054Y-122268772D01*
X132757969Y-122262583D01*
X132745553Y-122255142D01*
X132733927Y-122246519D01*
X132723202Y-122236798D01*
X132713481Y-122226073D01*
X132704858Y-122214447D01*
X132697417Y-122202031D01*
X132691228Y-122188946D01*
X132686351Y-122175317D01*
X132682834Y-122161276D01*
X132680710Y-122146958D01*
X132680000Y-122132500D01*
X132680000Y-121837500D01*
X132680710Y-121823042D01*
X132682834Y-121808724D01*
X132686351Y-121794683D01*
X132691228Y-121781054D01*
X132697417Y-121767969D01*
X132704858Y-121755553D01*
X132713481Y-121743927D01*
X132723202Y-121733202D01*
X132733927Y-121723481D01*
X132745553Y-121714858D01*
X132757969Y-121707417D01*
X132771054Y-121701228D01*
X132784683Y-121696351D01*
X132798724Y-121692834D01*
X132813042Y-121690710D01*
X132827500Y-121690000D01*
X133172500Y-121690000D01*
X133186958Y-121690710D01*
X133186958Y-121690710D01*
G37*
D11*
X133000000Y-121985000D03*
D10*
G36*
X133186958Y-120720710D02*
X133201276Y-120722834D01*
X133215317Y-120726351D01*
X133228946Y-120731228D01*
X133242031Y-120737417D01*
X133254447Y-120744858D01*
X133266073Y-120753481D01*
X133276798Y-120763202D01*
X133286519Y-120773927D01*
X133295142Y-120785553D01*
X133302583Y-120797969D01*
X133308772Y-120811054D01*
X133313649Y-120824683D01*
X133317166Y-120838724D01*
X133319290Y-120853042D01*
X133320000Y-120867500D01*
X133320000Y-121162500D01*
X133319290Y-121176958D01*
X133317166Y-121191276D01*
X133313649Y-121205317D01*
X133308772Y-121218946D01*
X133302583Y-121232031D01*
X133295142Y-121244447D01*
X133286519Y-121256073D01*
X133276798Y-121266798D01*
X133266073Y-121276519D01*
X133254447Y-121285142D01*
X133242031Y-121292583D01*
X133228946Y-121298772D01*
X133215317Y-121303649D01*
X133201276Y-121307166D01*
X133186958Y-121309290D01*
X133172500Y-121310000D01*
X132827500Y-121310000D01*
X132813042Y-121309290D01*
X132798724Y-121307166D01*
X132784683Y-121303649D01*
X132771054Y-121298772D01*
X132757969Y-121292583D01*
X132745553Y-121285142D01*
X132733927Y-121276519D01*
X132723202Y-121266798D01*
X132713481Y-121256073D01*
X132704858Y-121244447D01*
X132697417Y-121232031D01*
X132691228Y-121218946D01*
X132686351Y-121205317D01*
X132682834Y-121191276D01*
X132680710Y-121176958D01*
X132680000Y-121162500D01*
X132680000Y-120867500D01*
X132680710Y-120853042D01*
X132682834Y-120838724D01*
X132686351Y-120824683D01*
X132691228Y-120811054D01*
X132697417Y-120797969D01*
X132704858Y-120785553D01*
X132713481Y-120773927D01*
X132723202Y-120763202D01*
X132733927Y-120753481D01*
X132745553Y-120744858D01*
X132757969Y-120737417D01*
X132771054Y-120731228D01*
X132784683Y-120726351D01*
X132798724Y-120722834D01*
X132813042Y-120720710D01*
X132827500Y-120720000D01*
X133172500Y-120720000D01*
X133186958Y-120720710D01*
X133186958Y-120720710D01*
G37*
D11*
X133000000Y-121015000D03*
G04 #@! TD*
D10*
G04 #@! TO.C,C3*
G36*
X132186958Y-120720710D02*
X132201276Y-120722834D01*
X132215317Y-120726351D01*
X132228946Y-120731228D01*
X132242031Y-120737417D01*
X132254447Y-120744858D01*
X132266073Y-120753481D01*
X132276798Y-120763202D01*
X132286519Y-120773927D01*
X132295142Y-120785553D01*
X132302583Y-120797969D01*
X132308772Y-120811054D01*
X132313649Y-120824683D01*
X132317166Y-120838724D01*
X132319290Y-120853042D01*
X132320000Y-120867500D01*
X132320000Y-121162500D01*
X132319290Y-121176958D01*
X132317166Y-121191276D01*
X132313649Y-121205317D01*
X132308772Y-121218946D01*
X132302583Y-121232031D01*
X132295142Y-121244447D01*
X132286519Y-121256073D01*
X132276798Y-121266798D01*
X132266073Y-121276519D01*
X132254447Y-121285142D01*
X132242031Y-121292583D01*
X132228946Y-121298772D01*
X132215317Y-121303649D01*
X132201276Y-121307166D01*
X132186958Y-121309290D01*
X132172500Y-121310000D01*
X131827500Y-121310000D01*
X131813042Y-121309290D01*
X131798724Y-121307166D01*
X131784683Y-121303649D01*
X131771054Y-121298772D01*
X131757969Y-121292583D01*
X131745553Y-121285142D01*
X131733927Y-121276519D01*
X131723202Y-121266798D01*
X131713481Y-121256073D01*
X131704858Y-121244447D01*
X131697417Y-121232031D01*
X131691228Y-121218946D01*
X131686351Y-121205317D01*
X131682834Y-121191276D01*
X131680710Y-121176958D01*
X131680000Y-121162500D01*
X131680000Y-120867500D01*
X131680710Y-120853042D01*
X131682834Y-120838724D01*
X131686351Y-120824683D01*
X131691228Y-120811054D01*
X131697417Y-120797969D01*
X131704858Y-120785553D01*
X131713481Y-120773927D01*
X131723202Y-120763202D01*
X131733927Y-120753481D01*
X131745553Y-120744858D01*
X131757969Y-120737417D01*
X131771054Y-120731228D01*
X131784683Y-120726351D01*
X131798724Y-120722834D01*
X131813042Y-120720710D01*
X131827500Y-120720000D01*
X132172500Y-120720000D01*
X132186958Y-120720710D01*
X132186958Y-120720710D01*
G37*
D11*
X132000000Y-121015000D03*
D10*
G36*
X132186958Y-121690710D02*
X132201276Y-121692834D01*
X132215317Y-121696351D01*
X132228946Y-121701228D01*
X132242031Y-121707417D01*
X132254447Y-121714858D01*
X132266073Y-121723481D01*
X132276798Y-121733202D01*
X132286519Y-121743927D01*
X132295142Y-121755553D01*
X132302583Y-121767969D01*
X132308772Y-121781054D01*
X132313649Y-121794683D01*
X132317166Y-121808724D01*
X132319290Y-121823042D01*
X132320000Y-121837500D01*
X132320000Y-122132500D01*
X132319290Y-122146958D01*
X132317166Y-122161276D01*
X132313649Y-122175317D01*
X132308772Y-122188946D01*
X132302583Y-122202031D01*
X132295142Y-122214447D01*
X132286519Y-122226073D01*
X132276798Y-122236798D01*
X132266073Y-122246519D01*
X132254447Y-122255142D01*
X132242031Y-122262583D01*
X132228946Y-122268772D01*
X132215317Y-122273649D01*
X132201276Y-122277166D01*
X132186958Y-122279290D01*
X132172500Y-122280000D01*
X131827500Y-122280000D01*
X131813042Y-122279290D01*
X131798724Y-122277166D01*
X131784683Y-122273649D01*
X131771054Y-122268772D01*
X131757969Y-122262583D01*
X131745553Y-122255142D01*
X131733927Y-122246519D01*
X131723202Y-122236798D01*
X131713481Y-122226073D01*
X131704858Y-122214447D01*
X131697417Y-122202031D01*
X131691228Y-122188946D01*
X131686351Y-122175317D01*
X131682834Y-122161276D01*
X131680710Y-122146958D01*
X131680000Y-122132500D01*
X131680000Y-121837500D01*
X131680710Y-121823042D01*
X131682834Y-121808724D01*
X131686351Y-121794683D01*
X131691228Y-121781054D01*
X131697417Y-121767969D01*
X131704858Y-121755553D01*
X131713481Y-121743927D01*
X131723202Y-121733202D01*
X131733927Y-121723481D01*
X131745553Y-121714858D01*
X131757969Y-121707417D01*
X131771054Y-121701228D01*
X131784683Y-121696351D01*
X131798724Y-121692834D01*
X131813042Y-121690710D01*
X131827500Y-121690000D01*
X132172500Y-121690000D01*
X132186958Y-121690710D01*
X132186958Y-121690710D01*
G37*
D11*
X132000000Y-121985000D03*
G04 #@! TD*
D10*
G04 #@! TO.C,C4*
G36*
X129146958Y-126680710D02*
X129161276Y-126682834D01*
X129175317Y-126686351D01*
X129188946Y-126691228D01*
X129202031Y-126697417D01*
X129214447Y-126704858D01*
X129226073Y-126713481D01*
X129236798Y-126723202D01*
X129246519Y-126733927D01*
X129255142Y-126745553D01*
X129262583Y-126757969D01*
X129268772Y-126771054D01*
X129273649Y-126784683D01*
X129277166Y-126798724D01*
X129279290Y-126813042D01*
X129280000Y-126827500D01*
X129280000Y-127172500D01*
X129279290Y-127186958D01*
X129277166Y-127201276D01*
X129273649Y-127215317D01*
X129268772Y-127228946D01*
X129262583Y-127242031D01*
X129255142Y-127254447D01*
X129246519Y-127266073D01*
X129236798Y-127276798D01*
X129226073Y-127286519D01*
X129214447Y-127295142D01*
X129202031Y-127302583D01*
X129188946Y-127308772D01*
X129175317Y-127313649D01*
X129161276Y-127317166D01*
X129146958Y-127319290D01*
X129132500Y-127320000D01*
X128837500Y-127320000D01*
X128823042Y-127319290D01*
X128808724Y-127317166D01*
X128794683Y-127313649D01*
X128781054Y-127308772D01*
X128767969Y-127302583D01*
X128755553Y-127295142D01*
X128743927Y-127286519D01*
X128733202Y-127276798D01*
X128723481Y-127266073D01*
X128714858Y-127254447D01*
X128707417Y-127242031D01*
X128701228Y-127228946D01*
X128696351Y-127215317D01*
X128692834Y-127201276D01*
X128690710Y-127186958D01*
X128690000Y-127172500D01*
X128690000Y-126827500D01*
X128690710Y-126813042D01*
X128692834Y-126798724D01*
X128696351Y-126784683D01*
X128701228Y-126771054D01*
X128707417Y-126757969D01*
X128714858Y-126745553D01*
X128723481Y-126733927D01*
X128733202Y-126723202D01*
X128743927Y-126713481D01*
X128755553Y-126704858D01*
X128767969Y-126697417D01*
X128781054Y-126691228D01*
X128794683Y-126686351D01*
X128808724Y-126682834D01*
X128823042Y-126680710D01*
X128837500Y-126680000D01*
X129132500Y-126680000D01*
X129146958Y-126680710D01*
X129146958Y-126680710D01*
G37*
D11*
X128985000Y-127000000D03*
D10*
G36*
X128176958Y-126680710D02*
X128191276Y-126682834D01*
X128205317Y-126686351D01*
X128218946Y-126691228D01*
X128232031Y-126697417D01*
X128244447Y-126704858D01*
X128256073Y-126713481D01*
X128266798Y-126723202D01*
X128276519Y-126733927D01*
X128285142Y-126745553D01*
X128292583Y-126757969D01*
X128298772Y-126771054D01*
X128303649Y-126784683D01*
X128307166Y-126798724D01*
X128309290Y-126813042D01*
X128310000Y-126827500D01*
X128310000Y-127172500D01*
X128309290Y-127186958D01*
X128307166Y-127201276D01*
X128303649Y-127215317D01*
X128298772Y-127228946D01*
X128292583Y-127242031D01*
X128285142Y-127254447D01*
X128276519Y-127266073D01*
X128266798Y-127276798D01*
X128256073Y-127286519D01*
X128244447Y-127295142D01*
X128232031Y-127302583D01*
X128218946Y-127308772D01*
X128205317Y-127313649D01*
X128191276Y-127317166D01*
X128176958Y-127319290D01*
X128162500Y-127320000D01*
X127867500Y-127320000D01*
X127853042Y-127319290D01*
X127838724Y-127317166D01*
X127824683Y-127313649D01*
X127811054Y-127308772D01*
X127797969Y-127302583D01*
X127785553Y-127295142D01*
X127773927Y-127286519D01*
X127763202Y-127276798D01*
X127753481Y-127266073D01*
X127744858Y-127254447D01*
X127737417Y-127242031D01*
X127731228Y-127228946D01*
X127726351Y-127215317D01*
X127722834Y-127201276D01*
X127720710Y-127186958D01*
X127720000Y-127172500D01*
X127720000Y-126827500D01*
X127720710Y-126813042D01*
X127722834Y-126798724D01*
X127726351Y-126784683D01*
X127731228Y-126771054D01*
X127737417Y-126757969D01*
X127744858Y-126745553D01*
X127753481Y-126733927D01*
X127763202Y-126723202D01*
X127773927Y-126713481D01*
X127785553Y-126704858D01*
X127797969Y-126697417D01*
X127811054Y-126691228D01*
X127824683Y-126686351D01*
X127838724Y-126682834D01*
X127853042Y-126680710D01*
X127867500Y-126680000D01*
X128162500Y-126680000D01*
X128176958Y-126680710D01*
X128176958Y-126680710D01*
G37*
D11*
X128015000Y-127000000D03*
G04 #@! TD*
D10*
G04 #@! TO.C,C5*
G36*
X128186958Y-122690710D02*
X128201276Y-122692834D01*
X128215317Y-122696351D01*
X128228946Y-122701228D01*
X128242031Y-122707417D01*
X128254447Y-122714858D01*
X128266073Y-122723481D01*
X128276798Y-122733202D01*
X128286519Y-122743927D01*
X128295142Y-122755553D01*
X128302583Y-122767969D01*
X128308772Y-122781054D01*
X128313649Y-122794683D01*
X128317166Y-122808724D01*
X128319290Y-122823042D01*
X128320000Y-122837500D01*
X128320000Y-123132500D01*
X128319290Y-123146958D01*
X128317166Y-123161276D01*
X128313649Y-123175317D01*
X128308772Y-123188946D01*
X128302583Y-123202031D01*
X128295142Y-123214447D01*
X128286519Y-123226073D01*
X128276798Y-123236798D01*
X128266073Y-123246519D01*
X128254447Y-123255142D01*
X128242031Y-123262583D01*
X128228946Y-123268772D01*
X128215317Y-123273649D01*
X128201276Y-123277166D01*
X128186958Y-123279290D01*
X128172500Y-123280000D01*
X127827500Y-123280000D01*
X127813042Y-123279290D01*
X127798724Y-123277166D01*
X127784683Y-123273649D01*
X127771054Y-123268772D01*
X127757969Y-123262583D01*
X127745553Y-123255142D01*
X127733927Y-123246519D01*
X127723202Y-123236798D01*
X127713481Y-123226073D01*
X127704858Y-123214447D01*
X127697417Y-123202031D01*
X127691228Y-123188946D01*
X127686351Y-123175317D01*
X127682834Y-123161276D01*
X127680710Y-123146958D01*
X127680000Y-123132500D01*
X127680000Y-122837500D01*
X127680710Y-122823042D01*
X127682834Y-122808724D01*
X127686351Y-122794683D01*
X127691228Y-122781054D01*
X127697417Y-122767969D01*
X127704858Y-122755553D01*
X127713481Y-122743927D01*
X127723202Y-122733202D01*
X127733927Y-122723481D01*
X127745553Y-122714858D01*
X127757969Y-122707417D01*
X127771054Y-122701228D01*
X127784683Y-122696351D01*
X127798724Y-122692834D01*
X127813042Y-122690710D01*
X127827500Y-122690000D01*
X128172500Y-122690000D01*
X128186958Y-122690710D01*
X128186958Y-122690710D01*
G37*
D11*
X128000000Y-122985000D03*
D10*
G36*
X128186958Y-121720710D02*
X128201276Y-121722834D01*
X128215317Y-121726351D01*
X128228946Y-121731228D01*
X128242031Y-121737417D01*
X128254447Y-121744858D01*
X128266073Y-121753481D01*
X128276798Y-121763202D01*
X128286519Y-121773927D01*
X128295142Y-121785553D01*
X128302583Y-121797969D01*
X128308772Y-121811054D01*
X128313649Y-121824683D01*
X128317166Y-121838724D01*
X128319290Y-121853042D01*
X128320000Y-121867500D01*
X128320000Y-122162500D01*
X128319290Y-122176958D01*
X128317166Y-122191276D01*
X128313649Y-122205317D01*
X128308772Y-122218946D01*
X128302583Y-122232031D01*
X128295142Y-122244447D01*
X128286519Y-122256073D01*
X128276798Y-122266798D01*
X128266073Y-122276519D01*
X128254447Y-122285142D01*
X128242031Y-122292583D01*
X128228946Y-122298772D01*
X128215317Y-122303649D01*
X128201276Y-122307166D01*
X128186958Y-122309290D01*
X128172500Y-122310000D01*
X127827500Y-122310000D01*
X127813042Y-122309290D01*
X127798724Y-122307166D01*
X127784683Y-122303649D01*
X127771054Y-122298772D01*
X127757969Y-122292583D01*
X127745553Y-122285142D01*
X127733927Y-122276519D01*
X127723202Y-122266798D01*
X127713481Y-122256073D01*
X127704858Y-122244447D01*
X127697417Y-122232031D01*
X127691228Y-122218946D01*
X127686351Y-122205317D01*
X127682834Y-122191276D01*
X127680710Y-122176958D01*
X127680000Y-122162500D01*
X127680000Y-121867500D01*
X127680710Y-121853042D01*
X127682834Y-121838724D01*
X127686351Y-121824683D01*
X127691228Y-121811054D01*
X127697417Y-121797969D01*
X127704858Y-121785553D01*
X127713481Y-121773927D01*
X127723202Y-121763202D01*
X127733927Y-121753481D01*
X127745553Y-121744858D01*
X127757969Y-121737417D01*
X127771054Y-121731228D01*
X127784683Y-121726351D01*
X127798724Y-121722834D01*
X127813042Y-121720710D01*
X127827500Y-121720000D01*
X128172500Y-121720000D01*
X128186958Y-121720710D01*
X128186958Y-121720710D01*
G37*
D11*
X128000000Y-122015000D03*
G04 #@! TD*
D10*
G04 #@! TO.C,C6*
G36*
X128186958Y-124690710D02*
X128201276Y-124692834D01*
X128215317Y-124696351D01*
X128228946Y-124701228D01*
X128242031Y-124707417D01*
X128254447Y-124714858D01*
X128266073Y-124723481D01*
X128276798Y-124733202D01*
X128286519Y-124743927D01*
X128295142Y-124755553D01*
X128302583Y-124767969D01*
X128308772Y-124781054D01*
X128313649Y-124794683D01*
X128317166Y-124808724D01*
X128319290Y-124823042D01*
X128320000Y-124837500D01*
X128320000Y-125132500D01*
X128319290Y-125146958D01*
X128317166Y-125161276D01*
X128313649Y-125175317D01*
X128308772Y-125188946D01*
X128302583Y-125202031D01*
X128295142Y-125214447D01*
X128286519Y-125226073D01*
X128276798Y-125236798D01*
X128266073Y-125246519D01*
X128254447Y-125255142D01*
X128242031Y-125262583D01*
X128228946Y-125268772D01*
X128215317Y-125273649D01*
X128201276Y-125277166D01*
X128186958Y-125279290D01*
X128172500Y-125280000D01*
X127827500Y-125280000D01*
X127813042Y-125279290D01*
X127798724Y-125277166D01*
X127784683Y-125273649D01*
X127771054Y-125268772D01*
X127757969Y-125262583D01*
X127745553Y-125255142D01*
X127733927Y-125246519D01*
X127723202Y-125236798D01*
X127713481Y-125226073D01*
X127704858Y-125214447D01*
X127697417Y-125202031D01*
X127691228Y-125188946D01*
X127686351Y-125175317D01*
X127682834Y-125161276D01*
X127680710Y-125146958D01*
X127680000Y-125132500D01*
X127680000Y-124837500D01*
X127680710Y-124823042D01*
X127682834Y-124808724D01*
X127686351Y-124794683D01*
X127691228Y-124781054D01*
X127697417Y-124767969D01*
X127704858Y-124755553D01*
X127713481Y-124743927D01*
X127723202Y-124733202D01*
X127733927Y-124723481D01*
X127745553Y-124714858D01*
X127757969Y-124707417D01*
X127771054Y-124701228D01*
X127784683Y-124696351D01*
X127798724Y-124692834D01*
X127813042Y-124690710D01*
X127827500Y-124690000D01*
X128172500Y-124690000D01*
X128186958Y-124690710D01*
X128186958Y-124690710D01*
G37*
D11*
X128000000Y-124985000D03*
D10*
G36*
X128186958Y-123720710D02*
X128201276Y-123722834D01*
X128215317Y-123726351D01*
X128228946Y-123731228D01*
X128242031Y-123737417D01*
X128254447Y-123744858D01*
X128266073Y-123753481D01*
X128276798Y-123763202D01*
X128286519Y-123773927D01*
X128295142Y-123785553D01*
X128302583Y-123797969D01*
X128308772Y-123811054D01*
X128313649Y-123824683D01*
X128317166Y-123838724D01*
X128319290Y-123853042D01*
X128320000Y-123867500D01*
X128320000Y-124162500D01*
X128319290Y-124176958D01*
X128317166Y-124191276D01*
X128313649Y-124205317D01*
X128308772Y-124218946D01*
X128302583Y-124232031D01*
X128295142Y-124244447D01*
X128286519Y-124256073D01*
X128276798Y-124266798D01*
X128266073Y-124276519D01*
X128254447Y-124285142D01*
X128242031Y-124292583D01*
X128228946Y-124298772D01*
X128215317Y-124303649D01*
X128201276Y-124307166D01*
X128186958Y-124309290D01*
X128172500Y-124310000D01*
X127827500Y-124310000D01*
X127813042Y-124309290D01*
X127798724Y-124307166D01*
X127784683Y-124303649D01*
X127771054Y-124298772D01*
X127757969Y-124292583D01*
X127745553Y-124285142D01*
X127733927Y-124276519D01*
X127723202Y-124266798D01*
X127713481Y-124256073D01*
X127704858Y-124244447D01*
X127697417Y-124232031D01*
X127691228Y-124218946D01*
X127686351Y-124205317D01*
X127682834Y-124191276D01*
X127680710Y-124176958D01*
X127680000Y-124162500D01*
X127680000Y-123867500D01*
X127680710Y-123853042D01*
X127682834Y-123838724D01*
X127686351Y-123824683D01*
X127691228Y-123811054D01*
X127697417Y-123797969D01*
X127704858Y-123785553D01*
X127713481Y-123773927D01*
X127723202Y-123763202D01*
X127733927Y-123753481D01*
X127745553Y-123744858D01*
X127757969Y-123737417D01*
X127771054Y-123731228D01*
X127784683Y-123726351D01*
X127798724Y-123722834D01*
X127813042Y-123720710D01*
X127827500Y-123720000D01*
X128172500Y-123720000D01*
X128186958Y-123720710D01*
X128186958Y-123720710D01*
G37*
D11*
X128000000Y-124015000D03*
G04 #@! TD*
D10*
G04 #@! TO.C,D1*
G36*
X130935779Y-128526144D02*
X130958834Y-128529563D01*
X130981443Y-128535227D01*
X131003387Y-128543079D01*
X131024457Y-128553044D01*
X131044448Y-128565026D01*
X131063168Y-128578910D01*
X131080438Y-128594562D01*
X131096090Y-128611832D01*
X131109974Y-128630552D01*
X131121956Y-128650543D01*
X131131921Y-128671613D01*
X131139773Y-128693557D01*
X131145437Y-128716166D01*
X131148856Y-128739221D01*
X131150000Y-128762500D01*
X131150000Y-129237500D01*
X131148856Y-129260779D01*
X131145437Y-129283834D01*
X131139773Y-129306443D01*
X131131921Y-129328387D01*
X131121956Y-129349457D01*
X131109974Y-129369448D01*
X131096090Y-129388168D01*
X131080438Y-129405438D01*
X131063168Y-129421090D01*
X131044448Y-129434974D01*
X131024457Y-129446956D01*
X131003387Y-129456921D01*
X130981443Y-129464773D01*
X130958834Y-129470437D01*
X130935779Y-129473856D01*
X130912500Y-129475000D01*
X130337500Y-129475000D01*
X130314221Y-129473856D01*
X130291166Y-129470437D01*
X130268557Y-129464773D01*
X130246613Y-129456921D01*
X130225543Y-129446956D01*
X130205552Y-129434974D01*
X130186832Y-129421090D01*
X130169562Y-129405438D01*
X130153910Y-129388168D01*
X130140026Y-129369448D01*
X130128044Y-129349457D01*
X130118079Y-129328387D01*
X130110227Y-129306443D01*
X130104563Y-129283834D01*
X130101144Y-129260779D01*
X130100000Y-129237500D01*
X130100000Y-128762500D01*
X130101144Y-128739221D01*
X130104563Y-128716166D01*
X130110227Y-128693557D01*
X130118079Y-128671613D01*
X130128044Y-128650543D01*
X130140026Y-128630552D01*
X130153910Y-128611832D01*
X130169562Y-128594562D01*
X130186832Y-128578910D01*
X130205552Y-128565026D01*
X130225543Y-128553044D01*
X130246613Y-128543079D01*
X130268557Y-128535227D01*
X130291166Y-128529563D01*
X130314221Y-128526144D01*
X130337500Y-128525000D01*
X130912500Y-128525000D01*
X130935779Y-128526144D01*
X130935779Y-128526144D01*
G37*
D12*
X130625000Y-129000000D03*
D10*
G36*
X132685779Y-128526144D02*
X132708834Y-128529563D01*
X132731443Y-128535227D01*
X132753387Y-128543079D01*
X132774457Y-128553044D01*
X132794448Y-128565026D01*
X132813168Y-128578910D01*
X132830438Y-128594562D01*
X132846090Y-128611832D01*
X132859974Y-128630552D01*
X132871956Y-128650543D01*
X132881921Y-128671613D01*
X132889773Y-128693557D01*
X132895437Y-128716166D01*
X132898856Y-128739221D01*
X132900000Y-128762500D01*
X132900000Y-129237500D01*
X132898856Y-129260779D01*
X132895437Y-129283834D01*
X132889773Y-129306443D01*
X132881921Y-129328387D01*
X132871956Y-129349457D01*
X132859974Y-129369448D01*
X132846090Y-129388168D01*
X132830438Y-129405438D01*
X132813168Y-129421090D01*
X132794448Y-129434974D01*
X132774457Y-129446956D01*
X132753387Y-129456921D01*
X132731443Y-129464773D01*
X132708834Y-129470437D01*
X132685779Y-129473856D01*
X132662500Y-129475000D01*
X132087500Y-129475000D01*
X132064221Y-129473856D01*
X132041166Y-129470437D01*
X132018557Y-129464773D01*
X131996613Y-129456921D01*
X131975543Y-129446956D01*
X131955552Y-129434974D01*
X131936832Y-129421090D01*
X131919562Y-129405438D01*
X131903910Y-129388168D01*
X131890026Y-129369448D01*
X131878044Y-129349457D01*
X131868079Y-129328387D01*
X131860227Y-129306443D01*
X131854563Y-129283834D01*
X131851144Y-129260779D01*
X131850000Y-129237500D01*
X131850000Y-128762500D01*
X131851144Y-128739221D01*
X131854563Y-128716166D01*
X131860227Y-128693557D01*
X131868079Y-128671613D01*
X131878044Y-128650543D01*
X131890026Y-128630552D01*
X131903910Y-128611832D01*
X131919562Y-128594562D01*
X131936832Y-128578910D01*
X131955552Y-128565026D01*
X131975543Y-128553044D01*
X131996613Y-128543079D01*
X132018557Y-128535227D01*
X132041166Y-128529563D01*
X132064221Y-128526144D01*
X132087500Y-128525000D01*
X132662500Y-128525000D01*
X132685779Y-128526144D01*
X132685779Y-128526144D01*
G37*
D12*
X132375000Y-129000000D03*
G04 #@! TD*
D10*
G04 #@! TO.C,D2*
G36*
X132685779Y-117526144D02*
X132708834Y-117529563D01*
X132731443Y-117535227D01*
X132753387Y-117543079D01*
X132774457Y-117553044D01*
X132794448Y-117565026D01*
X132813168Y-117578910D01*
X132830438Y-117594562D01*
X132846090Y-117611832D01*
X132859974Y-117630552D01*
X132871956Y-117650543D01*
X132881921Y-117671613D01*
X132889773Y-117693557D01*
X132895437Y-117716166D01*
X132898856Y-117739221D01*
X132900000Y-117762500D01*
X132900000Y-118237500D01*
X132898856Y-118260779D01*
X132895437Y-118283834D01*
X132889773Y-118306443D01*
X132881921Y-118328387D01*
X132871956Y-118349457D01*
X132859974Y-118369448D01*
X132846090Y-118388168D01*
X132830438Y-118405438D01*
X132813168Y-118421090D01*
X132794448Y-118434974D01*
X132774457Y-118446956D01*
X132753387Y-118456921D01*
X132731443Y-118464773D01*
X132708834Y-118470437D01*
X132685779Y-118473856D01*
X132662500Y-118475000D01*
X132087500Y-118475000D01*
X132064221Y-118473856D01*
X132041166Y-118470437D01*
X132018557Y-118464773D01*
X131996613Y-118456921D01*
X131975543Y-118446956D01*
X131955552Y-118434974D01*
X131936832Y-118421090D01*
X131919562Y-118405438D01*
X131903910Y-118388168D01*
X131890026Y-118369448D01*
X131878044Y-118349457D01*
X131868079Y-118328387D01*
X131860227Y-118306443D01*
X131854563Y-118283834D01*
X131851144Y-118260779D01*
X131850000Y-118237500D01*
X131850000Y-117762500D01*
X131851144Y-117739221D01*
X131854563Y-117716166D01*
X131860227Y-117693557D01*
X131868079Y-117671613D01*
X131878044Y-117650543D01*
X131890026Y-117630552D01*
X131903910Y-117611832D01*
X131919562Y-117594562D01*
X131936832Y-117578910D01*
X131955552Y-117565026D01*
X131975543Y-117553044D01*
X131996613Y-117543079D01*
X132018557Y-117535227D01*
X132041166Y-117529563D01*
X132064221Y-117526144D01*
X132087500Y-117525000D01*
X132662500Y-117525000D01*
X132685779Y-117526144D01*
X132685779Y-117526144D01*
G37*
D12*
X132375000Y-118000000D03*
D10*
G36*
X130935779Y-117526144D02*
X130958834Y-117529563D01*
X130981443Y-117535227D01*
X131003387Y-117543079D01*
X131024457Y-117553044D01*
X131044448Y-117565026D01*
X131063168Y-117578910D01*
X131080438Y-117594562D01*
X131096090Y-117611832D01*
X131109974Y-117630552D01*
X131121956Y-117650543D01*
X131131921Y-117671613D01*
X131139773Y-117693557D01*
X131145437Y-117716166D01*
X131148856Y-117739221D01*
X131150000Y-117762500D01*
X131150000Y-118237500D01*
X131148856Y-118260779D01*
X131145437Y-118283834D01*
X131139773Y-118306443D01*
X131131921Y-118328387D01*
X131121956Y-118349457D01*
X131109974Y-118369448D01*
X131096090Y-118388168D01*
X131080438Y-118405438D01*
X131063168Y-118421090D01*
X131044448Y-118434974D01*
X131024457Y-118446956D01*
X131003387Y-118456921D01*
X130981443Y-118464773D01*
X130958834Y-118470437D01*
X130935779Y-118473856D01*
X130912500Y-118475000D01*
X130337500Y-118475000D01*
X130314221Y-118473856D01*
X130291166Y-118470437D01*
X130268557Y-118464773D01*
X130246613Y-118456921D01*
X130225543Y-118446956D01*
X130205552Y-118434974D01*
X130186832Y-118421090D01*
X130169562Y-118405438D01*
X130153910Y-118388168D01*
X130140026Y-118369448D01*
X130128044Y-118349457D01*
X130118079Y-118328387D01*
X130110227Y-118306443D01*
X130104563Y-118283834D01*
X130101144Y-118260779D01*
X130100000Y-118237500D01*
X130100000Y-117762500D01*
X130101144Y-117739221D01*
X130104563Y-117716166D01*
X130110227Y-117693557D01*
X130118079Y-117671613D01*
X130128044Y-117650543D01*
X130140026Y-117630552D01*
X130153910Y-117611832D01*
X130169562Y-117594562D01*
X130186832Y-117578910D01*
X130205552Y-117565026D01*
X130225543Y-117553044D01*
X130246613Y-117543079D01*
X130268557Y-117535227D01*
X130291166Y-117529563D01*
X130314221Y-117526144D01*
X130337500Y-117525000D01*
X130912500Y-117525000D01*
X130935779Y-117526144D01*
X130935779Y-117526144D01*
G37*
D12*
X130625000Y-118000000D03*
G04 #@! TD*
D10*
G04 #@! TO.C,FB1*
G36*
X130874505Y-119801204D02*
X130898773Y-119804804D01*
X130922572Y-119810765D01*
X130945671Y-119819030D01*
X130967850Y-119829520D01*
X130988893Y-119842132D01*
X131008599Y-119856747D01*
X131026777Y-119873223D01*
X131043253Y-119891401D01*
X131057868Y-119911107D01*
X131070480Y-119932150D01*
X131080970Y-119954329D01*
X131089235Y-119977428D01*
X131095196Y-120001227D01*
X131098796Y-120025495D01*
X131100000Y-120049999D01*
X131100000Y-120950001D01*
X131098796Y-120974505D01*
X131095196Y-120998773D01*
X131089235Y-121022572D01*
X131080970Y-121045671D01*
X131070480Y-121067850D01*
X131057868Y-121088893D01*
X131043253Y-121108599D01*
X131026777Y-121126777D01*
X131008599Y-121143253D01*
X130988893Y-121157868D01*
X130967850Y-121170480D01*
X130945671Y-121180970D01*
X130922572Y-121189235D01*
X130898773Y-121195196D01*
X130874505Y-121198796D01*
X130850001Y-121200000D01*
X130199999Y-121200000D01*
X130175495Y-121198796D01*
X130151227Y-121195196D01*
X130127428Y-121189235D01*
X130104329Y-121180970D01*
X130082150Y-121170480D01*
X130061107Y-121157868D01*
X130041401Y-121143253D01*
X130023223Y-121126777D01*
X130006747Y-121108599D01*
X129992132Y-121088893D01*
X129979520Y-121067850D01*
X129969030Y-121045671D01*
X129960765Y-121022572D01*
X129954804Y-120998773D01*
X129951204Y-120974505D01*
X129950000Y-120950001D01*
X129950000Y-120049999D01*
X129951204Y-120025495D01*
X129954804Y-120001227D01*
X129960765Y-119977428D01*
X129969030Y-119954329D01*
X129979520Y-119932150D01*
X129992132Y-119911107D01*
X130006747Y-119891401D01*
X130023223Y-119873223D01*
X130041401Y-119856747D01*
X130061107Y-119842132D01*
X130082150Y-119829520D01*
X130104329Y-119819030D01*
X130127428Y-119810765D01*
X130151227Y-119804804D01*
X130175495Y-119801204D01*
X130199999Y-119800000D01*
X130850001Y-119800000D01*
X130874505Y-119801204D01*
X130874505Y-119801204D01*
G37*
D13*
X130525000Y-120500000D03*
D10*
G36*
X128824505Y-119801204D02*
X128848773Y-119804804D01*
X128872572Y-119810765D01*
X128895671Y-119819030D01*
X128917850Y-119829520D01*
X128938893Y-119842132D01*
X128958599Y-119856747D01*
X128976777Y-119873223D01*
X128993253Y-119891401D01*
X129007868Y-119911107D01*
X129020480Y-119932150D01*
X129030970Y-119954329D01*
X129039235Y-119977428D01*
X129045196Y-120001227D01*
X129048796Y-120025495D01*
X129050000Y-120049999D01*
X129050000Y-120950001D01*
X129048796Y-120974505D01*
X129045196Y-120998773D01*
X129039235Y-121022572D01*
X129030970Y-121045671D01*
X129020480Y-121067850D01*
X129007868Y-121088893D01*
X128993253Y-121108599D01*
X128976777Y-121126777D01*
X128958599Y-121143253D01*
X128938893Y-121157868D01*
X128917850Y-121170480D01*
X128895671Y-121180970D01*
X128872572Y-121189235D01*
X128848773Y-121195196D01*
X128824505Y-121198796D01*
X128800001Y-121200000D01*
X128149999Y-121200000D01*
X128125495Y-121198796D01*
X128101227Y-121195196D01*
X128077428Y-121189235D01*
X128054329Y-121180970D01*
X128032150Y-121170480D01*
X128011107Y-121157868D01*
X127991401Y-121143253D01*
X127973223Y-121126777D01*
X127956747Y-121108599D01*
X127942132Y-121088893D01*
X127929520Y-121067850D01*
X127919030Y-121045671D01*
X127910765Y-121022572D01*
X127904804Y-120998773D01*
X127901204Y-120974505D01*
X127900000Y-120950001D01*
X127900000Y-120049999D01*
X127901204Y-120025495D01*
X127904804Y-120001227D01*
X127910765Y-119977428D01*
X127919030Y-119954329D01*
X127929520Y-119932150D01*
X127942132Y-119911107D01*
X127956747Y-119891401D01*
X127973223Y-119873223D01*
X127991401Y-119856747D01*
X128011107Y-119842132D01*
X128032150Y-119829520D01*
X128054329Y-119819030D01*
X128077428Y-119810765D01*
X128101227Y-119804804D01*
X128125495Y-119801204D01*
X128149999Y-119800000D01*
X128800001Y-119800000D01*
X128824505Y-119801204D01*
X128824505Y-119801204D01*
G37*
D13*
X128475000Y-120500000D03*
G04 #@! TD*
D14*
G04 #@! TO.C,J1*
X125125000Y-123700000D03*
X125125000Y-123300000D03*
X125125000Y-124100000D03*
X125125000Y-124500000D03*
X125125000Y-124900000D03*
X125125000Y-125300000D03*
X125125000Y-125700000D03*
X125125000Y-126100000D03*
X125125000Y-126500000D03*
X125125000Y-126900000D03*
X125125000Y-122900000D03*
X125125000Y-122500000D03*
X125125000Y-122100000D03*
X125125000Y-121700000D03*
X125125000Y-121300000D03*
X125125000Y-120900000D03*
X125125000Y-120500000D03*
X125125000Y-120100000D03*
D15*
X125125000Y-119585000D03*
X125125000Y-127415000D03*
G04 #@! TD*
D10*
G04 #@! TO.C,R1*
G36*
X129176958Y-122680710D02*
X129191276Y-122682834D01*
X129205317Y-122686351D01*
X129218946Y-122691228D01*
X129232031Y-122697417D01*
X129244447Y-122704858D01*
X129256073Y-122713481D01*
X129266798Y-122723202D01*
X129276519Y-122733927D01*
X129285142Y-122745553D01*
X129292583Y-122757969D01*
X129298772Y-122771054D01*
X129303649Y-122784683D01*
X129307166Y-122798724D01*
X129309290Y-122813042D01*
X129310000Y-122827500D01*
X129310000Y-123172500D01*
X129309290Y-123186958D01*
X129307166Y-123201276D01*
X129303649Y-123215317D01*
X129298772Y-123228946D01*
X129292583Y-123242031D01*
X129285142Y-123254447D01*
X129276519Y-123266073D01*
X129266798Y-123276798D01*
X129256073Y-123286519D01*
X129244447Y-123295142D01*
X129232031Y-123302583D01*
X129218946Y-123308772D01*
X129205317Y-123313649D01*
X129191276Y-123317166D01*
X129176958Y-123319290D01*
X129162500Y-123320000D01*
X128867500Y-123320000D01*
X128853042Y-123319290D01*
X128838724Y-123317166D01*
X128824683Y-123313649D01*
X128811054Y-123308772D01*
X128797969Y-123302583D01*
X128785553Y-123295142D01*
X128773927Y-123286519D01*
X128763202Y-123276798D01*
X128753481Y-123266073D01*
X128744858Y-123254447D01*
X128737417Y-123242031D01*
X128731228Y-123228946D01*
X128726351Y-123215317D01*
X128722834Y-123201276D01*
X128720710Y-123186958D01*
X128720000Y-123172500D01*
X128720000Y-122827500D01*
X128720710Y-122813042D01*
X128722834Y-122798724D01*
X128726351Y-122784683D01*
X128731228Y-122771054D01*
X128737417Y-122757969D01*
X128744858Y-122745553D01*
X128753481Y-122733927D01*
X128763202Y-122723202D01*
X128773927Y-122713481D01*
X128785553Y-122704858D01*
X128797969Y-122697417D01*
X128811054Y-122691228D01*
X128824683Y-122686351D01*
X128838724Y-122682834D01*
X128853042Y-122680710D01*
X128867500Y-122680000D01*
X129162500Y-122680000D01*
X129176958Y-122680710D01*
X129176958Y-122680710D01*
G37*
D11*
X129015000Y-123000000D03*
D10*
G36*
X130146958Y-122680710D02*
X130161276Y-122682834D01*
X130175317Y-122686351D01*
X130188946Y-122691228D01*
X130202031Y-122697417D01*
X130214447Y-122704858D01*
X130226073Y-122713481D01*
X130236798Y-122723202D01*
X130246519Y-122733927D01*
X130255142Y-122745553D01*
X130262583Y-122757969D01*
X130268772Y-122771054D01*
X130273649Y-122784683D01*
X130277166Y-122798724D01*
X130279290Y-122813042D01*
X130280000Y-122827500D01*
X130280000Y-123172500D01*
X130279290Y-123186958D01*
X130277166Y-123201276D01*
X130273649Y-123215317D01*
X130268772Y-123228946D01*
X130262583Y-123242031D01*
X130255142Y-123254447D01*
X130246519Y-123266073D01*
X130236798Y-123276798D01*
X130226073Y-123286519D01*
X130214447Y-123295142D01*
X130202031Y-123302583D01*
X130188946Y-123308772D01*
X130175317Y-123313649D01*
X130161276Y-123317166D01*
X130146958Y-123319290D01*
X130132500Y-123320000D01*
X129837500Y-123320000D01*
X129823042Y-123319290D01*
X129808724Y-123317166D01*
X129794683Y-123313649D01*
X129781054Y-123308772D01*
X129767969Y-123302583D01*
X129755553Y-123295142D01*
X129743927Y-123286519D01*
X129733202Y-123276798D01*
X129723481Y-123266073D01*
X129714858Y-123254447D01*
X129707417Y-123242031D01*
X129701228Y-123228946D01*
X129696351Y-123215317D01*
X129692834Y-123201276D01*
X129690710Y-123186958D01*
X129690000Y-123172500D01*
X129690000Y-122827500D01*
X129690710Y-122813042D01*
X129692834Y-122798724D01*
X129696351Y-122784683D01*
X129701228Y-122771054D01*
X129707417Y-122757969D01*
X129714858Y-122745553D01*
X129723481Y-122733927D01*
X129733202Y-122723202D01*
X129743927Y-122713481D01*
X129755553Y-122704858D01*
X129767969Y-122697417D01*
X129781054Y-122691228D01*
X129794683Y-122686351D01*
X129808724Y-122682834D01*
X129823042Y-122680710D01*
X129837500Y-122680000D01*
X130132500Y-122680000D01*
X130146958Y-122680710D01*
X130146958Y-122680710D01*
G37*
D11*
X129985000Y-123000000D03*
G04 #@! TD*
D10*
G04 #@! TO.C,R2*
G36*
X129176958Y-123680710D02*
X129191276Y-123682834D01*
X129205317Y-123686351D01*
X129218946Y-123691228D01*
X129232031Y-123697417D01*
X129244447Y-123704858D01*
X129256073Y-123713481D01*
X129266798Y-123723202D01*
X129276519Y-123733927D01*
X129285142Y-123745553D01*
X129292583Y-123757969D01*
X129298772Y-123771054D01*
X129303649Y-123784683D01*
X129307166Y-123798724D01*
X129309290Y-123813042D01*
X129310000Y-123827500D01*
X129310000Y-124172500D01*
X129309290Y-124186958D01*
X129307166Y-124201276D01*
X129303649Y-124215317D01*
X129298772Y-124228946D01*
X129292583Y-124242031D01*
X129285142Y-124254447D01*
X129276519Y-124266073D01*
X129266798Y-124276798D01*
X129256073Y-124286519D01*
X129244447Y-124295142D01*
X129232031Y-124302583D01*
X129218946Y-124308772D01*
X129205317Y-124313649D01*
X129191276Y-124317166D01*
X129176958Y-124319290D01*
X129162500Y-124320000D01*
X128867500Y-124320000D01*
X128853042Y-124319290D01*
X128838724Y-124317166D01*
X128824683Y-124313649D01*
X128811054Y-124308772D01*
X128797969Y-124302583D01*
X128785553Y-124295142D01*
X128773927Y-124286519D01*
X128763202Y-124276798D01*
X128753481Y-124266073D01*
X128744858Y-124254447D01*
X128737417Y-124242031D01*
X128731228Y-124228946D01*
X128726351Y-124215317D01*
X128722834Y-124201276D01*
X128720710Y-124186958D01*
X128720000Y-124172500D01*
X128720000Y-123827500D01*
X128720710Y-123813042D01*
X128722834Y-123798724D01*
X128726351Y-123784683D01*
X128731228Y-123771054D01*
X128737417Y-123757969D01*
X128744858Y-123745553D01*
X128753481Y-123733927D01*
X128763202Y-123723202D01*
X128773927Y-123713481D01*
X128785553Y-123704858D01*
X128797969Y-123697417D01*
X128811054Y-123691228D01*
X128824683Y-123686351D01*
X128838724Y-123682834D01*
X128853042Y-123680710D01*
X128867500Y-123680000D01*
X129162500Y-123680000D01*
X129176958Y-123680710D01*
X129176958Y-123680710D01*
G37*
D11*
X129015000Y-124000000D03*
D10*
G36*
X130146958Y-123680710D02*
X130161276Y-123682834D01*
X130175317Y-123686351D01*
X130188946Y-123691228D01*
X130202031Y-123697417D01*
X130214447Y-123704858D01*
X130226073Y-123713481D01*
X130236798Y-123723202D01*
X130246519Y-123733927D01*
X130255142Y-123745553D01*
X130262583Y-123757969D01*
X130268772Y-123771054D01*
X130273649Y-123784683D01*
X130277166Y-123798724D01*
X130279290Y-123813042D01*
X130280000Y-123827500D01*
X130280000Y-124172500D01*
X130279290Y-124186958D01*
X130277166Y-124201276D01*
X130273649Y-124215317D01*
X130268772Y-124228946D01*
X130262583Y-124242031D01*
X130255142Y-124254447D01*
X130246519Y-124266073D01*
X130236798Y-124276798D01*
X130226073Y-124286519D01*
X130214447Y-124295142D01*
X130202031Y-124302583D01*
X130188946Y-124308772D01*
X130175317Y-124313649D01*
X130161276Y-124317166D01*
X130146958Y-124319290D01*
X130132500Y-124320000D01*
X129837500Y-124320000D01*
X129823042Y-124319290D01*
X129808724Y-124317166D01*
X129794683Y-124313649D01*
X129781054Y-124308772D01*
X129767969Y-124302583D01*
X129755553Y-124295142D01*
X129743927Y-124286519D01*
X129733202Y-124276798D01*
X129723481Y-124266073D01*
X129714858Y-124254447D01*
X129707417Y-124242031D01*
X129701228Y-124228946D01*
X129696351Y-124215317D01*
X129692834Y-124201276D01*
X129690710Y-124186958D01*
X129690000Y-124172500D01*
X129690000Y-123827500D01*
X129690710Y-123813042D01*
X129692834Y-123798724D01*
X129696351Y-123784683D01*
X129701228Y-123771054D01*
X129707417Y-123757969D01*
X129714858Y-123745553D01*
X129723481Y-123733927D01*
X129733202Y-123723202D01*
X129743927Y-123713481D01*
X129755553Y-123704858D01*
X129767969Y-123697417D01*
X129781054Y-123691228D01*
X129794683Y-123686351D01*
X129808724Y-123682834D01*
X129823042Y-123680710D01*
X129837500Y-123680000D01*
X130132500Y-123680000D01*
X130146958Y-123680710D01*
X130146958Y-123680710D01*
G37*
D11*
X129985000Y-124000000D03*
G04 #@! TD*
D10*
G04 #@! TO.C,R3*
G36*
X129146958Y-128680710D02*
X129161276Y-128682834D01*
X129175317Y-128686351D01*
X129188946Y-128691228D01*
X129202031Y-128697417D01*
X129214447Y-128704858D01*
X129226073Y-128713481D01*
X129236798Y-128723202D01*
X129246519Y-128733927D01*
X129255142Y-128745553D01*
X129262583Y-128757969D01*
X129268772Y-128771054D01*
X129273649Y-128784683D01*
X129277166Y-128798724D01*
X129279290Y-128813042D01*
X129280000Y-128827500D01*
X129280000Y-129172500D01*
X129279290Y-129186958D01*
X129277166Y-129201276D01*
X129273649Y-129215317D01*
X129268772Y-129228946D01*
X129262583Y-129242031D01*
X129255142Y-129254447D01*
X129246519Y-129266073D01*
X129236798Y-129276798D01*
X129226073Y-129286519D01*
X129214447Y-129295142D01*
X129202031Y-129302583D01*
X129188946Y-129308772D01*
X129175317Y-129313649D01*
X129161276Y-129317166D01*
X129146958Y-129319290D01*
X129132500Y-129320000D01*
X128837500Y-129320000D01*
X128823042Y-129319290D01*
X128808724Y-129317166D01*
X128794683Y-129313649D01*
X128781054Y-129308772D01*
X128767969Y-129302583D01*
X128755553Y-129295142D01*
X128743927Y-129286519D01*
X128733202Y-129276798D01*
X128723481Y-129266073D01*
X128714858Y-129254447D01*
X128707417Y-129242031D01*
X128701228Y-129228946D01*
X128696351Y-129215317D01*
X128692834Y-129201276D01*
X128690710Y-129186958D01*
X128690000Y-129172500D01*
X128690000Y-128827500D01*
X128690710Y-128813042D01*
X128692834Y-128798724D01*
X128696351Y-128784683D01*
X128701228Y-128771054D01*
X128707417Y-128757969D01*
X128714858Y-128745553D01*
X128723481Y-128733927D01*
X128733202Y-128723202D01*
X128743927Y-128713481D01*
X128755553Y-128704858D01*
X128767969Y-128697417D01*
X128781054Y-128691228D01*
X128794683Y-128686351D01*
X128808724Y-128682834D01*
X128823042Y-128680710D01*
X128837500Y-128680000D01*
X129132500Y-128680000D01*
X129146958Y-128680710D01*
X129146958Y-128680710D01*
G37*
D11*
X128985000Y-129000000D03*
D10*
G36*
X128176958Y-128680710D02*
X128191276Y-128682834D01*
X128205317Y-128686351D01*
X128218946Y-128691228D01*
X128232031Y-128697417D01*
X128244447Y-128704858D01*
X128256073Y-128713481D01*
X128266798Y-128723202D01*
X128276519Y-128733927D01*
X128285142Y-128745553D01*
X128292583Y-128757969D01*
X128298772Y-128771054D01*
X128303649Y-128784683D01*
X128307166Y-128798724D01*
X128309290Y-128813042D01*
X128310000Y-128827500D01*
X128310000Y-129172500D01*
X128309290Y-129186958D01*
X128307166Y-129201276D01*
X128303649Y-129215317D01*
X128298772Y-129228946D01*
X128292583Y-129242031D01*
X128285142Y-129254447D01*
X128276519Y-129266073D01*
X128266798Y-129276798D01*
X128256073Y-129286519D01*
X128244447Y-129295142D01*
X128232031Y-129302583D01*
X128218946Y-129308772D01*
X128205317Y-129313649D01*
X128191276Y-129317166D01*
X128176958Y-129319290D01*
X128162500Y-129320000D01*
X127867500Y-129320000D01*
X127853042Y-129319290D01*
X127838724Y-129317166D01*
X127824683Y-129313649D01*
X127811054Y-129308772D01*
X127797969Y-129302583D01*
X127785553Y-129295142D01*
X127773927Y-129286519D01*
X127763202Y-129276798D01*
X127753481Y-129266073D01*
X127744858Y-129254447D01*
X127737417Y-129242031D01*
X127731228Y-129228946D01*
X127726351Y-129215317D01*
X127722834Y-129201276D01*
X127720710Y-129186958D01*
X127720000Y-129172500D01*
X127720000Y-128827500D01*
X127720710Y-128813042D01*
X127722834Y-128798724D01*
X127726351Y-128784683D01*
X127731228Y-128771054D01*
X127737417Y-128757969D01*
X127744858Y-128745553D01*
X127753481Y-128733927D01*
X127763202Y-128723202D01*
X127773927Y-128713481D01*
X127785553Y-128704858D01*
X127797969Y-128697417D01*
X127811054Y-128691228D01*
X127824683Y-128686351D01*
X127838724Y-128682834D01*
X127853042Y-128680710D01*
X127867500Y-128680000D01*
X128162500Y-128680000D01*
X128176958Y-128680710D01*
X128176958Y-128680710D01*
G37*
D11*
X128015000Y-129000000D03*
G04 #@! TD*
D10*
G04 #@! TO.C,R4*
G36*
X128176958Y-117680710D02*
X128191276Y-117682834D01*
X128205317Y-117686351D01*
X128218946Y-117691228D01*
X128232031Y-117697417D01*
X128244447Y-117704858D01*
X128256073Y-117713481D01*
X128266798Y-117723202D01*
X128276519Y-117733927D01*
X128285142Y-117745553D01*
X128292583Y-117757969D01*
X128298772Y-117771054D01*
X128303649Y-117784683D01*
X128307166Y-117798724D01*
X128309290Y-117813042D01*
X128310000Y-117827500D01*
X128310000Y-118172500D01*
X128309290Y-118186958D01*
X128307166Y-118201276D01*
X128303649Y-118215317D01*
X128298772Y-118228946D01*
X128292583Y-118242031D01*
X128285142Y-118254447D01*
X128276519Y-118266073D01*
X128266798Y-118276798D01*
X128256073Y-118286519D01*
X128244447Y-118295142D01*
X128232031Y-118302583D01*
X128218946Y-118308772D01*
X128205317Y-118313649D01*
X128191276Y-118317166D01*
X128176958Y-118319290D01*
X128162500Y-118320000D01*
X127867500Y-118320000D01*
X127853042Y-118319290D01*
X127838724Y-118317166D01*
X127824683Y-118313649D01*
X127811054Y-118308772D01*
X127797969Y-118302583D01*
X127785553Y-118295142D01*
X127773927Y-118286519D01*
X127763202Y-118276798D01*
X127753481Y-118266073D01*
X127744858Y-118254447D01*
X127737417Y-118242031D01*
X127731228Y-118228946D01*
X127726351Y-118215317D01*
X127722834Y-118201276D01*
X127720710Y-118186958D01*
X127720000Y-118172500D01*
X127720000Y-117827500D01*
X127720710Y-117813042D01*
X127722834Y-117798724D01*
X127726351Y-117784683D01*
X127731228Y-117771054D01*
X127737417Y-117757969D01*
X127744858Y-117745553D01*
X127753481Y-117733927D01*
X127763202Y-117723202D01*
X127773927Y-117713481D01*
X127785553Y-117704858D01*
X127797969Y-117697417D01*
X127811054Y-117691228D01*
X127824683Y-117686351D01*
X127838724Y-117682834D01*
X127853042Y-117680710D01*
X127867500Y-117680000D01*
X128162500Y-117680000D01*
X128176958Y-117680710D01*
X128176958Y-117680710D01*
G37*
D11*
X128015000Y-118000000D03*
D10*
G36*
X129146958Y-117680710D02*
X129161276Y-117682834D01*
X129175317Y-117686351D01*
X129188946Y-117691228D01*
X129202031Y-117697417D01*
X129214447Y-117704858D01*
X129226073Y-117713481D01*
X129236798Y-117723202D01*
X129246519Y-117733927D01*
X129255142Y-117745553D01*
X129262583Y-117757969D01*
X129268772Y-117771054D01*
X129273649Y-117784683D01*
X129277166Y-117798724D01*
X129279290Y-117813042D01*
X129280000Y-117827500D01*
X129280000Y-118172500D01*
X129279290Y-118186958D01*
X129277166Y-118201276D01*
X129273649Y-118215317D01*
X129268772Y-118228946D01*
X129262583Y-118242031D01*
X129255142Y-118254447D01*
X129246519Y-118266073D01*
X129236798Y-118276798D01*
X129226073Y-118286519D01*
X129214447Y-118295142D01*
X129202031Y-118302583D01*
X129188946Y-118308772D01*
X129175317Y-118313649D01*
X129161276Y-118317166D01*
X129146958Y-118319290D01*
X129132500Y-118320000D01*
X128837500Y-118320000D01*
X128823042Y-118319290D01*
X128808724Y-118317166D01*
X128794683Y-118313649D01*
X128781054Y-118308772D01*
X128767969Y-118302583D01*
X128755553Y-118295142D01*
X128743927Y-118286519D01*
X128733202Y-118276798D01*
X128723481Y-118266073D01*
X128714858Y-118254447D01*
X128707417Y-118242031D01*
X128701228Y-118228946D01*
X128696351Y-118215317D01*
X128692834Y-118201276D01*
X128690710Y-118186958D01*
X128690000Y-118172500D01*
X128690000Y-117827500D01*
X128690710Y-117813042D01*
X128692834Y-117798724D01*
X128696351Y-117784683D01*
X128701228Y-117771054D01*
X128707417Y-117757969D01*
X128714858Y-117745553D01*
X128723481Y-117733927D01*
X128733202Y-117723202D01*
X128743927Y-117713481D01*
X128755553Y-117704858D01*
X128767969Y-117697417D01*
X128781054Y-117691228D01*
X128794683Y-117686351D01*
X128808724Y-117682834D01*
X128823042Y-117680710D01*
X128837500Y-117680000D01*
X129132500Y-117680000D01*
X129146958Y-117680710D01*
X129146958Y-117680710D01*
G37*
D11*
X128985000Y-118000000D03*
G04 #@! TD*
D16*
G04 #@! TO.C,U1*
X134975000Y-123500000D03*
X134325000Y-123500000D03*
X133675000Y-123500000D03*
X133025000Y-123500000D03*
D17*
X132000000Y-124525000D03*
X132000000Y-125175000D03*
X132000000Y-125825000D03*
X132000000Y-126475000D03*
D16*
X133025000Y-127500000D03*
X133675000Y-127500000D03*
X134325000Y-127500000D03*
X134975000Y-127500000D03*
D17*
X136000000Y-126475000D03*
X136000000Y-125825000D03*
X136000000Y-125175000D03*
X136000000Y-124525000D03*
D18*
X133375000Y-124875000D03*
X133375000Y-126125000D03*
X134625000Y-124875000D03*
X134625000Y-126125000D03*
G04 #@! TD*
M02*
