G04 #@! TF.GenerationSoftware,KiCad,Pcbnew,5.1.1*
G04 #@! TF.CreationDate,2019-04-20T22:30:45+02:00*
G04 #@! TF.ProjectId,darling,6461726c-696e-4672-9e6b-696361645f70,rev?*
G04 #@! TF.SameCoordinates,Original*
G04 #@! TF.FileFunction,Copper,L2,Bot*
G04 #@! TF.FilePolarity,Positive*
%FSLAX46Y46*%
G04 Gerber Fmt 4.6, Leading zero omitted, Abs format (unit mm)*
G04 Created by KiCad (PCBNEW 5.1.1) date 2019-04-20 22:30:45*
%MOMM*%
%LPD*%
G04 APERTURE LIST*
%ADD10C,0.600000*%
%ADD11O,2.300000X1.200000*%
%ADD12C,0.700000*%
%ADD13C,0.100000*%
%ADD14R,1.700000X1.700000*%
%ADD15O,1.700000X1.700000*%
%ADD16C,0.800000*%
%ADD17C,0.250000*%
%ADD18C,0.200000*%
%ADD19C,0.254000*%
G04 APERTURE END LIST*
D10*
X124200000Y-121500000D03*
X124200000Y-122300000D03*
X124200000Y-123100000D03*
X124200000Y-125500000D03*
X124200000Y-124700000D03*
X124200000Y-123900000D03*
D11*
X124650000Y-129050000D03*
X124650000Y-117950000D03*
D12*
X119600000Y-117950000D03*
D13*
G36*
X118450000Y-118700000D02*
G01*
X118450000Y-117950000D01*
X118450165Y-117950000D01*
X118450143Y-117946861D01*
X118451984Y-117902934D01*
X118451984Y-117902930D01*
X118452086Y-117900842D01*
X118452742Y-117894598D01*
X118453312Y-117888338D01*
X118459431Y-117844801D01*
X118459737Y-117842730D01*
X118460999Y-117836583D01*
X118462177Y-117830407D01*
X118472515Y-117787675D01*
X118473022Y-117785643D01*
X118474872Y-117779665D01*
X118476652Y-117773617D01*
X118491110Y-117732098D01*
X118491813Y-117730126D01*
X118494234Y-117724366D01*
X118496600Y-117718510D01*
X118515041Y-117678599D01*
X118515933Y-117676705D01*
X118518929Y-117671164D01*
X118521832Y-117665611D01*
X118544076Y-117627698D01*
X118544079Y-117627692D01*
X118544084Y-117627685D01*
X118545152Y-117625892D01*
X118548661Y-117620690D01*
X118552103Y-117615430D01*
X118577945Y-117579861D01*
X118579188Y-117578176D01*
X118583159Y-117573376D01*
X118587127Y-117568440D01*
X118616316Y-117535563D01*
X118617718Y-117534007D01*
X118622183Y-117529573D01*
X118626573Y-117525090D01*
X118658832Y-117495219D01*
X118660379Y-117493807D01*
X118665219Y-117489859D01*
X118670055Y-117485801D01*
X118705075Y-117459220D01*
X118706752Y-117457966D01*
X118711959Y-117454506D01*
X118717167Y-117450940D01*
X118754613Y-117427903D01*
X118756404Y-117426819D01*
X118761909Y-117423892D01*
X118767454Y-117420843D01*
X118806970Y-117401570D01*
X118808858Y-117400666D01*
X118814651Y-117398278D01*
X118820441Y-117395796D01*
X118861649Y-117380472D01*
X118863616Y-117379756D01*
X118869618Y-117377944D01*
X118875619Y-117376040D01*
X118918125Y-117364810D01*
X118920153Y-117364290D01*
X118926274Y-117363078D01*
X118932455Y-117361764D01*
X118975854Y-117354734D01*
X118977923Y-117354414D01*
X118984178Y-117353800D01*
X118990422Y-117353100D01*
X119034300Y-117350340D01*
X119036391Y-117350223D01*
X119039537Y-117350223D01*
X119042667Y-117350048D01*
X119048950Y-117350004D01*
X119049918Y-117350004D01*
X119050000Y-117350000D01*
X120150000Y-117350000D01*
X120152094Y-117350015D01*
X120154701Y-117350179D01*
X120157329Y-117350179D01*
X120201241Y-117352327D01*
X120203332Y-117352444D01*
X120209578Y-117353145D01*
X120215823Y-117353757D01*
X120259316Y-117360179D01*
X120259320Y-117360180D01*
X120259325Y-117360180D01*
X120261386Y-117360500D01*
X120267516Y-117361803D01*
X120273693Y-117363026D01*
X120316352Y-117373662D01*
X120318380Y-117374183D01*
X120324330Y-117376070D01*
X120330381Y-117377897D01*
X120371799Y-117392645D01*
X120373766Y-117393362D01*
X120379559Y-117395844D01*
X120385352Y-117398231D01*
X120425132Y-117416951D01*
X120427020Y-117417857D01*
X120432485Y-117420862D01*
X120438066Y-117423829D01*
X120475830Y-117446340D01*
X120477621Y-117447425D01*
X120482776Y-117450954D01*
X120488040Y-117454452D01*
X120523422Y-117480539D01*
X120523426Y-117480541D01*
X120523430Y-117480544D01*
X120525103Y-117481796D01*
X120529893Y-117485815D01*
X120534783Y-117489803D01*
X120567455Y-117519222D01*
X120569001Y-117520634D01*
X120573386Y-117525111D01*
X120577853Y-117529547D01*
X120607498Y-117562013D01*
X120608899Y-117563569D01*
X120612806Y-117568428D01*
X120616841Y-117573305D01*
X120643177Y-117608509D01*
X120644419Y-117610195D01*
X120647853Y-117615442D01*
X120651372Y-117620659D01*
X120674147Y-117658265D01*
X120675219Y-117660064D01*
X120678116Y-117665606D01*
X120681118Y-117671158D01*
X120700114Y-117710807D01*
X120701005Y-117712702D01*
X120703340Y-117718482D01*
X120705792Y-117724314D01*
X120720824Y-117765617D01*
X120720829Y-117765628D01*
X120720833Y-117765642D01*
X120721531Y-117767599D01*
X120723303Y-117773623D01*
X120725162Y-117779627D01*
X120736096Y-117822210D01*
X120736602Y-117824242D01*
X120737778Y-117830407D01*
X120739043Y-117836567D01*
X120745769Y-117880014D01*
X120746075Y-117882086D01*
X120746644Y-117888336D01*
X120747301Y-117894589D01*
X120749755Y-117938484D01*
X120749755Y-117938486D01*
X120749857Y-117940577D01*
X120749813Y-117946858D01*
X120749835Y-117950000D01*
X120750000Y-117950000D01*
X120750000Y-118700000D01*
X118450000Y-118700000D01*
X118450000Y-118700000D01*
G37*
D12*
X119600000Y-129050000D03*
D13*
G36*
X120749835Y-129050000D02*
G01*
X120749857Y-129053139D01*
X120748016Y-129097066D01*
X120748016Y-129097070D01*
X120747914Y-129099158D01*
X120747257Y-129105405D01*
X120746688Y-129111662D01*
X120740569Y-129155199D01*
X120740263Y-129157271D01*
X120739000Y-129163425D01*
X120737823Y-129169593D01*
X120727485Y-129212326D01*
X120726978Y-129214357D01*
X120725125Y-129220343D01*
X120723348Y-129226383D01*
X120708890Y-129267901D01*
X120708187Y-129269874D01*
X120705761Y-129275646D01*
X120703400Y-129281491D01*
X120684961Y-129321394D01*
X120684958Y-129321402D01*
X120684953Y-129321411D01*
X120684066Y-129323296D01*
X120681091Y-129328798D01*
X120678168Y-129334389D01*
X120655920Y-129372309D01*
X120654848Y-129374108D01*
X120651330Y-129379324D01*
X120647897Y-129384570D01*
X120622055Y-129420139D01*
X120620813Y-129421824D01*
X120616822Y-129426648D01*
X120612873Y-129431560D01*
X120583683Y-129464437D01*
X120582282Y-129465993D01*
X120577802Y-129470443D01*
X120573427Y-129474910D01*
X120541168Y-129504781D01*
X120539621Y-129506193D01*
X120534766Y-129510153D01*
X120529944Y-129514199D01*
X120494925Y-129540781D01*
X120493248Y-129542035D01*
X120488040Y-129545495D01*
X120482833Y-129549060D01*
X120445387Y-129572097D01*
X120443596Y-129573181D01*
X120438074Y-129576118D01*
X120432545Y-129579157D01*
X120393030Y-129598430D01*
X120391141Y-129599334D01*
X120385352Y-129601720D01*
X120379559Y-129604203D01*
X120338352Y-129619528D01*
X120336384Y-129620244D01*
X120330394Y-129622053D01*
X120324381Y-129623960D01*
X120281875Y-129635190D01*
X120279847Y-129635710D01*
X120273719Y-129636924D01*
X120267545Y-129638236D01*
X120224146Y-129645266D01*
X120222076Y-129645586D01*
X120215838Y-129646198D01*
X120209578Y-129646900D01*
X120165699Y-129649660D01*
X120163609Y-129649777D01*
X120160463Y-129649777D01*
X120157333Y-129649952D01*
X120151051Y-129649996D01*
X120150082Y-129649996D01*
X120150000Y-129650000D01*
X119050000Y-129650000D01*
X119047906Y-129649985D01*
X119045299Y-129649821D01*
X119042672Y-129649821D01*
X118998759Y-129647673D01*
X118996669Y-129647556D01*
X118990430Y-129646856D01*
X118984178Y-129646243D01*
X118940684Y-129639821D01*
X118938615Y-129639500D01*
X118932493Y-129638199D01*
X118926307Y-129636974D01*
X118883648Y-129626338D01*
X118881620Y-129625817D01*
X118875670Y-129623930D01*
X118869619Y-129622103D01*
X118828201Y-129607355D01*
X118826233Y-129606638D01*
X118820504Y-129604183D01*
X118814649Y-129601769D01*
X118774868Y-129583049D01*
X118772980Y-129582144D01*
X118767500Y-129579131D01*
X118761933Y-129576171D01*
X118724170Y-129553660D01*
X118722379Y-129552575D01*
X118717224Y-129549046D01*
X118711960Y-129545548D01*
X118676578Y-129519461D01*
X118676575Y-129519460D01*
X118676573Y-129519458D01*
X118674897Y-129518204D01*
X118670087Y-129514168D01*
X118665218Y-129510197D01*
X118632545Y-129480779D01*
X118630999Y-129479366D01*
X118626630Y-129474904D01*
X118622147Y-129470453D01*
X118592501Y-129437987D01*
X118591101Y-129436431D01*
X118587194Y-129431572D01*
X118583159Y-129426695D01*
X118556823Y-129391491D01*
X118555581Y-129389805D01*
X118552155Y-129384570D01*
X118548628Y-129379341D01*
X118525853Y-129341735D01*
X118524781Y-129339936D01*
X118521884Y-129334394D01*
X118518882Y-129328842D01*
X118499886Y-129289193D01*
X118498995Y-129287298D01*
X118496654Y-129281503D01*
X118494208Y-129275685D01*
X118479171Y-129234373D01*
X118478469Y-129232400D01*
X118476694Y-129226369D01*
X118474838Y-129220373D01*
X118463904Y-129177789D01*
X118463398Y-129175757D01*
X118462224Y-129169607D01*
X118460957Y-129163433D01*
X118454231Y-129119986D01*
X118453925Y-129117914D01*
X118453356Y-129111662D01*
X118452699Y-129105411D01*
X118450245Y-129061517D01*
X118450245Y-129061515D01*
X118450143Y-129059423D01*
X118450187Y-129053142D01*
X118450165Y-129050000D01*
X118450000Y-129050000D01*
X118450000Y-128300000D01*
X120750000Y-128300000D01*
X120750000Y-129050000D01*
X120749835Y-129050000D01*
X120749835Y-129050000D01*
G37*
D14*
X139000000Y-118500000D03*
D15*
X139000000Y-121040000D03*
X139000000Y-123580000D03*
X139000000Y-126120000D03*
X139000000Y-128660000D03*
D16*
X127000000Y-121000000D03*
X127000000Y-127000000D03*
X126000000Y-119500000D03*
X134000000Y-129000000D03*
X136000000Y-123500000D03*
X131000000Y-127500000D03*
X134000000Y-118000000D03*
X127000000Y-122000000D03*
X127000000Y-124000000D03*
X127000000Y-123000000D03*
X131000000Y-123000000D03*
X129979847Y-125020153D03*
X132000000Y-123500000D03*
X127000000Y-118000000D03*
X127005153Y-119994847D03*
X127000000Y-125000000D03*
D17*
X126900000Y-121000000D02*
X127000000Y-121000000D01*
X127000000Y-127000000D02*
X128404020Y-125595980D01*
X127000000Y-121000000D02*
X126000000Y-120000000D01*
X126000000Y-118750000D02*
X126000000Y-118934315D01*
X126000000Y-118934315D02*
X126000000Y-119500000D01*
X125200000Y-117950000D02*
X126000000Y-118750000D01*
X124650000Y-117950000D02*
X125200000Y-117950000D01*
X126000000Y-120000000D02*
X126000000Y-119500000D01*
X126399999Y-119100001D02*
X126000000Y-119500000D01*
X127038269Y-119100001D02*
X126600001Y-119100001D01*
X126600001Y-119100001D02*
X126399999Y-119100001D01*
X127038269Y-119100001D02*
X129000000Y-121061732D01*
X129000000Y-125000000D02*
X128404020Y-125595980D01*
X129000000Y-121061732D02*
X129000000Y-125000000D01*
X134399999Y-128600001D02*
X134000000Y-129000000D01*
X135515001Y-127484999D02*
X134399999Y-128600001D01*
X140175001Y-126684001D02*
X139374003Y-127484999D01*
X139374003Y-127484999D02*
X135515001Y-127484999D01*
X140175001Y-118575001D02*
X140175001Y-126684001D01*
X140100000Y-118500000D02*
X140175001Y-118575001D01*
X139000000Y-118500000D02*
X140100000Y-118500000D01*
X136000000Y-123500000D02*
X135000000Y-123500000D01*
X135000000Y-123500000D02*
X131000000Y-127500000D01*
X138460000Y-121040000D02*
X139000000Y-121040000D01*
X136000000Y-123500000D02*
X138460000Y-121040000D01*
X136000000Y-123500000D02*
X136000000Y-120000000D01*
X136000000Y-120000000D02*
X134000000Y-118000000D01*
X124300000Y-123000000D02*
X124200000Y-123100000D01*
D18*
X127000000Y-122000000D02*
X125300000Y-122000000D01*
X125000000Y-122300000D02*
X124200000Y-123100000D01*
X125300000Y-122000000D02*
X125000000Y-122300000D01*
X127399999Y-122399999D02*
X127000000Y-122000000D01*
X127627001Y-122627001D02*
X127399999Y-122399999D01*
X127627001Y-122627001D02*
X127627001Y-123372999D01*
X127627001Y-123372999D02*
X127000000Y-124000000D01*
X124315383Y-124015383D02*
X124200000Y-123900000D01*
X125100000Y-123000000D02*
X124200000Y-123900000D01*
X127000000Y-123000000D02*
X125100000Y-123000000D01*
D17*
X131000000Y-123000000D02*
X131000000Y-124000000D01*
X131000000Y-124000000D02*
X129979847Y-125020153D01*
X127065685Y-118000000D02*
X127000000Y-118000000D01*
X132000000Y-123500000D02*
X132000000Y-122934315D01*
X132000000Y-122934315D02*
X127065685Y-118000000D01*
X127000000Y-125000000D02*
X126500000Y-125500000D01*
X126500000Y-125500000D02*
X124200000Y-125500000D01*
D18*
X128077010Y-123922990D02*
X127399999Y-124600001D01*
X127399999Y-124600001D02*
X127000000Y-125000000D01*
X128077010Y-121066704D02*
X128077010Y-123922990D01*
X127005153Y-119994847D02*
X128077010Y-121066704D01*
D19*
G36*
X137558524Y-128303110D02*
G01*
X137679845Y-128533000D01*
X138873000Y-128533000D01*
X138873000Y-128513000D01*
X139127000Y-128513000D01*
X139127000Y-128533000D01*
X139147000Y-128533000D01*
X139147000Y-128787000D01*
X139127000Y-128787000D01*
X139127000Y-128807000D01*
X138873000Y-128807000D01*
X138873000Y-128787000D01*
X137679845Y-128787000D01*
X137558524Y-129016890D01*
X137603175Y-129164099D01*
X137728359Y-129426920D01*
X137902412Y-129660269D01*
X138046336Y-129790000D01*
X134673711Y-129790000D01*
X134803937Y-129659774D01*
X134917205Y-129490256D01*
X134995226Y-129301898D01*
X135035000Y-129101939D01*
X135035000Y-129039801D01*
X135829803Y-128244999D01*
X137576150Y-128244999D01*
X137558524Y-128303110D01*
X137558524Y-128303110D01*
G37*
X137558524Y-128303110D02*
X137679845Y-128533000D01*
X138873000Y-128533000D01*
X138873000Y-128513000D01*
X139127000Y-128513000D01*
X139127000Y-128533000D01*
X139147000Y-128533000D01*
X139147000Y-128787000D01*
X139127000Y-128787000D01*
X139127000Y-128807000D01*
X138873000Y-128807000D01*
X138873000Y-128787000D01*
X137679845Y-128787000D01*
X137558524Y-129016890D01*
X137603175Y-129164099D01*
X137728359Y-129426920D01*
X137902412Y-129660269D01*
X138046336Y-129790000D01*
X134673711Y-129790000D01*
X134803937Y-129659774D01*
X134917205Y-129490256D01*
X134995226Y-129301898D01*
X135035000Y-129101939D01*
X135035000Y-129039801D01*
X135829803Y-128244999D01*
X137576150Y-128244999D01*
X137558524Y-128303110D01*
G36*
X133196063Y-117340226D02*
G01*
X133082795Y-117509744D01*
X133004774Y-117698102D01*
X132965000Y-117898061D01*
X132965000Y-118101939D01*
X133004774Y-118301898D01*
X133082795Y-118490256D01*
X133196063Y-118659774D01*
X133340226Y-118803937D01*
X133509744Y-118917205D01*
X133698102Y-118995226D01*
X133898061Y-119035000D01*
X133960199Y-119035000D01*
X135240001Y-120314803D01*
X135240000Y-122740000D01*
X135037322Y-122740000D01*
X134999999Y-122736324D01*
X134962676Y-122740000D01*
X134962667Y-122740000D01*
X134851014Y-122750997D01*
X134707753Y-122794454D01*
X134575724Y-122865026D01*
X134459999Y-122959999D01*
X134436201Y-122988997D01*
X130960199Y-126465000D01*
X130898061Y-126465000D01*
X130698102Y-126504774D01*
X130509744Y-126582795D01*
X130340226Y-126696063D01*
X130196063Y-126840226D01*
X130082795Y-127009744D01*
X130004774Y-127198102D01*
X129965000Y-127398061D01*
X129965000Y-127601939D01*
X130004774Y-127801898D01*
X130082795Y-127990256D01*
X130196063Y-128159774D01*
X130340226Y-128303937D01*
X130509744Y-128417205D01*
X130698102Y-128495226D01*
X130898061Y-128535000D01*
X131101939Y-128535000D01*
X131301898Y-128495226D01*
X131490256Y-128417205D01*
X131659774Y-128303937D01*
X131803937Y-128159774D01*
X131917205Y-127990256D01*
X131995226Y-127801898D01*
X132035000Y-127601939D01*
X132035000Y-127539801D01*
X135305545Y-124269256D01*
X135340226Y-124303937D01*
X135509744Y-124417205D01*
X135698102Y-124495226D01*
X135898061Y-124535000D01*
X136101939Y-124535000D01*
X136301898Y-124495226D01*
X136490256Y-124417205D01*
X136659774Y-124303937D01*
X136803937Y-124159774D01*
X136917205Y-123990256D01*
X136995226Y-123801898D01*
X137035000Y-123601939D01*
X137035000Y-123539801D01*
X137685206Y-122889596D01*
X137621401Y-123008966D01*
X137536487Y-123288889D01*
X137507815Y-123580000D01*
X137536487Y-123871111D01*
X137621401Y-124151034D01*
X137759294Y-124409014D01*
X137944866Y-124635134D01*
X138170986Y-124820706D01*
X138225791Y-124850000D01*
X138170986Y-124879294D01*
X137944866Y-125064866D01*
X137759294Y-125290986D01*
X137621401Y-125548966D01*
X137536487Y-125828889D01*
X137507815Y-126120000D01*
X137536487Y-126411111D01*
X137621401Y-126691034D01*
X137639556Y-126724999D01*
X135552324Y-126724999D01*
X135515001Y-126721323D01*
X135477678Y-126724999D01*
X135477668Y-126724999D01*
X135366015Y-126735996D01*
X135222754Y-126779453D01*
X135090724Y-126850025D01*
X135007084Y-126918667D01*
X134975000Y-126944998D01*
X134951202Y-126973996D01*
X133960199Y-127965000D01*
X133898061Y-127965000D01*
X133698102Y-128004774D01*
X133509744Y-128082795D01*
X133340226Y-128196063D01*
X133196063Y-128340226D01*
X133082795Y-128509744D01*
X133004774Y-128698102D01*
X132965000Y-128898061D01*
X132965000Y-129101939D01*
X133004774Y-129301898D01*
X133082795Y-129490256D01*
X133196063Y-129659774D01*
X133326289Y-129790000D01*
X126191857Y-129790000D01*
X126297421Y-129630533D01*
X126389591Y-129405282D01*
X126393462Y-129367609D01*
X126268731Y-129177000D01*
X124777000Y-129177000D01*
X124777000Y-129197000D01*
X124523000Y-129197000D01*
X124523000Y-129177000D01*
X123031269Y-129177000D01*
X122906538Y-129367609D01*
X122910409Y-129405282D01*
X123002579Y-129630533D01*
X123108143Y-129790000D01*
X121140873Y-129790000D01*
X121177373Y-129739760D01*
X121182379Y-129732109D01*
X121187472Y-129724559D01*
X121221892Y-129667273D01*
X121222875Y-129665424D01*
X121224934Y-129661517D01*
X121265623Y-129583687D01*
X121291767Y-129527109D01*
X121295193Y-129518630D01*
X121298740Y-129510192D01*
X121315903Y-129462523D01*
X121316456Y-129462707D01*
X121316458Y-129462701D01*
X121317836Y-129457154D01*
X121321358Y-129447371D01*
X121321961Y-129445374D01*
X121320845Y-129445037D01*
X121321926Y-129440687D01*
X121323242Y-129441074D01*
X121348037Y-129356828D01*
X121362702Y-129296207D01*
X121364410Y-129287251D01*
X121366246Y-129278307D01*
X121376214Y-129212466D01*
X121376419Y-129210382D01*
X121376858Y-129205748D01*
X121384818Y-129118284D01*
X121387388Y-129056940D01*
X121388072Y-129050000D01*
X121388072Y-128880000D01*
X123003131Y-128880000D01*
X123031269Y-128923000D01*
X124523000Y-128923000D01*
X124523000Y-127815000D01*
X124777000Y-127815000D01*
X124777000Y-128923000D01*
X126268731Y-128923000D01*
X126393462Y-128732391D01*
X126389591Y-128694718D01*
X126297421Y-128469467D01*
X126163078Y-128266526D01*
X125991725Y-128093693D01*
X125789946Y-127957610D01*
X125565496Y-127863507D01*
X125327000Y-127815000D01*
X124777000Y-127815000D01*
X124523000Y-127815000D01*
X124360000Y-127815000D01*
X124360000Y-126421491D01*
X124472729Y-126399068D01*
X124642889Y-126328586D01*
X124745535Y-126260000D01*
X126462678Y-126260000D01*
X126500000Y-126263676D01*
X126537322Y-126260000D01*
X126537333Y-126260000D01*
X126648986Y-126249003D01*
X126792247Y-126205546D01*
X126924276Y-126134974D01*
X127040001Y-126040001D01*
X127044105Y-126035000D01*
X127101939Y-126035000D01*
X127301898Y-125995226D01*
X127490256Y-125917205D01*
X127659774Y-125803937D01*
X127803937Y-125659774D01*
X127917205Y-125490256D01*
X127995226Y-125301898D01*
X128035000Y-125101939D01*
X128035000Y-125004446D01*
X128571203Y-124468244D01*
X128599248Y-124445228D01*
X128691097Y-124333310D01*
X128759347Y-124205623D01*
X128788626Y-124109104D01*
X128801375Y-124067076D01*
X128803639Y-124044085D01*
X128812010Y-123959095D01*
X128812010Y-123959088D01*
X128815565Y-123922991D01*
X128812010Y-123886894D01*
X128812010Y-121102809D01*
X128815566Y-121066704D01*
X128801375Y-120922619D01*
X128759347Y-120784070D01*
X128741426Y-120750543D01*
X130263586Y-122272703D01*
X130196063Y-122340226D01*
X130082795Y-122509744D01*
X130004774Y-122698102D01*
X129965000Y-122898061D01*
X129965000Y-123101939D01*
X130004774Y-123301898D01*
X130082795Y-123490256D01*
X130196063Y-123659774D01*
X130230744Y-123694455D01*
X129940046Y-123985153D01*
X129877908Y-123985153D01*
X129677949Y-124024927D01*
X129489591Y-124102948D01*
X129320073Y-124216216D01*
X129175910Y-124360379D01*
X129062642Y-124529897D01*
X128984621Y-124718255D01*
X128944847Y-124918214D01*
X128944847Y-125122092D01*
X128984621Y-125322051D01*
X129062642Y-125510409D01*
X129175910Y-125679927D01*
X129320073Y-125824090D01*
X129489591Y-125937358D01*
X129677949Y-126015379D01*
X129877908Y-126055153D01*
X130081786Y-126055153D01*
X130281745Y-126015379D01*
X130470103Y-125937358D01*
X130639621Y-125824090D01*
X130783784Y-125679927D01*
X130897052Y-125510409D01*
X130975073Y-125322051D01*
X131014847Y-125122092D01*
X131014847Y-125059954D01*
X131511003Y-124563799D01*
X131540001Y-124540001D01*
X131607534Y-124457711D01*
X131698102Y-124495226D01*
X131898061Y-124535000D01*
X132101939Y-124535000D01*
X132301898Y-124495226D01*
X132490256Y-124417205D01*
X132659774Y-124303937D01*
X132803937Y-124159774D01*
X132917205Y-123990256D01*
X132995226Y-123801898D01*
X133035000Y-123601939D01*
X133035000Y-123398061D01*
X132995226Y-123198102D01*
X132917205Y-123009744D01*
X132803937Y-122840226D01*
X132748987Y-122785276D01*
X132705546Y-122642068D01*
X132634974Y-122510039D01*
X132540001Y-122394314D01*
X132511003Y-122370516D01*
X128034119Y-117893633D01*
X127995226Y-117698102D01*
X127917205Y-117509744D01*
X127803937Y-117340226D01*
X127673711Y-117210000D01*
X133326289Y-117210000D01*
X133196063Y-117340226D01*
X133196063Y-117340226D01*
G37*
X133196063Y-117340226D02*
X133082795Y-117509744D01*
X133004774Y-117698102D01*
X132965000Y-117898061D01*
X132965000Y-118101939D01*
X133004774Y-118301898D01*
X133082795Y-118490256D01*
X133196063Y-118659774D01*
X133340226Y-118803937D01*
X133509744Y-118917205D01*
X133698102Y-118995226D01*
X133898061Y-119035000D01*
X133960199Y-119035000D01*
X135240001Y-120314803D01*
X135240000Y-122740000D01*
X135037322Y-122740000D01*
X134999999Y-122736324D01*
X134962676Y-122740000D01*
X134962667Y-122740000D01*
X134851014Y-122750997D01*
X134707753Y-122794454D01*
X134575724Y-122865026D01*
X134459999Y-122959999D01*
X134436201Y-122988997D01*
X130960199Y-126465000D01*
X130898061Y-126465000D01*
X130698102Y-126504774D01*
X130509744Y-126582795D01*
X130340226Y-126696063D01*
X130196063Y-126840226D01*
X130082795Y-127009744D01*
X130004774Y-127198102D01*
X129965000Y-127398061D01*
X129965000Y-127601939D01*
X130004774Y-127801898D01*
X130082795Y-127990256D01*
X130196063Y-128159774D01*
X130340226Y-128303937D01*
X130509744Y-128417205D01*
X130698102Y-128495226D01*
X130898061Y-128535000D01*
X131101939Y-128535000D01*
X131301898Y-128495226D01*
X131490256Y-128417205D01*
X131659774Y-128303937D01*
X131803937Y-128159774D01*
X131917205Y-127990256D01*
X131995226Y-127801898D01*
X132035000Y-127601939D01*
X132035000Y-127539801D01*
X135305545Y-124269256D01*
X135340226Y-124303937D01*
X135509744Y-124417205D01*
X135698102Y-124495226D01*
X135898061Y-124535000D01*
X136101939Y-124535000D01*
X136301898Y-124495226D01*
X136490256Y-124417205D01*
X136659774Y-124303937D01*
X136803937Y-124159774D01*
X136917205Y-123990256D01*
X136995226Y-123801898D01*
X137035000Y-123601939D01*
X137035000Y-123539801D01*
X137685206Y-122889596D01*
X137621401Y-123008966D01*
X137536487Y-123288889D01*
X137507815Y-123580000D01*
X137536487Y-123871111D01*
X137621401Y-124151034D01*
X137759294Y-124409014D01*
X137944866Y-124635134D01*
X138170986Y-124820706D01*
X138225791Y-124850000D01*
X138170986Y-124879294D01*
X137944866Y-125064866D01*
X137759294Y-125290986D01*
X137621401Y-125548966D01*
X137536487Y-125828889D01*
X137507815Y-126120000D01*
X137536487Y-126411111D01*
X137621401Y-126691034D01*
X137639556Y-126724999D01*
X135552324Y-126724999D01*
X135515001Y-126721323D01*
X135477678Y-126724999D01*
X135477668Y-126724999D01*
X135366015Y-126735996D01*
X135222754Y-126779453D01*
X135090724Y-126850025D01*
X135007084Y-126918667D01*
X134975000Y-126944998D01*
X134951202Y-126973996D01*
X133960199Y-127965000D01*
X133898061Y-127965000D01*
X133698102Y-128004774D01*
X133509744Y-128082795D01*
X133340226Y-128196063D01*
X133196063Y-128340226D01*
X133082795Y-128509744D01*
X133004774Y-128698102D01*
X132965000Y-128898061D01*
X132965000Y-129101939D01*
X133004774Y-129301898D01*
X133082795Y-129490256D01*
X133196063Y-129659774D01*
X133326289Y-129790000D01*
X126191857Y-129790000D01*
X126297421Y-129630533D01*
X126389591Y-129405282D01*
X126393462Y-129367609D01*
X126268731Y-129177000D01*
X124777000Y-129177000D01*
X124777000Y-129197000D01*
X124523000Y-129197000D01*
X124523000Y-129177000D01*
X123031269Y-129177000D01*
X122906538Y-129367609D01*
X122910409Y-129405282D01*
X123002579Y-129630533D01*
X123108143Y-129790000D01*
X121140873Y-129790000D01*
X121177373Y-129739760D01*
X121182379Y-129732109D01*
X121187472Y-129724559D01*
X121221892Y-129667273D01*
X121222875Y-129665424D01*
X121224934Y-129661517D01*
X121265623Y-129583687D01*
X121291767Y-129527109D01*
X121295193Y-129518630D01*
X121298740Y-129510192D01*
X121315903Y-129462523D01*
X121316456Y-129462707D01*
X121316458Y-129462701D01*
X121317836Y-129457154D01*
X121321358Y-129447371D01*
X121321961Y-129445374D01*
X121320845Y-129445037D01*
X121321926Y-129440687D01*
X121323242Y-129441074D01*
X121348037Y-129356828D01*
X121362702Y-129296207D01*
X121364410Y-129287251D01*
X121366246Y-129278307D01*
X121376214Y-129212466D01*
X121376419Y-129210382D01*
X121376858Y-129205748D01*
X121384818Y-129118284D01*
X121387388Y-129056940D01*
X121388072Y-129050000D01*
X121388072Y-128880000D01*
X123003131Y-128880000D01*
X123031269Y-128923000D01*
X124523000Y-128923000D01*
X124523000Y-127815000D01*
X124777000Y-127815000D01*
X124777000Y-128923000D01*
X126268731Y-128923000D01*
X126393462Y-128732391D01*
X126389591Y-128694718D01*
X126297421Y-128469467D01*
X126163078Y-128266526D01*
X125991725Y-128093693D01*
X125789946Y-127957610D01*
X125565496Y-127863507D01*
X125327000Y-127815000D01*
X124777000Y-127815000D01*
X124523000Y-127815000D01*
X124360000Y-127815000D01*
X124360000Y-126421491D01*
X124472729Y-126399068D01*
X124642889Y-126328586D01*
X124745535Y-126260000D01*
X126462678Y-126260000D01*
X126500000Y-126263676D01*
X126537322Y-126260000D01*
X126537333Y-126260000D01*
X126648986Y-126249003D01*
X126792247Y-126205546D01*
X126924276Y-126134974D01*
X127040001Y-126040001D01*
X127044105Y-126035000D01*
X127101939Y-126035000D01*
X127301898Y-125995226D01*
X127490256Y-125917205D01*
X127659774Y-125803937D01*
X127803937Y-125659774D01*
X127917205Y-125490256D01*
X127995226Y-125301898D01*
X128035000Y-125101939D01*
X128035000Y-125004446D01*
X128571203Y-124468244D01*
X128599248Y-124445228D01*
X128691097Y-124333310D01*
X128759347Y-124205623D01*
X128788626Y-124109104D01*
X128801375Y-124067076D01*
X128803639Y-124044085D01*
X128812010Y-123959095D01*
X128812010Y-123959088D01*
X128815565Y-123922991D01*
X128812010Y-123886894D01*
X128812010Y-121102809D01*
X128815566Y-121066704D01*
X128801375Y-120922619D01*
X128759347Y-120784070D01*
X128741426Y-120750543D01*
X130263586Y-122272703D01*
X130196063Y-122340226D01*
X130082795Y-122509744D01*
X130004774Y-122698102D01*
X129965000Y-122898061D01*
X129965000Y-123101939D01*
X130004774Y-123301898D01*
X130082795Y-123490256D01*
X130196063Y-123659774D01*
X130230744Y-123694455D01*
X129940046Y-123985153D01*
X129877908Y-123985153D01*
X129677949Y-124024927D01*
X129489591Y-124102948D01*
X129320073Y-124216216D01*
X129175910Y-124360379D01*
X129062642Y-124529897D01*
X128984621Y-124718255D01*
X128944847Y-124918214D01*
X128944847Y-125122092D01*
X128984621Y-125322051D01*
X129062642Y-125510409D01*
X129175910Y-125679927D01*
X129320073Y-125824090D01*
X129489591Y-125937358D01*
X129677949Y-126015379D01*
X129877908Y-126055153D01*
X130081786Y-126055153D01*
X130281745Y-126015379D01*
X130470103Y-125937358D01*
X130639621Y-125824090D01*
X130783784Y-125679927D01*
X130897052Y-125510409D01*
X130975073Y-125322051D01*
X131014847Y-125122092D01*
X131014847Y-125059954D01*
X131511003Y-124563799D01*
X131540001Y-124540001D01*
X131607534Y-124457711D01*
X131698102Y-124495226D01*
X131898061Y-124535000D01*
X132101939Y-124535000D01*
X132301898Y-124495226D01*
X132490256Y-124417205D01*
X132659774Y-124303937D01*
X132803937Y-124159774D01*
X132917205Y-123990256D01*
X132995226Y-123801898D01*
X133035000Y-123601939D01*
X133035000Y-123398061D01*
X132995226Y-123198102D01*
X132917205Y-123009744D01*
X132803937Y-122840226D01*
X132748987Y-122785276D01*
X132705546Y-122642068D01*
X132634974Y-122510039D01*
X132540001Y-122394314D01*
X132511003Y-122370516D01*
X128034119Y-117893633D01*
X127995226Y-117698102D01*
X127917205Y-117509744D01*
X127803937Y-117340226D01*
X127673711Y-117210000D01*
X133326289Y-117210000D01*
X133196063Y-117340226D01*
G36*
X123002579Y-117369467D02*
G01*
X122910409Y-117594718D01*
X122906538Y-117632391D01*
X123031269Y-117823000D01*
X124523000Y-117823000D01*
X124523000Y-117803000D01*
X124777000Y-117803000D01*
X124777000Y-117823000D01*
X124797000Y-117823000D01*
X124797000Y-118077000D01*
X124777000Y-118077000D01*
X124777000Y-119185000D01*
X125327000Y-119185000D01*
X125565496Y-119136493D01*
X125789946Y-119042390D01*
X125991725Y-118906307D01*
X126163078Y-118733474D01*
X126205572Y-118669283D01*
X126340226Y-118803937D01*
X126509744Y-118917205D01*
X126698102Y-118995226D01*
X126711726Y-118997936D01*
X126703255Y-118999621D01*
X126514897Y-119077642D01*
X126345379Y-119190910D01*
X126201216Y-119335073D01*
X126087948Y-119504591D01*
X126009927Y-119692949D01*
X125970153Y-119892908D01*
X125970153Y-120096786D01*
X126009927Y-120296745D01*
X126087948Y-120485103D01*
X126201216Y-120654621D01*
X126345379Y-120798784D01*
X126514897Y-120912052D01*
X126703255Y-120990073D01*
X126737632Y-120996911D01*
X126698102Y-121004774D01*
X126509744Y-121082795D01*
X126340226Y-121196063D01*
X126271289Y-121265000D01*
X125336104Y-121265000D01*
X125299999Y-121261444D01*
X125155914Y-121275635D01*
X125113886Y-121288384D01*
X125111376Y-121289146D01*
X125099068Y-121227271D01*
X125028586Y-121057111D01*
X124926262Y-120903972D01*
X124796028Y-120773738D01*
X124642889Y-120671414D01*
X124472729Y-120600932D01*
X124360000Y-120578509D01*
X124360000Y-119185000D01*
X124523000Y-119185000D01*
X124523000Y-118077000D01*
X123031269Y-118077000D01*
X123003131Y-118120000D01*
X121388072Y-118120000D01*
X121388072Y-117950000D01*
X121387391Y-117943081D01*
X121387428Y-117937687D01*
X121384408Y-117871100D01*
X121384204Y-117869016D01*
X121383744Y-117864483D01*
X121374564Y-117777140D01*
X121365029Y-117715547D01*
X121363181Y-117706543D01*
X121361469Y-117697571D01*
X121345657Y-117633116D01*
X121345053Y-117631111D01*
X121343634Y-117626465D01*
X121317662Y-117542568D01*
X121296345Y-117484000D01*
X121292818Y-117475610D01*
X121289377Y-117467093D01*
X121261170Y-117406599D01*
X121260187Y-117404750D01*
X121258069Y-117400800D01*
X121216298Y-117323544D01*
X121183997Y-117270209D01*
X121178853Y-117262584D01*
X121173877Y-117254979D01*
X121140966Y-117210000D01*
X123108143Y-117210000D01*
X123002579Y-117369467D01*
X123002579Y-117369467D01*
G37*
X123002579Y-117369467D02*
X122910409Y-117594718D01*
X122906538Y-117632391D01*
X123031269Y-117823000D01*
X124523000Y-117823000D01*
X124523000Y-117803000D01*
X124777000Y-117803000D01*
X124777000Y-117823000D01*
X124797000Y-117823000D01*
X124797000Y-118077000D01*
X124777000Y-118077000D01*
X124777000Y-119185000D01*
X125327000Y-119185000D01*
X125565496Y-119136493D01*
X125789946Y-119042390D01*
X125991725Y-118906307D01*
X126163078Y-118733474D01*
X126205572Y-118669283D01*
X126340226Y-118803937D01*
X126509744Y-118917205D01*
X126698102Y-118995226D01*
X126711726Y-118997936D01*
X126703255Y-118999621D01*
X126514897Y-119077642D01*
X126345379Y-119190910D01*
X126201216Y-119335073D01*
X126087948Y-119504591D01*
X126009927Y-119692949D01*
X125970153Y-119892908D01*
X125970153Y-120096786D01*
X126009927Y-120296745D01*
X126087948Y-120485103D01*
X126201216Y-120654621D01*
X126345379Y-120798784D01*
X126514897Y-120912052D01*
X126703255Y-120990073D01*
X126737632Y-120996911D01*
X126698102Y-121004774D01*
X126509744Y-121082795D01*
X126340226Y-121196063D01*
X126271289Y-121265000D01*
X125336104Y-121265000D01*
X125299999Y-121261444D01*
X125155914Y-121275635D01*
X125113886Y-121288384D01*
X125111376Y-121289146D01*
X125099068Y-121227271D01*
X125028586Y-121057111D01*
X124926262Y-120903972D01*
X124796028Y-120773738D01*
X124642889Y-120671414D01*
X124472729Y-120600932D01*
X124360000Y-120578509D01*
X124360000Y-119185000D01*
X124523000Y-119185000D01*
X124523000Y-118077000D01*
X123031269Y-118077000D01*
X123003131Y-118120000D01*
X121388072Y-118120000D01*
X121388072Y-117950000D01*
X121387391Y-117943081D01*
X121387428Y-117937687D01*
X121384408Y-117871100D01*
X121384204Y-117869016D01*
X121383744Y-117864483D01*
X121374564Y-117777140D01*
X121365029Y-117715547D01*
X121363181Y-117706543D01*
X121361469Y-117697571D01*
X121345657Y-117633116D01*
X121345053Y-117631111D01*
X121343634Y-117626465D01*
X121317662Y-117542568D01*
X121296345Y-117484000D01*
X121292818Y-117475610D01*
X121289377Y-117467093D01*
X121261170Y-117406599D01*
X121260187Y-117404750D01*
X121258069Y-117400800D01*
X121216298Y-117323544D01*
X121183997Y-117270209D01*
X121178853Y-117262584D01*
X121173877Y-117254979D01*
X121140966Y-117210000D01*
X123108143Y-117210000D01*
X123002579Y-117369467D01*
M02*
