G04 #@! TF.GenerationSoftware,KiCad,Pcbnew,5.1.1*
G04 #@! TF.CreationDate,2019-04-20T22:30:45+02:00*
G04 #@! TF.ProjectId,darling,6461726c-696e-4672-9e6b-696361645f70,rev?*
G04 #@! TF.SameCoordinates,Original*
G04 #@! TF.FileFunction,Soldermask,Bot*
G04 #@! TF.FilePolarity,Negative*
%FSLAX46Y46*%
G04 Gerber Fmt 4.6, Leading zero omitted, Abs format (unit mm)*
G04 Created by KiCad (PCBNEW 5.1.1) date 2019-04-20 22:30:45*
%MOMM*%
%LPD*%
G04 APERTURE LIST*
%ADD10C,0.100000*%
G04 APERTURE END LIST*
D10*
G36*
X120759802Y-128250723D02*
G01*
X120769225Y-128253581D01*
X120769227Y-128253582D01*
X120777913Y-128258225D01*
X120777914Y-128258226D01*
X120777916Y-128258227D01*
X120785527Y-128264473D01*
X120791773Y-128272084D01*
X120796419Y-128280775D01*
X120799277Y-128290198D01*
X120800847Y-128306141D01*
X120800847Y-129043856D01*
X120800798Y-129044354D01*
X120800358Y-129053988D01*
X120800325Y-129053987D01*
X120799734Y-129068089D01*
X120792110Y-129151851D01*
X120790356Y-129163440D01*
X120788528Y-129172346D01*
X120788189Y-129174058D01*
X120786449Y-129183181D01*
X120783838Y-129193971D01*
X120760103Y-129274617D01*
X120756129Y-129285653D01*
X120752613Y-129294019D01*
X120751952Y-129295623D01*
X120748456Y-129304274D01*
X120743806Y-129314337D01*
X120704864Y-129388825D01*
X120698815Y-129398894D01*
X120693745Y-129406410D01*
X120692770Y-129407877D01*
X120687664Y-129415680D01*
X120681163Y-129424630D01*
X120628477Y-129490158D01*
X120620599Y-129498845D01*
X120614138Y-129505261D01*
X120612909Y-129506498D01*
X120606388Y-129513157D01*
X120598279Y-129520666D01*
X120533839Y-129574738D01*
X120524472Y-129581692D01*
X120516844Y-129586760D01*
X120515405Y-129587731D01*
X120507743Y-129592977D01*
X120498324Y-129598772D01*
X120424601Y-129639302D01*
X120414079Y-129644296D01*
X120405655Y-129647768D01*
X120404046Y-129648445D01*
X120395474Y-129652119D01*
X120385086Y-129655982D01*
X120304962Y-129681398D01*
X120293572Y-129684280D01*
X120284649Y-129686047D01*
X120282939Y-129686398D01*
X120273854Y-129688329D01*
X120262908Y-129690102D01*
X120179378Y-129699472D01*
X120169084Y-129700012D01*
X120168653Y-129700035D01*
X120154632Y-129700819D01*
X120151535Y-129700841D01*
X120150953Y-129700843D01*
X120150082Y-129700843D01*
X120149917Y-129700847D01*
X119050700Y-129700847D01*
X119040439Y-129700237D01*
X119039130Y-129700166D01*
X119027347Y-129699589D01*
X118943703Y-129691388D01*
X118932103Y-129689550D01*
X118923226Y-129687664D01*
X118921520Y-129687314D01*
X118912364Y-129685501D01*
X118901625Y-129682824D01*
X118821376Y-129658596D01*
X118821085Y-129658503D01*
X118810120Y-129654469D01*
X118801713Y-129650866D01*
X118800104Y-129650190D01*
X118791549Y-129646664D01*
X118781518Y-129641944D01*
X118707319Y-129602492D01*
X118697282Y-129596365D01*
X118689849Y-129591275D01*
X118688400Y-129590298D01*
X118680586Y-129585107D01*
X118671654Y-129578521D01*
X118606514Y-129525393D01*
X118597882Y-129517455D01*
X118591516Y-129510955D01*
X118590297Y-129509728D01*
X118583681Y-129503157D01*
X118576215Y-129494979D01*
X118522612Y-129430186D01*
X118515697Y-129420736D01*
X118510724Y-129413137D01*
X118509759Y-129411685D01*
X118504545Y-129403955D01*
X118498809Y-129394484D01*
X118458797Y-129320483D01*
X118453867Y-129309904D01*
X118450461Y-129301474D01*
X118449798Y-129299866D01*
X118446182Y-129291263D01*
X118442396Y-129280860D01*
X118417466Y-129200324D01*
X118417290Y-129199549D01*
X118414734Y-129189146D01*
X118413027Y-129180201D01*
X118412691Y-129178505D01*
X118410818Y-129169379D01*
X118409125Y-129158440D01*
X118400337Y-129074830D01*
X118399806Y-129063114D01*
X118399842Y-129057893D01*
X118399243Y-129044771D01*
X118399153Y-129043857D01*
X118399153Y-128306141D01*
X118400723Y-128290198D01*
X118403581Y-128280775D01*
X118408227Y-128272084D01*
X118414473Y-128264473D01*
X118422084Y-128258227D01*
X118422086Y-128258226D01*
X118422087Y-128258225D01*
X118430773Y-128253582D01*
X118430775Y-128253581D01*
X118440198Y-128250723D01*
X118456141Y-128249153D01*
X120743859Y-128249153D01*
X120759802Y-128250723D01*
X120759802Y-128250723D01*
G37*
G36*
X125315486Y-128408229D02*
G01*
X125327423Y-128409405D01*
X125388685Y-128427989D01*
X125449948Y-128446573D01*
X125562868Y-128506930D01*
X125661843Y-128588157D01*
X125743070Y-128687132D01*
X125803427Y-128800052D01*
X125840595Y-128922578D01*
X125853145Y-129050000D01*
X125843052Y-129152471D01*
X125840595Y-129177423D01*
X125839752Y-129180201D01*
X125803427Y-129299948D01*
X125743070Y-129412868D01*
X125661843Y-129511843D01*
X125562868Y-129593070D01*
X125449948Y-129653427D01*
X125388685Y-129672011D01*
X125327423Y-129690595D01*
X125319371Y-129691388D01*
X125231932Y-129700000D01*
X124068068Y-129700000D01*
X123980629Y-129691388D01*
X123972577Y-129690595D01*
X123911315Y-129672011D01*
X123850052Y-129653427D01*
X123737132Y-129593070D01*
X123638157Y-129511843D01*
X123556930Y-129412868D01*
X123496573Y-129299948D01*
X123460248Y-129180201D01*
X123459405Y-129177423D01*
X123456948Y-129152471D01*
X123446855Y-129050000D01*
X123459405Y-128922578D01*
X123496573Y-128800052D01*
X123556930Y-128687132D01*
X123638157Y-128588157D01*
X123737132Y-128506930D01*
X123850052Y-128446573D01*
X123911315Y-128427989D01*
X123972577Y-128409405D01*
X123984514Y-128408229D01*
X124068068Y-128400000D01*
X125231932Y-128400000D01*
X125315486Y-128408229D01*
X125315486Y-128408229D01*
G37*
G36*
X139110443Y-127765519D02*
G01*
X139176627Y-127772037D01*
X139346466Y-127823557D01*
X139502991Y-127907222D01*
X139538729Y-127936552D01*
X139640186Y-128019814D01*
X139723448Y-128121271D01*
X139752778Y-128157009D01*
X139752779Y-128157011D01*
X139806880Y-128258225D01*
X139836443Y-128313534D01*
X139887963Y-128483373D01*
X139905359Y-128660000D01*
X139887963Y-128836627D01*
X139861890Y-128922577D01*
X139836442Y-129006468D01*
X139807774Y-129060102D01*
X139752778Y-129162991D01*
X139738654Y-129180201D01*
X139640186Y-129300186D01*
X139538729Y-129383448D01*
X139502991Y-129412778D01*
X139346466Y-129496443D01*
X139176627Y-129547963D01*
X139110443Y-129554481D01*
X139044260Y-129561000D01*
X138955740Y-129561000D01*
X138889557Y-129554481D01*
X138823373Y-129547963D01*
X138653534Y-129496443D01*
X138497009Y-129412778D01*
X138461271Y-129383448D01*
X138359814Y-129300186D01*
X138261346Y-129180201D01*
X138247222Y-129162991D01*
X138192226Y-129060102D01*
X138163558Y-129006468D01*
X138138110Y-128922577D01*
X138112037Y-128836627D01*
X138094641Y-128660000D01*
X138112037Y-128483373D01*
X138163557Y-128313534D01*
X138193121Y-128258225D01*
X138247221Y-128157011D01*
X138247222Y-128157009D01*
X138276552Y-128121271D01*
X138359814Y-128019814D01*
X138461271Y-127936552D01*
X138497009Y-127907222D01*
X138653534Y-127823557D01*
X138823373Y-127772037D01*
X138889557Y-127765519D01*
X138955740Y-127759000D01*
X139044260Y-127759000D01*
X139110443Y-127765519D01*
X139110443Y-127765519D01*
G37*
G36*
X139110442Y-125225518D02*
G01*
X139176627Y-125232037D01*
X139346466Y-125283557D01*
X139502991Y-125367222D01*
X139538729Y-125396552D01*
X139640186Y-125479814D01*
X139723448Y-125581271D01*
X139752778Y-125617009D01*
X139836443Y-125773534D01*
X139887963Y-125943373D01*
X139905359Y-126120000D01*
X139887963Y-126296627D01*
X139836443Y-126466466D01*
X139752778Y-126622991D01*
X139723448Y-126658729D01*
X139640186Y-126760186D01*
X139538729Y-126843448D01*
X139502991Y-126872778D01*
X139346466Y-126956443D01*
X139176627Y-127007963D01*
X139110442Y-127014482D01*
X139044260Y-127021000D01*
X138955740Y-127021000D01*
X138889558Y-127014482D01*
X138823373Y-127007963D01*
X138653534Y-126956443D01*
X138497009Y-126872778D01*
X138461271Y-126843448D01*
X138359814Y-126760186D01*
X138276552Y-126658729D01*
X138247222Y-126622991D01*
X138163557Y-126466466D01*
X138112037Y-126296627D01*
X138094641Y-126120000D01*
X138112037Y-125943373D01*
X138163557Y-125773534D01*
X138247222Y-125617009D01*
X138276552Y-125581271D01*
X138359814Y-125479814D01*
X138461271Y-125396552D01*
X138497009Y-125367222D01*
X138653534Y-125283557D01*
X138823373Y-125232037D01*
X138889558Y-125225518D01*
X138955740Y-125219000D01*
X139044260Y-125219000D01*
X139110442Y-125225518D01*
X139110442Y-125225518D01*
G37*
G36*
X124251377Y-121153363D02*
G01*
X124302091Y-121163450D01*
X124365787Y-121189834D01*
X124423112Y-121228137D01*
X124471863Y-121276888D01*
X124510166Y-121334213D01*
X124536550Y-121397909D01*
X124546637Y-121448623D01*
X124550000Y-121465527D01*
X124550000Y-121534473D01*
X124546637Y-121551377D01*
X124536550Y-121602091D01*
X124510166Y-121665787D01*
X124471863Y-121723112D01*
X124423112Y-121771863D01*
X124423109Y-121771865D01*
X124386888Y-121796067D01*
X124367946Y-121811612D01*
X124352400Y-121830554D01*
X124340849Y-121852165D01*
X124333736Y-121875613D01*
X124331334Y-121900000D01*
X124333736Y-121924386D01*
X124340849Y-121947835D01*
X124352400Y-121969445D01*
X124367945Y-121988387D01*
X124386888Y-122003933D01*
X124423112Y-122028137D01*
X124471863Y-122076888D01*
X124510166Y-122134213D01*
X124536550Y-122197909D01*
X124550000Y-122265528D01*
X124550000Y-122334472D01*
X124536550Y-122402091D01*
X124510166Y-122465787D01*
X124471863Y-122523112D01*
X124423112Y-122571863D01*
X124423109Y-122571865D01*
X124386888Y-122596067D01*
X124367946Y-122611612D01*
X124352400Y-122630554D01*
X124340849Y-122652165D01*
X124333736Y-122675613D01*
X124331334Y-122700000D01*
X124333736Y-122724386D01*
X124340849Y-122747835D01*
X124352400Y-122769445D01*
X124367945Y-122788387D01*
X124386888Y-122803933D01*
X124423112Y-122828137D01*
X124471863Y-122876888D01*
X124510166Y-122934213D01*
X124536550Y-122997909D01*
X124550000Y-123065528D01*
X124550000Y-123134472D01*
X124536550Y-123202091D01*
X124510166Y-123265787D01*
X124471863Y-123323112D01*
X124423112Y-123371863D01*
X124423109Y-123371865D01*
X124386888Y-123396067D01*
X124367946Y-123411612D01*
X124352400Y-123430554D01*
X124340849Y-123452165D01*
X124333736Y-123475613D01*
X124331334Y-123500000D01*
X124333736Y-123524386D01*
X124340849Y-123547835D01*
X124352400Y-123569445D01*
X124367945Y-123588387D01*
X124386888Y-123603933D01*
X124423112Y-123628137D01*
X124471863Y-123676888D01*
X124510166Y-123734213D01*
X124536550Y-123797909D01*
X124550000Y-123865528D01*
X124550000Y-123934472D01*
X124536550Y-124002091D01*
X124510166Y-124065787D01*
X124471863Y-124123112D01*
X124423112Y-124171863D01*
X124423109Y-124171865D01*
X124386888Y-124196067D01*
X124367946Y-124211612D01*
X124352400Y-124230554D01*
X124340849Y-124252165D01*
X124333736Y-124275613D01*
X124331334Y-124300000D01*
X124333736Y-124324386D01*
X124340849Y-124347835D01*
X124352400Y-124369445D01*
X124367945Y-124388387D01*
X124386888Y-124403933D01*
X124423112Y-124428137D01*
X124471863Y-124476888D01*
X124510166Y-124534213D01*
X124536550Y-124597909D01*
X124550000Y-124665528D01*
X124550000Y-124734472D01*
X124536550Y-124802091D01*
X124510166Y-124865787D01*
X124471863Y-124923112D01*
X124423112Y-124971863D01*
X124423109Y-124971865D01*
X124386888Y-124996067D01*
X124367946Y-125011612D01*
X124352400Y-125030554D01*
X124340849Y-125052165D01*
X124333736Y-125075613D01*
X124331334Y-125100000D01*
X124333736Y-125124386D01*
X124340849Y-125147835D01*
X124352400Y-125169445D01*
X124367945Y-125188387D01*
X124386888Y-125203933D01*
X124423112Y-125228137D01*
X124471863Y-125276888D01*
X124510166Y-125334213D01*
X124536550Y-125397909D01*
X124550000Y-125465528D01*
X124550000Y-125534472D01*
X124536550Y-125602091D01*
X124510166Y-125665787D01*
X124471863Y-125723112D01*
X124423112Y-125771863D01*
X124365787Y-125810166D01*
X124302091Y-125836550D01*
X124251377Y-125846638D01*
X124234473Y-125850000D01*
X124165527Y-125850000D01*
X124148623Y-125846638D01*
X124097909Y-125836550D01*
X124034213Y-125810166D01*
X123976888Y-125771863D01*
X123928137Y-125723112D01*
X123889834Y-125665787D01*
X123863450Y-125602091D01*
X123850000Y-125534472D01*
X123850000Y-125465528D01*
X123863450Y-125397909D01*
X123889834Y-125334213D01*
X123928137Y-125276888D01*
X123976888Y-125228137D01*
X124013112Y-125203933D01*
X124032054Y-125188388D01*
X124047600Y-125169446D01*
X124059151Y-125147835D01*
X124066264Y-125124387D01*
X124068666Y-125100000D01*
X124066264Y-125075614D01*
X124059151Y-125052165D01*
X124047600Y-125030555D01*
X124032055Y-125011613D01*
X124013112Y-124996067D01*
X123976891Y-124971865D01*
X123976888Y-124971863D01*
X123928137Y-124923112D01*
X123889834Y-124865787D01*
X123863450Y-124802091D01*
X123850000Y-124734472D01*
X123850000Y-124665528D01*
X123863450Y-124597909D01*
X123889834Y-124534213D01*
X123928137Y-124476888D01*
X123976888Y-124428137D01*
X124013112Y-124403933D01*
X124032054Y-124388388D01*
X124047600Y-124369446D01*
X124059151Y-124347835D01*
X124066264Y-124324387D01*
X124068666Y-124300000D01*
X124066264Y-124275614D01*
X124059151Y-124252165D01*
X124047600Y-124230555D01*
X124032055Y-124211613D01*
X124013112Y-124196067D01*
X123976891Y-124171865D01*
X123976888Y-124171863D01*
X123928137Y-124123112D01*
X123889834Y-124065787D01*
X123863450Y-124002091D01*
X123850000Y-123934472D01*
X123850000Y-123865528D01*
X123863450Y-123797909D01*
X123889834Y-123734213D01*
X123928137Y-123676888D01*
X123976888Y-123628137D01*
X124013112Y-123603933D01*
X124032054Y-123588388D01*
X124047600Y-123569446D01*
X124059151Y-123547835D01*
X124066264Y-123524387D01*
X124068666Y-123500000D01*
X124066264Y-123475614D01*
X124059151Y-123452165D01*
X124047600Y-123430555D01*
X124032055Y-123411613D01*
X124013112Y-123396067D01*
X123976891Y-123371865D01*
X123976888Y-123371863D01*
X123928137Y-123323112D01*
X123889834Y-123265787D01*
X123863450Y-123202091D01*
X123850000Y-123134472D01*
X123850000Y-123065528D01*
X123863450Y-122997909D01*
X123889834Y-122934213D01*
X123928137Y-122876888D01*
X123976888Y-122828137D01*
X124013112Y-122803933D01*
X124032054Y-122788388D01*
X124047600Y-122769446D01*
X124059151Y-122747835D01*
X124066264Y-122724387D01*
X124068666Y-122700000D01*
X124066264Y-122675614D01*
X124059151Y-122652165D01*
X124047600Y-122630555D01*
X124032055Y-122611613D01*
X124013112Y-122596067D01*
X123976891Y-122571865D01*
X123976888Y-122571863D01*
X123928137Y-122523112D01*
X123889834Y-122465787D01*
X123863450Y-122402091D01*
X123850000Y-122334472D01*
X123850000Y-122265528D01*
X123863450Y-122197909D01*
X123889834Y-122134213D01*
X123928137Y-122076888D01*
X123976888Y-122028137D01*
X124013112Y-122003933D01*
X124032054Y-121988388D01*
X124047600Y-121969446D01*
X124059151Y-121947835D01*
X124066264Y-121924387D01*
X124068666Y-121900000D01*
X124066264Y-121875614D01*
X124059151Y-121852165D01*
X124047600Y-121830555D01*
X124032055Y-121811613D01*
X124013112Y-121796067D01*
X123976891Y-121771865D01*
X123976888Y-121771863D01*
X123928137Y-121723112D01*
X123889834Y-121665787D01*
X123863450Y-121602091D01*
X123853363Y-121551377D01*
X123850000Y-121534473D01*
X123850000Y-121465527D01*
X123853363Y-121448623D01*
X123863450Y-121397909D01*
X123889834Y-121334213D01*
X123928137Y-121276888D01*
X123976888Y-121228137D01*
X124034213Y-121189834D01*
X124097909Y-121163450D01*
X124148623Y-121153363D01*
X124165527Y-121150000D01*
X124234473Y-121150000D01*
X124251377Y-121153363D01*
X124251377Y-121153363D01*
G37*
G36*
X139110442Y-122685518D02*
G01*
X139176627Y-122692037D01*
X139346466Y-122743557D01*
X139502991Y-122827222D01*
X139538729Y-122856552D01*
X139640186Y-122939814D01*
X139723448Y-123041271D01*
X139752778Y-123077009D01*
X139836443Y-123233534D01*
X139887963Y-123403373D01*
X139905359Y-123580000D01*
X139887963Y-123756627D01*
X139836443Y-123926466D01*
X139752778Y-124082991D01*
X139723448Y-124118729D01*
X139640186Y-124220186D01*
X139542931Y-124300000D01*
X139502991Y-124332778D01*
X139346466Y-124416443D01*
X139176627Y-124467963D01*
X139110443Y-124474481D01*
X139044260Y-124481000D01*
X138955740Y-124481000D01*
X138889557Y-124474481D01*
X138823373Y-124467963D01*
X138653534Y-124416443D01*
X138497009Y-124332778D01*
X138457069Y-124300000D01*
X138359814Y-124220186D01*
X138276552Y-124118729D01*
X138247222Y-124082991D01*
X138163557Y-123926466D01*
X138112037Y-123756627D01*
X138094641Y-123580000D01*
X138112037Y-123403373D01*
X138163557Y-123233534D01*
X138247222Y-123077009D01*
X138276552Y-123041271D01*
X138359814Y-122939814D01*
X138461271Y-122856552D01*
X138497009Y-122827222D01*
X138653534Y-122743557D01*
X138823373Y-122692037D01*
X138889558Y-122685518D01*
X138955740Y-122679000D01*
X139044260Y-122679000D01*
X139110442Y-122685518D01*
X139110442Y-122685518D01*
G37*
G36*
X139110442Y-120145518D02*
G01*
X139176627Y-120152037D01*
X139346466Y-120203557D01*
X139502991Y-120287222D01*
X139538729Y-120316552D01*
X139640186Y-120399814D01*
X139723448Y-120501271D01*
X139752778Y-120537009D01*
X139836443Y-120693534D01*
X139887963Y-120863373D01*
X139905359Y-121040000D01*
X139887963Y-121216627D01*
X139836443Y-121386466D01*
X139752778Y-121542991D01*
X139723448Y-121578729D01*
X139640186Y-121680186D01*
X139538729Y-121763448D01*
X139502991Y-121792778D01*
X139346466Y-121876443D01*
X139176627Y-121927963D01*
X139110443Y-121934481D01*
X139044260Y-121941000D01*
X138955740Y-121941000D01*
X138889557Y-121934481D01*
X138823373Y-121927963D01*
X138653534Y-121876443D01*
X138497009Y-121792778D01*
X138461271Y-121763448D01*
X138359814Y-121680186D01*
X138276552Y-121578729D01*
X138247222Y-121542991D01*
X138163557Y-121386466D01*
X138112037Y-121216627D01*
X138094641Y-121040000D01*
X138112037Y-120863373D01*
X138163557Y-120693534D01*
X138247222Y-120537009D01*
X138276552Y-120501271D01*
X138359814Y-120399814D01*
X138461271Y-120316552D01*
X138497009Y-120287222D01*
X138653534Y-120203557D01*
X138823373Y-120152037D01*
X138889558Y-120145518D01*
X138955740Y-120139000D01*
X139044260Y-120139000D01*
X139110442Y-120145518D01*
X139110442Y-120145518D01*
G37*
G36*
X139901000Y-119401000D02*
G01*
X138099000Y-119401000D01*
X138099000Y-117599000D01*
X139901000Y-117599000D01*
X139901000Y-119401000D01*
X139901000Y-119401000D01*
G37*
G36*
X120159561Y-117299763D02*
G01*
X120160870Y-117299834D01*
X120172653Y-117300411D01*
X120256302Y-117308612D01*
X120267888Y-117310447D01*
X120276790Y-117312339D01*
X120278497Y-117312689D01*
X120287625Y-117314496D01*
X120298385Y-117317180D01*
X120378839Y-117341470D01*
X120389881Y-117345532D01*
X120398232Y-117349111D01*
X120399836Y-117349785D01*
X120408457Y-117353338D01*
X120418480Y-117358055D01*
X120492685Y-117397510D01*
X120502715Y-117403633D01*
X120510180Y-117408744D01*
X120511619Y-117409715D01*
X120519432Y-117414907D01*
X120528332Y-117421469D01*
X120593495Y-117474615D01*
X120602116Y-117482544D01*
X120608467Y-117489028D01*
X120609682Y-117490251D01*
X120616322Y-117496846D01*
X120623783Y-117505016D01*
X120677388Y-117569814D01*
X120684303Y-117579264D01*
X120689276Y-117586863D01*
X120690241Y-117588315D01*
X120695454Y-117596043D01*
X120701199Y-117605530D01*
X120741175Y-117679465D01*
X120746138Y-117690108D01*
X120749561Y-117698580D01*
X120750226Y-117700193D01*
X120753822Y-117708747D01*
X120757605Y-117719141D01*
X120782481Y-117799499D01*
X120785262Y-117810832D01*
X120786973Y-117819799D01*
X120787309Y-117821495D01*
X120789182Y-117830621D01*
X120790875Y-117841560D01*
X120799663Y-117925170D01*
X120800194Y-117936886D01*
X120800158Y-117942107D01*
X120800757Y-117955229D01*
X120800847Y-117956143D01*
X120800847Y-118693859D01*
X120799277Y-118709802D01*
X120796419Y-118719225D01*
X120791773Y-118727916D01*
X120785527Y-118735527D01*
X120777916Y-118741773D01*
X120777914Y-118741774D01*
X120777913Y-118741775D01*
X120769227Y-118746418D01*
X120769225Y-118746419D01*
X120759802Y-118749277D01*
X120743859Y-118750847D01*
X118456141Y-118750847D01*
X118440198Y-118749277D01*
X118430775Y-118746419D01*
X118430773Y-118746418D01*
X118422087Y-118741775D01*
X118422086Y-118741774D01*
X118422084Y-118741773D01*
X118414473Y-118735527D01*
X118408227Y-118727916D01*
X118403581Y-118719225D01*
X118400723Y-118709802D01*
X118399153Y-118693859D01*
X118399153Y-117956141D01*
X118399202Y-117955643D01*
X118399642Y-117946011D01*
X118399675Y-117946012D01*
X118400266Y-117931910D01*
X118407890Y-117848146D01*
X118409642Y-117836570D01*
X118411474Y-117827644D01*
X118411812Y-117825940D01*
X118413557Y-117816791D01*
X118416159Y-117806035D01*
X118439887Y-117725414D01*
X118443873Y-117714341D01*
X118447406Y-117705937D01*
X118448073Y-117704319D01*
X118451548Y-117695718D01*
X118456195Y-117685660D01*
X118495136Y-117611174D01*
X118501181Y-117601112D01*
X118506268Y-117593571D01*
X118507233Y-117592118D01*
X118512334Y-117584323D01*
X118518837Y-117575372D01*
X118571544Y-117509816D01*
X118579385Y-117501172D01*
X118585846Y-117494755D01*
X118587067Y-117493524D01*
X118593600Y-117486853D01*
X118601730Y-117479325D01*
X118666121Y-117425295D01*
X118675545Y-117418297D01*
X118683156Y-117413240D01*
X118684595Y-117412269D01*
X118692246Y-117407030D01*
X118701699Y-117401214D01*
X118775371Y-117360713D01*
X118785942Y-117355696D01*
X118794283Y-117352258D01*
X118795892Y-117351582D01*
X118804529Y-117347880D01*
X118814920Y-117344016D01*
X118895033Y-117318604D01*
X118906427Y-117315721D01*
X118915336Y-117313957D01*
X118917055Y-117313604D01*
X118926160Y-117311668D01*
X118937080Y-117309899D01*
X119020618Y-117300529D01*
X119030934Y-117299988D01*
X119031378Y-117299964D01*
X119045375Y-117299181D01*
X119048467Y-117299159D01*
X119049048Y-117299157D01*
X119049918Y-117299157D01*
X119050083Y-117299153D01*
X120149300Y-117299153D01*
X120159561Y-117299763D01*
X120159561Y-117299763D01*
G37*
G36*
X125315486Y-117308229D02*
G01*
X125327423Y-117309405D01*
X125357747Y-117318604D01*
X125449948Y-117346573D01*
X125562868Y-117406930D01*
X125661843Y-117488157D01*
X125743070Y-117587132D01*
X125803427Y-117700052D01*
X125822011Y-117761315D01*
X125840267Y-117821495D01*
X125840595Y-117822578D01*
X125853145Y-117950000D01*
X125840595Y-118077422D01*
X125803427Y-118199948D01*
X125743070Y-118312868D01*
X125661843Y-118411843D01*
X125562868Y-118493070D01*
X125449948Y-118553427D01*
X125388685Y-118572011D01*
X125327423Y-118590595D01*
X125315486Y-118591771D01*
X125231932Y-118600000D01*
X124068068Y-118600000D01*
X123984514Y-118591771D01*
X123972577Y-118590595D01*
X123911315Y-118572011D01*
X123850052Y-118553427D01*
X123737132Y-118493070D01*
X123638157Y-118411843D01*
X123556930Y-118312868D01*
X123496573Y-118199948D01*
X123459405Y-118077422D01*
X123446855Y-117950000D01*
X123459405Y-117822578D01*
X123459734Y-117821495D01*
X123477989Y-117761315D01*
X123496573Y-117700052D01*
X123556930Y-117587132D01*
X123638157Y-117488157D01*
X123737132Y-117406930D01*
X123850052Y-117346573D01*
X123942253Y-117318604D01*
X123972577Y-117309405D01*
X123984514Y-117308229D01*
X124068068Y-117300000D01*
X125231932Y-117300000D01*
X125315486Y-117308229D01*
X125315486Y-117308229D01*
G37*
M02*
